<svg id="Layer_1" data-name="Layer 1" xmlns="http://www.w3.org/2000/svg" viewBox="0 0 240 240"><defs><style>.cls-1{fill:#fff;}</style></defs><path class="cls-1" d="M18,105.82c-6.6,0-11.25,3.91-12.8,10.35h25c-1.06-6.52-5.63-10.35-12.23-10.35m54.64-3.67A18.51,18.51,0,0,0,59,95.87c-5.22,0-8.8,2-12.39,5.46V97.42H26.35a23.26,23.26,0,0,1,15,22,25,25,0,0,1-.66,5.47H5.53A9.17,9.17,0,0,0,7,128.16a13.13,13.13,0,0,0,11,6c4.4,0,8.23-1.79,10.43-5.78H39.85a23.16,23.16,0,0,1-14,14.27H47.44V121.14c0-3.34,0-8.48,2-11.33a9.38,9.38,0,0,1,7.42-4c8.07,0,9.13,8.23,9.13,14.51v22.34H76.79V117.56c0-5.3-.65-11.17-4.15-15.41m28.61,32c-8.07,0-13.62-6.35-13.62-14.18s5.06-14.18,13.13-14.18c5,0,8.15,2.36,10.52,6.6H123.5a23.63,23.63,0,0,0-22.74-16.55,24.13,24.13,0,0,0,.08,48.26c10.68,0,19.08-6.27,22.66-16.22H111.28c-2.29,3.66-5.63,6.27-10,6.27m45.42-38.31a24.13,24.13,0,1,0,0,48.26c13.69,0,24-10.52,24-24.21a23.92,23.92,0,0,0-24-24m0,38.31c-7.83,0-13.29-6.51-13.29-14.1,0-7.34,5.62-14.26,13.29-14.26s13.12,7.09,13.12,14.35c0,7.42-5.46,14-13.12,14m44.67-38.31c-5.38,0-7.58,1.14-10.59,5.54h-.17v-4h-9.94v45.25h10.84V117.23c0-6.6,2.77-10.6,9.86-10.84Zm43.46,23.56a23.23,23.23,0,0,0-23.4-23.56c-13.7,0-23.81,10.76-23.81,24.3a23.59,23.59,0,0,0,23.89,24c9.62,0,18.92-6.52,21.85-15.73H221.92c-2.2,4-6,5.78-10.44,5.78a13.1,13.1,0,0,1-11-6A9.19,9.19,0,0,1,199,124.9h35.14a25.61,25.61,0,0,0,.65-5.47m-36.12-3.26c1.55-6.44,6.2-10.35,12.8-10.35s11.17,3.83,12.23,10.35Z"/></svg>