<?xml version="1.0" encoding="UTF-8" standalone="no"?>
<!-- Created with Inkscape (http://www.inkscape.org/) -->

<svg
   xmlns:dc="http://purl.org/dc/elements/1.1/"
   xmlns:cc="http://creativecommons.org/ns#"
   xmlns:rdf="http://www.w3.org/1999/02/22-rdf-syntax-ns#"
   xmlns:svg="http://www.w3.org/2000/svg"
   xmlns="http://www.w3.org/2000/svg"
   xmlns:sodipodi="http://sodipodi.sourceforge.net/DTD/sodipodi-0.dtd"
   xmlns:inkscape="http://www.inkscape.org/namespaces/inkscape"
   version="1.1"
   id="svg3732"
   xml:space="preserve"
   width="157"
   height="32"
   viewBox="0 0 157 32"
   sodipodi:docname="logo-header.svg"
   inkscape:version="0.92.5 (2060ec1f9f, 2020-04-08)"><metadata
     id="metadata3738"><rdf:RDF><cc:Work
         rdf:about=""><dc:format>image/svg+xml</dc:format><dc:type
           rdf:resource="http://purl.org/dc/dcmitype/StillImage" /><dc:title /></cc:Work></rdf:RDF></metadata><defs
     id="defs3736"><clipPath
       clipPathUnits="userSpaceOnUse"
       id="clipPath3748"><path
         d="M 0,113.4 H 409.6 V 0 H 0 Z"
         id="path3746"
         inkscape:connector-curvature="0" /></clipPath><clipPath
       clipPathUnits="userSpaceOnUse"
       id="clipPath3764"><path
         d="m 29.65,35.5796 h 3.5806 V 31.999 H 29.65 Z"
         id="path3762"
         inkscape:connector-curvature="0" /></clipPath><clipPath
       clipPathUnits="userSpaceOnUse"
       id="clipPath3780"><path
         d="m 30.7242,44.5312 h 4.2967 v -4.2968 h -4.2967 z"
         id="path3778"
         inkscape:connector-curvature="0" /></clipPath><clipPath
       clipPathUnits="userSpaceOnUse"
       id="clipPath3812"><path
         d="m 52.1183,14.0959 h 3.5806 v -3.5806 h -3.5806 z"
         id="path3810"
         inkscape:connector-curvature="0" /></clipPath><clipPath
       clipPathUnits="userSpaceOnUse"
       id="clipPath3828"><path
         d="m 47.8216,22.1523 h 4.2967 v -4.2967 h -4.2967 z"
         id="path3826"
         inkscape:connector-curvature="0" /></clipPath><clipPath
       clipPathUnits="userSpaceOnUse"
       id="clipPath3860"><path
         d="m 82.5535,9.7097 h 3.5806 V 6.12909 h -3.5806 z"
         id="path3858"
         inkscape:connector-curvature="0" /></clipPath><clipPath
       clipPathUnits="userSpaceOnUse"
       id="clipPath3876"><path
         d="m 74.4076,14.0064 h 4.2968 V 9.7097 h -4.2968 z"
         id="path3874"
         inkscape:connector-curvature="0" /></clipPath><clipPath
       clipPathUnits="userSpaceOnUse"
       id="clipPath3908"><path
         d="m 110.035,24.3007 h 3.58 v -3.5806 h -3.58 z"
         id="path3906"
         inkscape:connector-curvature="0" /></clipPath><clipPath
       clipPathUnits="userSpaceOnUse"
       id="clipPath3924"><path
         d="m 101.083,23.316 h 4.297 v -4.2967 h -4.297 z"
         id="path3922"
         inkscape:connector-curvature="0" /></clipPath><clipPath
       clipPathUnits="userSpaceOnUse"
       id="clipPath3972"><path
         d="m 95.6228,104.865 h 3.5806 v -3.581 h -3.5806 z"
         id="path3970"
         inkscape:connector-curvature="0" /></clipPath><clipPath
       clipPathUnits="userSpaceOnUse"
       id="clipPath3988"><path
         d="M 99.2034,97.4347 H 103.5 V 93.138 h -4.2966 z"
         id="path3986"
         inkscape:connector-curvature="0" /></clipPath><clipPath
       clipPathUnits="userSpaceOnUse"
       id="clipPath4012"><path
         d="m 64.5609,107.371 h 3.5807 v -3.581 h -3.5807 z"
         id="path4010"
         inkscape:connector-curvature="0" /></clipPath><clipPath
       clipPathUnits="userSpaceOnUse"
       id="clipPath4028"><path
         d="m 71.9012,105.491 h 4.2967 v -4.297 h -4.2967 z"
         id="path4026"
         inkscape:connector-curvature="0" /></clipPath><clipPath
       clipPathUnits="userSpaceOnUse"
       id="clipPath4056"><path
         d="m 37.2588,94.3017 h 3.5806 v -3.5806 h -3.5806 z"
         id="path4054"
         inkscape:connector-curvature="0" /></clipPath><clipPath
       clipPathUnits="userSpaceOnUse"
       id="clipPath4072"><path
         d="m 45.4942,95.913 h 4.2967 v -4.2968 h -4.2967 z"
         id="path4070"
         inkscape:connector-curvature="0" /></clipPath><clipPath
       clipPathUnits="userSpaceOnUse"
       id="clipPath4104"><path
         d="m 24.1,65.9253 h 3.5806 V 62.3447 H 24.1 Z"
         id="path4102"
         inkscape:connector-curvature="0" /></clipPath><clipPath
       clipPathUnits="userSpaceOnUse"
       id="clipPath4120"><path
         d="m 29.9185,72.3704 h 4.2967 v -4.2967 h -4.2967 z"
         id="path4118"
         inkscape:connector-curvature="0" /></clipPath></defs><sodipodi:namedview
     pagecolor="#ffffff"
     bordercolor="#666666"
     borderopacity="1"
     objecttolerance="10"
     gridtolerance="10"
     guidetolerance="10"
     inkscape:pageopacity="0"
     inkscape:pageshadow="2"
     inkscape:window-width="1848"
     inkscape:window-height="1136"
     id="namedview3734"
     showgrid="false"
     inkscape:zoom="6.2365726"
     inkscape:cx="118.02654"
     inkscape:cy="26.641254"
     inkscape:window-x="72"
     inkscape:window-y="27"
     inkscape:window-maximized="1"
     inkscape:current-layer="g3744" /><g
     id="g3740"
     inkscape:groupmode="layer"
     inkscape:label="Encore_tech_logo_main"
     transform="matrix(1.3333333,0,0,-1.3333333,-376.77507,36.027463)"><g
       id="g3742"><g
         id="g3744"
         clip-path="url(#clipPath3748)"
         transform="matrix(0.3384497,0,0,0.23705694,274.42464,1.567557)"><g
           id="g3750"
           transform="translate(40.9287,63.1504)"><path
             d="m 0,0 c 1.681,0 3.044,-1.363 3.044,-3.043 0,-1.682 -1.363,-3.044 -3.044,-3.044 -1.681,0 -3.043,1.362 -3.043,3.044 C -3.043,-1.363 -1.681,0 0,0"
             style="fill:#0857c3;fill-opacity:1;fill-rule:nonzero;stroke:none"
             id="path3752"
             inkscape:connector-curvature="0" /></g><g
           id="g3754"
           transform="translate(36.0054,54.5571)"><path
             d="m 0,0 c 1.483,0 2.686,-1.202 2.686,-2.686 0,-1.483 -1.203,-2.685 -2.686,-2.685 -1.483,0 -2.685,1.202 -2.685,2.685 C -2.685,-1.202 -1.483,0 0,0"
             style="fill:#0857c3;fill-opacity:1;fill-rule:nonzero;stroke:none"
             id="path3756"
             inkscape:connector-curvature="0" /></g><g
           id="g3758"><g
             id="g3760" /><g
             id="g3772"><g
               clip-path="url(#clipPath3764)"
               id="g3770"
               style="opacity:0.10000598"><g
                 transform="translate(31.4404,35.5796)"
                 id="g3768"><path
                   d="m 0,0 c 0.989,0 1.79,-0.802 1.79,-1.79 0,-0.989 -0.801,-1.79 -1.79,-1.79 -0.989,0 -1.791,0.801 -1.791,1.79 C -1.791,-0.802 -0.989,0 0,0"
                   style="fill:#0857c3;fill-opacity:1;fill-rule:nonzero;stroke:none"
                   id="path3766"
                   inkscape:connector-curvature="0" /></g></g></g></g><g
           id="g3774"><g
             id="g3776" /><g
             id="g3788"><g
               clip-path="url(#clipPath3780)"
               id="g3786"
               style="opacity:0.39999402"><g
                 transform="translate(32.8726,44.5307)"
                 id="g3784"><path
                   d="m 0,0 c 1.187,0 2.148,-0.962 2.148,-2.147 0,-1.187 -0.961,-2.149 -2.148,-2.149 -1.187,0 -2.148,0.962 -2.148,2.149 C -2.148,-0.962 -1.187,0 0,0"
                   style="fill:#0857c3;fill-opacity:1;fill-rule:nonzero;stroke:none"
                   id="path3782"
                   inkscape:connector-curvature="0" /></g></g></g></g><g
           id="g3790"
           transform="translate(47.9111,70.043)"><path
             d="M 0,0 C 1.878,0 3.401,-1.523 3.401,-3.401 3.401,-5.28 1.878,-6.803 0,-6.803 c -1.879,0 -3.402,1.523 -3.402,3.402 C -3.402,-1.523 -1.879,0 0,0"
             style="fill:#0857c3;fill-opacity:1;fill-rule:nonzero;stroke:none"
             id="path3792"
             inkscape:connector-curvature="0" /></g><g
           id="g3794"
           transform="translate(56.0571,74.6084)"><path
             d="m 0,0 c 1.582,0 2.864,-1.283 2.864,-2.865 0,-1.582 -1.282,-2.864 -2.864,-2.864 -1.582,0 -2.865,1.282 -2.865,2.864 C -2.865,-1.283 -1.582,0 0,0"
             style="fill:#0857c3;fill-opacity:1;fill-rule:nonzero;stroke:none"
             id="path3796"
             inkscape:connector-curvature="0" /></g><g
           id="g3798"
           transform="translate(46.2104,42.2036)"><path
             d="m 0,0 c 1.681,0 3.043,-1.362 3.043,-3.043 0,-1.682 -1.362,-3.044 -3.043,-3.044 -1.681,0 -3.043,1.362 -3.043,3.044 C -3.043,-1.362 -1.681,0 0,0"
             style="fill:#0857c3;fill-opacity:1;fill-rule:nonzero;stroke:none"
             id="path3800"
             inkscape:connector-curvature="0" /></g><g
           id="g3802"
           transform="translate(46.9263,32.2681)"><path
             d="m 0,0 c 1.483,0 2.686,-1.203 2.686,-2.686 0,-1.483 -1.203,-2.685 -2.686,-2.685 -1.483,0 -2.686,1.202 -2.686,2.685 C -2.686,-1.203 -1.483,0 0,0"
             style="fill:#0857c3;fill-opacity:1;fill-rule:nonzero;stroke:none"
             id="path3804"
             inkscape:connector-curvature="0" /></g><g
           id="g3806"><g
             id="g3808" /><g
             id="g3820"><g
               clip-path="url(#clipPath3812)"
               id="g3818"
               style="opacity:0.10000598"><g
                 transform="translate(53.9087,14.0962)"
                 id="g3816"><path
                   d="m 0,0 c 0.989,0 1.79,-0.802 1.79,-1.791 0,-0.988 -0.801,-1.79 -1.79,-1.79 -0.989,0 -1.791,0.802 -1.791,1.79 C -1.791,-0.802 -0.989,0 0,0"
                   style="fill:#0857c3;fill-opacity:1;fill-rule:nonzero;stroke:none"
                   id="path3814"
                   inkscape:connector-curvature="0" /></g></g></g></g><g
           id="g3822"><g
             id="g3824" /><g
             id="g3836"><g
               clip-path="url(#clipPath3828)"
               id="g3834"
               style="opacity:0.39999402"><g
                 transform="translate(49.9697,22.1528)"
                 id="g3832"><path
                   d="m 0,0 c 1.187,0 2.148,-0.962 2.148,-2.148 0,-1.187 -0.961,-2.149 -2.148,-2.149 -1.187,0 -2.148,0.962 -2.148,2.149 C -2.148,-0.962 -1.187,0 0,0"
                   style="fill:#0857c3;fill-opacity:1;fill-rule:nonzero;stroke:none"
                   id="path3830"
                   inkscape:connector-curvature="0" /></g></g></g></g><g
           id="g3838"
           transform="translate(48.0005,51.9614)"><path
             d="M 0,0 C 1.879,0 3.402,-1.523 3.402,-3.402 3.402,-5.28 1.879,-6.804 0,-6.804 c -1.878,0 -3.401,1.524 -3.401,3.402 C -3.401,-1.523 -1.878,0 0,0"
             style="fill:#0857c3;fill-opacity:1;fill-rule:nonzero;stroke:none"
             id="path3840"
             inkscape:connector-curvature="0" /></g><g
           id="g3842"
           transform="translate(51.4917,60.3755)"><path
             d="m 0,0 c 1.582,0 2.864,-1.283 2.864,-2.865 0,-1.582 -1.282,-2.864 -2.864,-2.864 -1.582,0 -2.864,1.282 -2.864,2.864 C -2.864,-1.283 -1.582,0 0,0"
             style="fill:#0857c3;fill-opacity:1;fill-rule:nonzero;stroke:none"
             id="path3844"
             inkscape:connector-curvature="0" /></g><g
           id="g3846"
           transform="translate(62.2334,28.06)"><path
             d="m 0,0 c 1.681,0 3.043,-1.362 3.043,-3.043 0,-1.681 -1.362,-3.044 -3.043,-3.044 -1.681,0 -3.043,1.363 -3.043,3.044 C -3.043,-1.362 -1.681,0 0,0"
             style="fill:#0857c3;fill-opacity:1;fill-rule:nonzero;stroke:none"
             id="path3848"
             inkscape:connector-curvature="0" /></g><g
           id="g3850"
           transform="translate(68.4995,20.5415)"><path
             d="m 0,0 c 1.483,0 2.686,-1.203 2.686,-2.686 0,-1.483 -1.203,-2.685 -2.686,-2.685 -1.483,0 -2.686,1.202 -2.686,2.685 C -2.686,-1.203 -1.483,0 0,0"
             style="fill:#0857c3;fill-opacity:1;fill-rule:nonzero;stroke:none"
             id="path3852"
             inkscape:connector-curvature="0" /></g><g
           id="g3854"><g
             id="g3856" /><g
             id="g3868"><g
               clip-path="url(#clipPath3860)"
               id="g3866"
               style="opacity:0.10000598"><g
                 transform="translate(84.3438,9.7095)"
                 id="g3864"><path
                   d="m 0,0 c 0.989,0 1.791,-0.802 1.791,-1.79 0,-0.989 -0.802,-1.79 -1.791,-1.79 -0.989,0 -1.79,0.801 -1.79,1.79 C -1.79,-0.802 -0.989,0 0,0"
                   style="fill:#0857c3;fill-opacity:1;fill-rule:nonzero;stroke:none"
                   id="path3862"
                   inkscape:connector-curvature="0" /></g></g></g></g><g
           id="g3870"><g
             id="g3872" /><g
             id="g3884"><g
               clip-path="url(#clipPath3876)"
               id="g3882"
               style="opacity:0.39999402"><g
                 transform="translate(76.5562,14.0063)"
                 id="g3880"><path
                   d="m 0,0 c 1.187,0 2.148,-0.962 2.148,-2.148 0,-1.187 -0.961,-2.149 -2.148,-2.149 -1.187,0 -2.148,0.962 -2.148,2.149 C -2.148,-0.962 -1.187,0 0,0"
                   style="fill:#0857c3;fill-opacity:1;fill-rule:nonzero;stroke:none"
                   id="path3878"
                   inkscape:connector-curvature="0" /></g></g></g></g><g
           id="g3886"
           transform="translate(58.1157,37.1011)"><path
             d="M 0,0 C 1.879,0 3.402,-1.522 3.402,-3.401 3.402,-5.28 1.879,-6.803 0,-6.803 c -1.878,0 -3.401,1.523 -3.401,3.402 C -3.401,-1.522 -1.878,0 0,0"
             style="fill:#0857c3;fill-opacity:1;fill-rule:nonzero;stroke:none"
             id="path3888"
             inkscape:connector-curvature="0" /></g><g
           id="g3890"
           transform="translate(55.7886,45.8735)"><path
             d="m 0,0 c 1.582,0 2.864,-1.282 2.864,-2.864 0,-1.582 -1.282,-2.865 -2.864,-2.865 -1.582,0 -2.865,1.283 -2.865,2.865 C -2.865,-1.282 -1.582,0 0,0"
             style="fill:#0857c3;fill-opacity:1;fill-rule:nonzero;stroke:none"
             id="path3892"
             inkscape:connector-curvature="0" /></g><g
           id="g3894"
           transform="translate(83.8965,26.3598)"><path
             d="m 0,0 c 1.681,0 3.043,-1.363 3.043,-3.044 0,-1.681 -1.362,-3.043 -3.043,-3.043 -1.681,0 -3.044,1.362 -3.044,3.043 C -3.044,-1.363 -1.681,0 0,0"
             style="fill:#0857c3;fill-opacity:1;fill-rule:nonzero;stroke:none"
             id="path3896"
             inkscape:connector-curvature="0" /></g><g
           id="g3898"
           transform="translate(93.2061,23.9429)"><path
             d="m 0,0 c 1.483,0 2.685,-1.202 2.685,-2.686 0,-1.483 -1.202,-2.685 -2.685,-2.685 -1.483,0 -2.686,1.202 -2.686,2.685 C -2.686,-1.202 -1.483,0 0,0"
             style="fill:#0857c3;fill-opacity:1;fill-rule:nonzero;stroke:none"
             id="path3900"
             inkscape:connector-curvature="0" /></g><g
           id="g3902"><g
             id="g3904" /><g
             id="g3916"><g
               clip-path="url(#clipPath3908)"
               id="g3914"
               style="opacity:0.10000598"><g
                 transform="translate(111.8252,24.3003)"
                 id="g3912"><path
                   d="m 0,0 c 0.989,0 1.79,-0.801 1.79,-1.79 0,-0.988 -0.801,-1.79 -1.79,-1.79 -0.989,0 -1.791,0.802 -1.791,1.79 C -1.791,-0.801 -0.989,0 0,0"
                   style="fill:#0857c3;fill-opacity:1;fill-rule:nonzero;stroke:none"
                   id="path3910"
                   inkscape:connector-curvature="0" /></g></g></g></g><g
           id="g3918"><g
             id="g3920" /><g
             id="g3932"><g
               clip-path="url(#clipPath3924)"
               id="g3930"
               style="opacity:0.39999402"><g
                 transform="translate(103.2314,23.3159)"
                 id="g3928"><path
                   d="m 0,0 c 1.187,0 2.148,-0.962 2.148,-2.148 0,-1.187 -0.961,-2.149 -2.148,-2.149 -1.187,0 -2.148,0.962 -2.148,2.149 C -2.148,-0.962 -1.187,0 0,0"
                   style="fill:#0857c3;fill-opacity:1;fill-rule:nonzero;stroke:none"
                   id="path3926"
                   inkscape:connector-curvature="0" /></g></g></g></g><g
           id="g3934"
           transform="translate(75.4819,31.3725)"><path
             d="M 0,0 C 1.878,0 3.401,-1.523 3.401,-3.401 3.401,-5.28 1.878,-6.804 0,-6.804 c -1.879,0 -3.402,1.524 -3.402,3.403 C -3.402,-1.523 -1.879,0 0,0"
             style="fill:#0857c3;fill-opacity:1;fill-rule:nonzero;stroke:none"
             id="path3936"
             inkscape:connector-curvature="0" /></g><g
           id="g3938"
           transform="translate(68.0522,37.0122)"><path
             d="m 0,0 c 1.582,0 2.864,-1.283 2.864,-2.865 0,-1.582 -1.282,-2.864 -2.864,-2.864 -1.582,0 -2.865,1.282 -2.865,2.864 C -2.865,-1.283 -1.582,0 0,0"
             style="fill:#0857c3;fill-opacity:1;fill-rule:nonzero;stroke:none"
             id="path3940"
             inkscape:connector-curvature="0" /></g><g
           id="g3942"
           transform="translate(102.2471,38.1753)"><path
             d="m 0,0 c 1.681,0 3.043,-1.362 3.043,-3.043 0,-1.681 -1.362,-3.044 -3.043,-3.044 -1.681,0 -3.044,1.363 -3.044,3.044 C -3.044,-1.362 -1.681,0 0,0"
             style="fill:#0857c3;fill-opacity:1;fill-rule:nonzero;stroke:none"
             id="path3944"
             inkscape:connector-curvature="0" /></g><g
           id="g3946"
           transform="translate(111.0195,41.5776)"><path
             d="m 0,0 c 1.483,0 2.686,-1.203 2.686,-2.686 0,-1.483 -1.203,-2.685 -2.686,-2.685 -1.483,0 -2.686,1.202 -2.686,2.685 C -2.686,-1.203 -1.483,0 0,0"
             style="fill:#0857c3;fill-opacity:1;fill-rule:nonzero;stroke:none"
             id="path3948"
             inkscape:connector-curvature="0" /></g><g
           id="g3950"
           transform="translate(92.7583,37.3696)"><path
             d="M 0,0 C 1.878,0 3.401,-1.522 3.401,-3.401 3.401,-5.28 1.878,-6.803 0,-6.803 c -1.879,0 -3.402,1.523 -3.402,3.402 C -3.402,-1.522 -1.879,0 0,0"
             style="fill:#0857c3;fill-opacity:1;fill-rule:nonzero;stroke:none"
             id="path3952"
             inkscape:connector-curvature="0" /></g><g
           id="g3954"
           transform="translate(83.0908,37.3696)"><path
             d="m 0,0 c 1.582,0 2.864,-1.282 2.864,-2.864 0,-1.582 -1.282,-2.865 -2.864,-2.865 -1.582,0 -2.865,1.283 -2.865,2.865 C -2.865,-1.282 -1.582,0 0,0"
             style="fill:#0857c3;fill-opacity:1;fill-rule:nonzero;stroke:none"
             id="path3956"
             inkscape:connector-curvature="0" /></g><g
           id="g3958"
           transform="translate(105.2007,79.1738)"><path
             d="m 0,0 c 1.681,0 3.044,-1.363 3.044,-3.044 0,-1.681 -1.363,-3.043 -3.044,-3.043 -1.681,0 -3.043,1.362 -3.043,3.043 C -3.043,-1.363 -1.681,0 0,0"
             style="fill:#0857c3;fill-opacity:1;fill-rule:nonzero;stroke:none"
             id="path3960"
             inkscape:connector-curvature="0" /></g><g
           id="g3962"
           transform="translate(104.395,88.3935)"><path
             d="m 0,0 c 1.483,0 2.686,-1.202 2.686,-2.686 0,-1.482 -1.203,-2.685 -2.686,-2.685 -1.483,0 -2.685,1.203 -2.685,2.685 C -2.685,-1.202 -1.483,0 0,0"
             style="fill:#0857c3;fill-opacity:1;fill-rule:nonzero;stroke:none"
             id="path3964"
             inkscape:connector-curvature="0" /></g><g
           id="g3966"><g
             id="g3968" /><g
             id="g3980"><g
               clip-path="url(#clipPath3972)"
               id="g3978"
               style="opacity:0.10000598"><g
                 transform="translate(97.4131,104.8647)"
                 id="g3976"><path
                   d="m 0,0 c 0.989,0 1.791,-0.802 1.791,-1.791 0,-0.988 -0.802,-1.79 -1.791,-1.79 -0.989,0 -1.791,0.802 -1.791,1.79 C -1.791,-0.802 -0.989,0 0,0"
                   style="fill:#0857c3;fill-opacity:1;fill-rule:nonzero;stroke:none"
                   id="path3974"
                   inkscape:connector-curvature="0" /></g></g></g></g><g
           id="g3982"><g
             id="g3984" /><g
             id="g3996"><g
               clip-path="url(#clipPath3988)"
               id="g3994"
               style="opacity:0.39999402"><g
                 transform="translate(101.3516,97.4346)"
                 id="g3992"><path
                   d="m 0,0 c 1.187,0 2.148,-0.962 2.148,-2.148 0,-1.186 -0.961,-2.148 -2.148,-2.148 -1.187,0 -2.148,0.962 -2.148,2.148 C -2.148,-0.962 -1.187,0 0,0"
                   style="fill:#0857c3;fill-opacity:1;fill-rule:nonzero;stroke:none"
                   id="path3990"
                   inkscape:connector-curvature="0" /></g></g></g></g><g
           id="g3998"
           transform="translate(88.3721,93.2275)"><path
             d="m 0,0 c 1.681,0 3.043,-1.363 3.043,-3.043 0,-1.682 -1.362,-3.044 -3.043,-3.044 -1.681,0 -3.043,1.362 -3.043,3.044 C -3.043,-1.363 -1.681,0 0,0"
             style="fill:#0857c3;fill-opacity:1;fill-rule:nonzero;stroke:none"
             id="path4000"
             inkscape:connector-curvature="0" /></g><g
           id="g4002"
           transform="translate(82.106,100.1201)"><path
             d="m 0,0 c 1.483,0 2.686,-1.202 2.686,-2.686 0,-1.482 -1.203,-2.685 -2.686,-2.685 -1.483,0 -2.686,1.203 -2.686,2.685 C -2.686,-1.202 -1.483,0 0,0"
             style="fill:#0857c3;fill-opacity:1;fill-rule:nonzero;stroke:none"
             id="path4004"
             inkscape:connector-curvature="0" /></g><g
           id="g4006"><g
             id="g4008" /><g
             id="g4020"><g
               clip-path="url(#clipPath4012)"
               id="g4018"
               style="opacity:0.10000598"><g
                 transform="translate(66.3511,107.3711)"
                 id="g4016"><path
                   d="m 0,0 c 0.989,0 1.791,-0.802 1.791,-1.791 0,-0.988 -0.802,-1.79 -1.791,-1.79 -0.989,0 -1.79,0.802 -1.79,1.79 C -1.79,-0.802 -0.989,0 0,0"
                   style="fill:#0857c3;fill-opacity:1;fill-rule:nonzero;stroke:none"
                   id="path4014"
                   inkscape:connector-curvature="0" /></g></g></g></g><g
           id="g4022"><g
             id="g4024" /><g
             id="g4036"><g
               clip-path="url(#clipPath4028)"
               id="g4034"
               style="opacity:0.39999402"><g
                 transform="translate(74.0498,105.4912)"
                 id="g4032"><path
                   d="m 0,0 c 1.186,0 2.148,-0.962 2.148,-2.148 0,-1.187 -0.962,-2.149 -2.148,-2.149 -1.187,0 -2.148,0.962 -2.148,2.149 C -2.148,-0.962 -1.187,0 0,0"
                   style="fill:#0857c3;fill-opacity:1;fill-rule:nonzero;stroke:none"
                   id="path4030"
                   inkscape:connector-curvature="0" /></g></g></g></g><g
           id="g4038"
           transform="translate(92.4897,84.9028)"><path
             d="M 0,0 C 1.878,0 3.401,-1.523 3.401,-3.402 3.401,-5.28 1.878,-6.803 0,-6.803 c -1.878,0 -3.401,1.523 -3.401,3.401 C -3.401,-1.523 -1.878,0 0,0"
             style="fill:#0857c3;fill-opacity:1;fill-rule:nonzero;stroke:none"
             id="path4040"
             inkscape:connector-curvature="0" /></g><g
           id="g4042"
           transform="translate(66.978,94.5703)"><path
             d="m 0,0 c 1.681,0 3.043,-1.363 3.043,-3.043 0,-1.682 -1.362,-3.044 -3.043,-3.044 -1.681,0 -3.043,1.362 -3.043,3.044 C -3.043,-1.363 -1.681,0 0,0"
             style="fill:#0857c3;fill-opacity:1;fill-rule:nonzero;stroke:none"
             id="path4044"
             inkscape:connector-curvature="0" /></g><g
           id="g4046"
           transform="translate(57.7578,96.4502)"><path
             d="m 0,0 c 1.483,0 2.686,-1.203 2.686,-2.686 0,-1.483 -1.203,-2.685 -2.686,-2.685 -1.483,0 -2.686,1.202 -2.686,2.685 C -2.686,-1.203 -1.483,0 0,0"
             style="fill:#0857c3;fill-opacity:1;fill-rule:nonzero;stroke:none"
             id="path4048"
             inkscape:connector-curvature="0" /></g><g
           id="g4050"><g
             id="g4052" /><g
             id="g4064"><g
               clip-path="url(#clipPath4056)"
               id="g4062"
               style="opacity:0.10000598"><g
                 transform="translate(39.0488,94.3017)"
                 id="g4060"><path
                   d="m 0,0 c 0.989,0 1.791,-0.802 1.791,-1.791 0,-0.988 -0.802,-1.79 -1.791,-1.79 -0.988,0 -1.79,0.802 -1.79,1.79 C -1.79,-0.802 -0.988,0 0,0"
                   style="fill:#0857c3;fill-opacity:1;fill-rule:nonzero;stroke:none"
                   id="path4058"
                   inkscape:connector-curvature="0" /></g></g></g></g><g
           id="g4066"><g
             id="g4068" /><g
             id="g4080"><g
               clip-path="url(#clipPath4072)"
               id="g4078"
               style="opacity:0.39999402"><g
                 transform="translate(47.6426,95.9131)"
                 id="g4076"><path
                   d="m 0,0 c 1.187,0 2.148,-0.962 2.148,-2.148 0,-1.187 -0.961,-2.149 -2.148,-2.149 -1.187,0 -2.148,0.962 -2.148,2.149 C -2.148,-0.962 -1.187,0 0,0"
                   style="fill:#0857c3;fill-opacity:1;fill-rule:nonzero;stroke:none"
                   id="path4074"
                   inkscape:connector-curvature="0" /></g></g></g></g><g
           id="g4082"
           transform="translate(75.3921,90.3628)"><path
             d="M 0,0 C 1.879,0 3.402,-1.522 3.402,-3.401 3.402,-5.28 1.879,-6.803 0,-6.803 c -1.878,0 -3.401,1.523 -3.401,3.402 C -3.401,-1.522 -1.878,0 0,0"
             style="fill:#0857c3;fill-opacity:1;fill-rule:nonzero;stroke:none"
             id="path4084"
             inkscape:connector-curvature="0" /></g><g
           id="g4086"
           transform="translate(82.8223,83.6494)"><path
             d="m 0,0 c 1.582,0 2.864,-1.283 2.864,-2.865 0,-1.582 -1.282,-2.864 -2.864,-2.864 -1.582,0 -2.865,1.282 -2.865,2.864 C -2.865,-1.283 -1.582,0 0,0"
             style="fill:#0857c3;fill-opacity:1;fill-rule:nonzero;stroke:none"
             id="path4088"
             inkscape:connector-curvature="0" /></g><g
           id="g4090"
           transform="translate(49.0747,82.7544)"><path
             d="m 0,0 c 1.681,0 3.043,-1.363 3.043,-3.043 0,-1.682 -1.362,-3.044 -3.043,-3.044 -1.681,0 -3.043,1.362 -3.043,3.044 C -3.043,-1.363 -1.681,0 0,0"
             style="fill:#0857c3;fill-opacity:1;fill-rule:nonzero;stroke:none"
             id="path4092"
             inkscape:connector-curvature="0" /></g><g
           id="g4094"
           transform="translate(40.2129,78.8154)"><path
             d="m 0,0 c 1.483,0 2.686,-1.202 2.686,-2.686 0,-1.482 -1.203,-2.685 -2.686,-2.685 -1.483,0 -2.686,1.203 -2.686,2.685 C -2.686,-1.202 -1.483,0 0,0"
             style="fill:#0857c3;fill-opacity:1;fill-rule:nonzero;stroke:none"
             id="path4096"
             inkscape:connector-curvature="0" /></g><g
           id="g4098"><g
             id="g4100" /><g
             id="g4112"><g
               clip-path="url(#clipPath4104)"
               id="g4110"
               style="opacity:0.10000598"><g
                 transform="translate(25.8901,65.9253)"
                 id="g4108"><path
                   d="m 0,0 c 0.989,0 1.791,-0.801 1.791,-1.79 0,-0.989 -0.802,-1.791 -1.791,-1.791 -0.989,0 -1.79,0.802 -1.79,1.791 C -1.79,-0.801 -0.989,0 0,0"
                   style="fill:#0857c3;fill-opacity:1;fill-rule:nonzero;stroke:none"
                   id="path4106"
                   inkscape:connector-curvature="0" /></g></g></g></g><g
           id="g4114"><g
             id="g4116" /><g
             id="g4128"><g
               clip-path="url(#clipPath4120)"
               id="g4126"
               style="opacity:0.39999402"><g
                 transform="translate(32.0669,72.3706)"
                 id="g4124"><path
                   d="m 0,0 c 1.187,0 2.148,-0.962 2.148,-2.148 0,-1.187 -0.961,-2.149 -2.148,-2.149 -1.187,0 -2.148,0.962 -2.148,2.149 C -2.148,-0.962 -1.187,0 0,0"
                   style="fill:#0857c3;fill-opacity:1;fill-rule:nonzero;stroke:none"
                   id="path4122"
                   inkscape:connector-curvature="0" /></g></g></g></g><g
           id="g4130"
           transform="translate(58.4741,84.4551)"><path
             d="M 0,0 C 1.878,0 3.401,-1.523 3.401,-3.402 3.401,-5.28 1.878,-6.803 0,-6.803 c -1.879,0 -3.402,1.523 -3.402,3.401 C -3.402,-1.523 -1.879,0 0,0"
             style="fill:#0857c3;fill-opacity:1;fill-rule:nonzero;stroke:none"
             id="path4132"
             inkscape:connector-curvature="0" /></g><g
           id="g4134"
           transform="translate(68.1416,83.2016)"><path
             d="m 0,0 c 1.582,0 2.864,-1.282 2.864,-2.864 0,-1.582 -1.282,-2.865 -2.864,-2.865 -1.582,0 -2.865,1.283 -2.865,2.865 C -2.865,-1.282 -1.582,0 0,0"
             style="fill:#0857c3;fill-opacity:1;fill-rule:nonzero;stroke:none"
             id="path4136"
             inkscape:connector-curvature="0" /></g><g
           id="g4138"
           transform="translate(57.5786,65.9253)"><path
             d="m 0,0 c 1.286,0 2.328,-1.042 2.328,-2.327 0,-1.286 -1.042,-2.328 -2.328,-2.328 -1.285,0 -2.327,1.042 -2.327,2.328 C -2.327,-1.042 -1.285,0 0,0"
             style="fill:#0857c3;fill-opacity:1;fill-rule:nonzero;stroke:none"
             id="path4140"
             inkscape:connector-curvature="0" /></g><g
           id="g4142"
           transform="translate(57.4893,54.1089)"><path
             d="m 0,0 c 1.285,0 2.327,-1.042 2.327,-2.327 0,-1.285 -1.042,-2.327 -2.327,-2.327 -1.286,0 -2.328,1.042 -2.328,2.327 C -2.328,-1.042 -1.286,0 0,0"
             style="fill:#0857c3;fill-opacity:1;fill-rule:nonzero;stroke:none"
             id="path4144"
             inkscape:connector-curvature="0" /></g><g
           id="g4146"
           transform="translate(64.1133,44.2622)"><path
             d="m 0,0 c 1.286,0 2.328,-1.042 2.328,-2.327 0,-1.285 -1.042,-2.327 -2.328,-2.327 -1.285,0 -2.327,1.042 -2.327,2.327 C -2.327,-1.042 -1.285,0 0,0"
             style="fill:#0857c3;fill-opacity:1;fill-rule:nonzero;stroke:none"
             id="path4148"
             inkscape:connector-curvature="0" /></g><g
           id="g4150"
           transform="translate(75.4819,40.4136)"><path
             d="m 0,0 c 1.285,0 2.327,-1.042 2.327,-2.327 0,-1.286 -1.042,-2.328 -2.327,-2.328 -1.286,0 -2.328,1.042 -2.328,2.328 C -2.328,-1.042 -1.286,0 0,0"
             style="fill:#0857c3;fill-opacity:1;fill-rule:nonzero;stroke:none"
             id="path4152"
             inkscape:connector-curvature="0" /></g><g
           id="g4154"
           transform="translate(75.5713,78.9946)"><path
             d="m 0,0 c 1.286,0 2.328,-1.042 2.328,-2.328 0,-1.285 -1.042,-2.327 -2.328,-2.327 -1.285,0 -2.327,1.042 -2.327,2.327 C -2.327,-1.042 -1.285,0 0,0"
             style="fill:#0857c3;fill-opacity:1;fill-rule:nonzero;stroke:none"
             id="path4156"
             inkscape:connector-curvature="0" /></g><g
           id="g4158"
           transform="translate(64.6504,75.1455)"><path
             d="m 0,0 c 1.286,0 2.328,-1.042 2.328,-2.328 0,-1.285 -1.042,-2.327 -2.328,-2.327 -1.285,0 -2.327,1.042 -2.327,2.327 C -2.327,-1.042 -1.285,0 0,0"
             style="fill:#0857c3;fill-opacity:1;fill-rule:nonzero;stroke:none"
             id="path4160"
             inkscape:connector-curvature="0" /></g><g
           id="g4162"
           transform="translate(217.5898,46.9497)"><path
             d="m 0,0 v 11.253 h -2.464 v 1.478 H 0 v 3.697 H 1.725 V 12.567 H 6.078 V 11.171 H 1.725 V 0.082 c 0,-1.971 0.986,-2.957 2.464,-2.957 0.904,0 1.479,0.165 2.135,0.411 V -3.942 C 5.832,-4.188 5.093,-4.354 4.107,-4.354 1.479,-4.271 0,-2.71 0,0"
             style="fill:#0857c3;fill-opacity:1;fill-rule:nonzero;stroke:none"
             id="path4164"
             inkscape:connector-curvature="0" /></g><g
           id="g4166"
           transform="translate(238.9453,52.5356)"><path
             d="M 0,0 C -0.164,4.106 -2.382,5.914 -5.585,5.914 -8.788,5.914 -11.17,3.532 -11.417,0 Z m -13.224,-1.479 v 0.247 c 0,5.092 3.203,8.542 7.639,8.542 4.107,0 7.311,-2.628 7.311,-8.131 v -0.658 h -13.225 c 0.164,-4.435 2.218,-7.064 6.16,-7.064 2.875,0 4.683,1.15 5.175,3.45 h 1.726 c -0.74,-3.203 -3.369,-4.928 -6.901,-4.928 -4.764,0.164 -7.885,3.614 -7.885,8.542"
             style="fill:#0857c3;fill-opacity:1;fill-rule:nonzero;stroke:none"
             id="path4168"
             inkscape:connector-curvature="0" /></g><g
           id="g4170"
           transform="translate(242.8887,51.0571)"><path
             d="m 0,0 v 0.246 c 0,5.093 3.614,8.543 8.049,8.543 3.368,0 6.571,-1.89 6.9,-5.586 H 13.306 C 12.896,6.078 10.596,7.31 7.967,7.31 4.518,7.31 1.643,4.6 1.643,0.164 v -0.246 c 0,-4.436 2.711,-7.064 6.324,-7.064 2.875,0 5.175,1.642 5.586,4.599 h 1.642 C 14.702,-6.161 11.827,-8.625 8.049,-8.625 3.449,-8.379 0,-5.093 0,0"
             style="fill:#0857c3;fill-opacity:1;fill-rule:nonzero;stroke:none"
             id="path4172"
             inkscape:connector-curvature="0" /></g><g
           id="g4174"
           transform="translate(261.2871,67.6489)"><path
             d="m 0,0 h 1.726 v -11.253 c 0.739,1.889 2.957,3.614 5.913,3.614 3.614,0 5.914,-1.971 5.914,-6.653 v -10.35 H 11.91 v 10.268 c 0,3.614 -1.642,5.092 -4.681,5.092 -2.875,0 -5.586,-1.889 -5.586,-5.421 V -24.724 H -0.082 V 0 Z"
             style="fill:#0857c3;fill-opacity:1;fill-rule:nonzero;stroke:none"
             id="path4176"
             inkscape:connector-curvature="0" /></g><g
           id="g4178"
           transform="translate(279.1934,59.6811)"><path
             d="m 0,0 h 1.725 v -3.203 c 0.739,1.889 2.957,3.614 5.914,3.614 3.614,0 5.914,-1.972 5.914,-6.653 v -10.514 h -1.725 v 10.35 c 0,3.614 -1.642,5.092 -4.682,5.092 -2.875,0 -5.585,-1.889 -5.585,-5.421 V -16.756 H -0.164 V 0 Z"
             style="fill:#0857c3;fill-opacity:1;fill-rule:nonzero;stroke:none"
             id="path4180"
             inkscape:connector-curvature="0" /></g><g
           id="g4182"
           transform="translate(310.4883,51.2212)"><path
             d="M 0,0 V 0.246 C 0,4.682 -2.711,7.31 -6.325,7.31 -9.938,7.31 -12.649,4.6 -12.649,0.246 V 0 c 0,-4.354 2.711,-7.064 6.324,-7.064 C -2.711,-7.064 0,-4.354 0,0 m -14.456,0 v 0.246 c 0,5.093 3.613,8.543 8.131,8.543 4.517,0 8.05,-3.368 8.05,-8.543 L 1.725,0 c 0,-5.093 -3.615,-8.543 -8.132,-8.543 -4.518,0 -8.049,3.532 -8.049,8.543"
             style="fill:#0857c3;fill-opacity:1;fill-rule:nonzero;stroke:none"
             id="path4184"
             inkscape:connector-curvature="0" /></g><path
           d="m 315.663,67.649 h 1.725 V 42.925 h -1.725 z"
           style="fill:#0857c3;fill-opacity:1;fill-rule:nonzero;stroke:none"
           id="path4186"
           inkscape:connector-curvature="0" /><g
           id="g4188"
           transform="translate(335.1299,51.2212)"><path
             d="M 0,0 V 0.246 C 0,4.682 -2.711,7.31 -6.325,7.31 -9.939,7.31 -12.649,4.6 -12.649,0.246 V 0 c 0,-4.354 2.71,-7.064 6.324,-7.064 C -2.711,-7.064 0,-4.354 0,0 m -14.374,0 v 0.246 c 0,5.093 3.613,8.543 8.131,8.543 4.517,0 8.05,-3.368 8.05,-8.543 L 1.807,0 c 0,-5.093 -3.615,-8.543 -8.132,-8.543 -4.518,0 -8.049,3.532 -8.049,8.543"
             style="fill:#0857c3;fill-opacity:1;fill-rule:nonzero;stroke:none"
             id="path4190"
             inkscape:connector-curvature="0" /></g><g
           id="g4192"
           transform="translate(352.9531,51.5493)"><path
             d="M 0,0 V 0.247 C 0,4.436 -2.464,6.9 -5.913,6.9 -9.527,6.9 -12.074,4.271 -12.074,0.247 V 0 c 0,-4.188 2.629,-6.57 5.914,-6.57 C -2.874,-6.653 0,-4.188 0,0 m -13.553,-9.609 h 1.726 c 0.492,-2.136 2.218,-3.615 5.667,-3.615 3.614,0 6.078,1.643 6.078,5.831 v 3.451 c -0.903,-1.972 -3.203,-4.107 -6.324,-4.107 -4.19,0 -7.557,3.121 -7.557,8.049 v 0.247 c 0,4.846 3.367,8.295 7.803,8.295 3.368,0 5.175,-1.889 6.078,-3.86 v 3.45 H 1.644 V -7.393 c 0,-4.927 -3.205,-7.145 -7.804,-7.145 -4.682,-0.164 -7.064,2.218 -7.393,4.929"
             style="fill:#0857c3;fill-opacity:1;fill-rule:nonzero;stroke:none"
             id="path4194"
             inkscape:connector-curvature="0" /></g><g
           id="g4196"
           transform="translate(364.042,44.4038)"><path
             d="m 0,0 -6.653,15.277 h 1.889 L 0.903,1.971 6.243,15.277 H 7.968 L -1.314,-7.311 h -1.725 z"
             style="fill:#0857c3;fill-opacity:1;fill-rule:nonzero;stroke:none"
             id="path4198"
             inkscape:connector-curvature="0" /></g><g
           id="g4200"
           transform="translate(186.8745,59.9629)"><path
             d="M 0,0 C 0.947,3.939 3.788,6.332 7.824,6.332 11.862,6.332 14.653,3.986 15.3,0 Z m 22.079,-1.991 c 0,8.024 -6.231,14.404 -14.307,14.404 -8.371,0 -14.551,-6.581 -14.551,-14.855 0,-8.222 6.331,-14.651 14.603,-14.651 5.884,0 11.564,3.985 13.358,9.619 h -6.976 c -1.347,-2.443 -3.689,-3.538 -6.382,-3.538 -2.739,0 -5.233,1.394 -6.728,3.685 -0.399,0.603 -0.746,1.247 -0.895,1.994 h 21.48 c 0.246,1.096 0.398,2.244 0.398,3.342"
             style="fill:#cccccc;fill-opacity:1;fill-rule:nonzero;stroke:none"
             id="path4202"
             inkscape:connector-curvature="0" /></g><g
           id="g4204"
           transform="translate(182.3872,72.3755)"><path
             d="m 0,0 c -3.291,0 -4.637,-0.699 -6.479,-3.389 h -0.099 v 2.442 h -6.081 v -13.757 -13.909 h 6.628 v 15.551 c 0,4.039 1.694,6.481 6.031,6.632 z"
             style="fill:#cccccc;fill-opacity:1;fill-rule:nonzero;stroke:none"
             id="path4206"
             inkscape:connector-curvature="0" /></g><g
           id="g4208"
           transform="translate(155.0732,48.9507)"><path
             d="m 0,0 c -4.786,0 -8.123,3.985 -8.123,8.625 0,4.483 3.438,8.718 8.123,8.718 4.685,0 8.026,-4.336 8.026,-8.773 C 8.026,4.034 4.685,0 0,0 m 0,23.425 c -8.175,0 -14.752,-6.682 -14.752,-14.8 0,-8.077 6.678,-14.706 14.752,-14.706 8.375,0 14.655,6.43 14.655,14.802 0,8.123 -6.48,14.704 -14.655,14.704"
             style="fill:#cccccc;fill-opacity:1;fill-rule:nonzero;stroke:none"
             id="path4210"
             inkscape:connector-curvature="0" /></g><g
           id="g4212"
           transform="translate(127.3066,48.9507)"><path
             d="m 0,0 c -4.933,0 -8.324,3.887 -8.324,8.671 0,4.733 3.091,8.672 8.026,8.672 3.089,0 4.983,-1.445 6.432,-4.037 h 7.471 c -2.041,6.129 -7.427,10.119 -13.903,10.119 -8.075,0 -14.654,-6.581 -14.654,-14.654 0,-8.125 6.529,-14.852 14.704,-14.852 6.529,0 11.663,3.835 13.853,9.916 H 6.134 C 4.735,1.596 2.692,0 0,0"
             style="fill:#cccccc;fill-opacity:1;fill-rule:nonzero;stroke:none"
             id="path4214"
             inkscape:connector-curvature="0" /></g><g
           id="g4216"
           transform="translate(109.8159,68.5371)"><path
             d="m 0,0 c -1.946,2.343 -5.285,3.838 -8.326,3.838 -3.186,0 -5.38,-1.198 -7.574,-3.34 v 2.394 h -12.394 c 5.418,-2.053 9.148,-7.257 9.148,-13.457 0,-1.098 -0.151,-2.247 -0.401,-3.343 h -21.482 c 0.151,-0.746 0.5,-1.39 0.897,-1.993 1.495,-2.291 3.987,-3.685 6.73,-3.685 2.69,0 5.033,1.094 6.38,3.538 h 6.977 c -1.291,-4.057 -4.601,-7.248 -8.545,-8.727 h 13.188 v 13.162 c 0,2.044 0,5.185 1.198,6.927 0.994,1.447 2.789,2.443 4.534,2.443 4.935,0 5.584,-5.033 5.584,-8.87 V -24.775 H 2.54 v 13.96 1.393 C 2.54,-6.182 2.142,-2.591 0,0"
             style="fill:#cccccc;fill-opacity:1;fill-rule:nonzero;stroke:none"
             id="path4218"
             inkscape:connector-curvature="0" /></g><g
           id="g4220"
           transform="translate(76.4155,66.2939)"><path
             d="m 0,0 c -4.038,0 -6.879,-2.392 -7.826,-6.329 h 15.3 C 6.827,-2.345 4.034,0 0,0"
             style="fill:#cccccc;fill-opacity:1;fill-rule:nonzero;stroke:none"
             id="path4222"
             inkscape:connector-curvature="0" /></g></g><path
         style="fill:#0000ff;stroke-width:0.04224469"
         d="m 340.84191,16.713519 c 0.0305,0.0122 0.0669,0.0107 0.081,-0.0033 0.014,-0.01404 -0.0109,-0.02402 -0.0555,-0.02219 -0.0492,0.002 -0.0592,0.01204 -0.0255,0.02552 z"
         id="path4253"
         inkscape:connector-curvature="0" /></g></g></svg>