<?xml version="1.0" encoding="UTF-8" standalone="no"?>
<svg
   width="157"
   height="32"
   version="1.1"
   id="svg6"
   sodipodi:docname="logo-header.svg"
   inkscape:version="1.1.2 (b8e25be833, 2022-02-05)"
   xmlns:inkscape="http://www.inkscape.org/namespaces/inkscape"
   xmlns:sodipodi="http://sodipodi.sourceforge.net/DTD/sodipodi-0.dtd"
   xmlns="http://www.w3.org/2000/svg"
   xmlns:svg="http://www.w3.org/2000/svg">
  <defs
     id="defs10">
    <clipPath
       clipPathUnits="userSpaceOnUse"
       id="clipPath284">
      <path
         d="M 0,425.197 H 425.197 V 0 H 0 Z"
         id="path282" />
    </clipPath>
    <linearGradient
       x1="0"
       y1="0"
       x2="1"
       y2="0"
       gradientUnits="userSpaceOnUse"
       gradientTransform="matrix(6.9116211,0,0,-6.9116211,80.14138,184.55766)"
       spreadMethod="pad"
       id="linearGradient274">
      <stop
         style="stop-opacity:1;stop-color:#66cbb4"
         offset="0"
         id="stop268" />
      <stop
         style="stop-opacity:1;stop-color:#4598c3"
         offset="0.957368"
         id="stop270" />
      <stop
         style="stop-opacity:1;stop-color:#4598c3"
         offset="1"
         id="stop272" />
    </linearGradient>
    <linearGradient
       x1="0"
       y1="0"
       x2="1"
       y2="0"
       gradientUnits="userSpaceOnUse"
       gradientTransform="matrix(16.606445,0,0,-16.606445,178.95338,137.87749)"
       spreadMethod="pad"
       id="linearGradient252">
      <stop
         style="stop-opacity:1;stop-color:#66cbb4"
         offset="0"
         id="stop246" />
      <stop
         style="stop-opacity:1;stop-color:#4598c3"
         offset="0.957368"
         id="stop248" />
      <stop
         style="stop-opacity:1;stop-color:#4598c3"
         offset="1"
         id="stop250" />
    </linearGradient>
    <linearGradient
       x1="0"
       y1="0"
       x2="1"
       y2="0"
       gradientUnits="userSpaceOnUse"
       gradientTransform="matrix(9.2861795,-13.767327,-13.767327,-9.2861795,247.88785,130.39261)"
       spreadMethod="pad"
       id="linearGradient230">
      <stop
         style="stop-opacity:1;stop-color:#66cbb4"
         offset="0"
         id="stop224" />
      <stop
         style="stop-opacity:1;stop-color:#4598c3"
         offset="0.957368"
         id="stop226" />
      <stop
         style="stop-opacity:1;stop-color:#4598c3"
         offset="1"
         id="stop228" />
    </linearGradient>
    <clipPath
       clipPathUnits="userSpaceOnUse"
       id="clipPath202">
      <path
         d="M 0,425.197 H 425.197 V 0 H 0 Z"
         id="path200" />
    </clipPath>
    <linearGradient
       x1="0"
       y1="0"
       x2="1"
       y2="0"
       gradientUnits="userSpaceOnUse"
       gradientTransform="matrix(5.092494,-7.549933,-7.549933,-5.092494,220.3266,129.07237)"
       spreadMethod="pad"
       id="linearGradient192">
      <stop
         style="stop-opacity:1;stop-color:#66cbb4"
         offset="0"
         id="stop186" />
      <stop
         style="stop-opacity:1;stop-color:#4598c3"
         offset="0.957368"
         id="stop188" />
      <stop
         style="stop-opacity:1;stop-color:#4598c3"
         offset="1"
         id="stop190" />
    </linearGradient>
    <clipPath
       clipPathUnits="userSpaceOnUse"
       id="clipPath164">
      <path
         d="M 0,425.197 H 425.197 V 0 H 0 Z"
         id="path162" />
    </clipPath>
    <linearGradient
       x1="0"
       y1="0"
       x2="1"
       y2="0"
       gradientUnits="userSpaceOnUse"
       gradientTransform="matrix(4.8602619,-6.6895766,-6.6895766,-4.8602619,236.15091,157.42346)"
       spreadMethod="pad"
       id="linearGradient154">
      <stop
         style="stop-opacity:1;stop-color:#66cbb4"
         offset="0"
         id="stop148" />
      <stop
         style="stop-opacity:1;stop-color:#4598c3"
         offset="0.957368"
         id="stop150" />
      <stop
         style="stop-opacity:1;stop-color:#4598c3"
         offset="1"
         id="stop152" />
    </linearGradient>
    <linearGradient
       x1="0"
       y1="0"
       x2="1"
       y2="0"
       gradientUnits="userSpaceOnUse"
       gradientTransform="matrix(13.442411,-3.8545492,-3.8545492,-13.442411,237.67465,142.54706)"
       spreadMethod="pad"
       id="linearGradient132">
      <stop
         style="stop-opacity:1;stop-color:#4598c3"
         offset="0"
         id="stop126" />
      <stop
         style="stop-opacity:1;stop-color:#4598c3"
         offset="0.0426316"
         id="stop128" />
      <stop
         style="stop-opacity:1;stop-color:#66cbb4"
         offset="1"
         id="stop130" />
    </linearGradient>
    <linearGradient
       x1="0"
       y1="0"
       x2="1"
       y2="0"
       gradientUnits="userSpaceOnUse"
       gradientTransform="matrix(93.616028,0,0,-93.616028,86.872963,130.15521)"
       spreadMethod="pad"
       id="linearGradient110">
      <stop
         style="stop-opacity:1;stop-color:#4598c3"
         offset="0"
         id="stop104" />
      <stop
         style="stop-opacity:1;stop-color:#4598c3"
         offset="0.0426316"
         id="stop106" />
      <stop
         style="stop-opacity:1;stop-color:#66cbb4"
         offset="1"
         id="stop108" />
    </linearGradient>
    <linearGradient
       x1="0"
       y1="0"
       x2="1"
       y2="0"
       gradientUnits="userSpaceOnUse"
       gradientTransform="matrix(16.606934,0,0,-16.606934,107.21169,223.20073)"
       spreadMethod="pad"
       id="linearGradient88">
      <stop
         style="stop-opacity:1;stop-color:#66cbb4"
         offset="0"
         id="stop82" />
      <stop
         style="stop-opacity:1;stop-color:#4598c3"
         offset="0.957368"
         id="stop84" />
      <stop
         style="stop-opacity:1;stop-color:#4598c3"
         offset="1"
         id="stop86" />
    </linearGradient>
    <linearGradient
       x1="0"
       y1="0"
       x2="1"
       y2="0"
       gradientUnits="userSpaceOnUse"
       gradientTransform="matrix(16.606445,0,0,-16.606445,253.10866,257.07571)"
       spreadMethod="pad"
       id="linearGradient66">
      <stop
         style="stop-opacity:1;stop-color:#66cbb4"
         offset="0"
         id="stop60" />
      <stop
         style="stop-opacity:1;stop-color:#4598c3"
         offset="0.957368"
         id="stop62" />
      <stop
         style="stop-opacity:1;stop-color:#4598c3"
         offset="1"
         id="stop64" />
    </linearGradient>
    <linearGradient
       x1="0"
       y1="0"
       x2="1"
       y2="0"
       gradientUnits="userSpaceOnUse"
       gradientTransform="matrix(125.25305,0,0,-125.25305,125.27421,279.8909)"
       spreadMethod="pad"
       id="linearGradient44">
      <stop
         style="stop-opacity:1;stop-color:#4598c3"
         offset="0"
         id="stop38" />
      <stop
         style="stop-opacity:1;stop-color:#4598c3"
         offset="0.0426316"
         id="stop40" />
      <stop
         style="stop-opacity:1;stop-color:#66cbb4"
         offset="1"
         id="stop42" />
    </linearGradient>
    <clipPath
       clipPathUnits="userSpaceOnUse"
       id="clipPath16">
      <path
         d="M 0,425.197 H 425.197 V 0 H 0 Z"
         id="path14" />
    </clipPath>
  </defs>
  <sodipodi:namedview
     id="namedview8"
     pagecolor="#505050"
     bordercolor="#eeeeee"
     borderopacity="1"
     inkscape:pageshadow="0"
     inkscape:pageopacity="0"
     inkscape:pagecheckerboard="0"
     showgrid="false"
     inkscape:zoom="6.9171975"
     inkscape:cx="76.982044"
     inkscape:cy="21.395948"
     inkscape:window-width="1920"
     inkscape:window-height="1031"
     inkscape:window-x="-6"
     inkscape:window-y="-6"
     inkscape:window-maximized="1"
     inkscape:current-layer="svg6" />
  <g
     id="g10"
     transform="matrix(0.10697538,0,0,-0.10697538,2.2497172,38.797469)">
    <g
       id="g12"
       clip-path="url(#clipPath16)">
      <g
         id="g18"
         transform="translate(284.2952,242.3331)">
        <path
           d="m 0,0 h -89.338 l -7.664,21.777 c -1.103,-0.834 -2.462,-1.343 -3.938,-1.389 l 8.645,-24.564 H 0 c -0.209,0.659 -0.323,1.361 -0.323,2.088 0,0.728 0.114,1.429 0.323,2.088"
           style="fill:#4599c3;fill-opacity:1;fill-rule:nonzero;stroke:none"
           id="path20" />
      </g>
      <g
         id="g22"
         transform="translate(183.138,273.7608)">
        <path
           d="m 0,0 c -2.279,0 -4.133,-1.854 -4.133,-4.133 0,-2.279 1.854,-4.133 4.133,-4.133 2.279,0 4.133,1.854 4.133,4.133 C 4.133,-1.854 2.279,0 0,0"
           style="fill:#4599c3;fill-opacity:1;fill-rule:nonzero;stroke:none"
           id="path24" />
      </g>
    </g>
  </g>
  <g
     id="g26"
     transform="matrix(0.10697538,0,0,-0.10697538,2.2497172,38.797469)">
    <g
       id="g28">
      <g
         id="g34">
        <g
           id="g36">
          <path
             d="m 140.1,217.662 -13.576,4.267 c -0.163,-1.427 -0.595,-2.775 -1.249,-3.985 v 0 l 17.696,-5.563 33.274,120.22 24.185,-77.614 h 50.098 c -0.13,0.677 -0.205,1.374 -0.205,2.088 v 0 c 0,0.715 0.075,1.411 0.205,2.088 v 0 h -47.025 l -27.494,88.238 z"
             style="fill:url(#linearGradient44);stroke:none"
             id="path46" />
        </g>
      </g>
    </g>
  </g>
  <g
     id="g48"
     transform="matrix(0.10697538,0,0,-0.10697538,2.2497172,38.797469)">
    <g
       id="g50">
      <g
         id="g56">
        <g
           id="g58">
          <path
             d="m 253.385,259.163 c -0.174,-0.669 -0.276,-1.365 -0.276,-2.088 v 0 c 0,-0.722 0.102,-1.419 0.276,-2.088 v 0 c 0.93,-3.568 4.171,-6.214 8.026,-6.214 v 0 c 4.579,0 8.304,3.724 8.304,8.302 v 0 c 0,4.579 -3.725,8.304 -8.304,8.304 v 0 c -3.856,0 -7.096,-2.646 -8.026,-6.216 m 3.871,-3.167 c -0.1,0.38 -0.148,0.733 -0.148,1.079 v 0 c 0,0.347 0.048,0.699 0.148,1.08 v 0 c 0.494,1.898 2.203,3.224 4.155,3.224 v 0 c 2.374,0 4.304,-1.931 4.304,-4.304 v 0 c 0,-2.372 -1.93,-4.303 -4.304,-4.303 v 0 c -1.952,0 -3.661,1.326 -4.155,3.224"
             style="fill:url(#linearGradient66);stroke:none"
             id="path68" />
        </g>
      </g>
    </g>
  </g>
  <g
     id="g70"
     transform="matrix(0.10697538,0,0,-0.10697538,2.2497172,38.797469)">
    <g
       id="g72">
      <g
         id="g78">
        <g
           id="g80">
          <path
             d="m 107.212,223.201 c 0,-4.578 3.724,-8.304 8.303,-8.304 v 0 c 2.962,0 5.559,1.565 7.03,3.906 v 0 c 0.732,1.166 1.18,2.525 1.252,3.984 v 0 c 0.008,0.138 0.021,0.274 0.021,0.414 v 0 c 0,4.578 -3.724,8.303 -8.303,8.303 v 0 c -4.579,0 -8.303,-3.725 -8.303,-8.303 m 3.999,0 c 0,2.373 1.931,4.303 4.304,4.303 v 0 c 2.359,0 4.281,-1.907 4.304,-4.261 v 0 l -0.003,-0.046 -0.013,-0.211 c -0.037,-0.742 -0.254,-1.434 -0.646,-2.056 v 0 c -0.798,-1.272 -2.161,-2.033 -3.642,-2.033 v 0 c -2.373,0 -4.304,1.931 -4.304,4.304"
             style="fill:url(#linearGradient88);stroke:none"
             id="path90" />
        </g>
      </g>
    </g>
  </g>
  <g
     id="g92"
     transform="matrix(0.10697538,0,0,-0.10697538,2.2497172,38.797469)">
    <g
       id="g94">
      <g
         id="g100">
        <g
           id="g102">
          <path
             d="m 86.873,179.257 23.059,-18.473 -17.073,-82.989 72.571,76.575 12.294,-10.858 c 0.718,1.211 1.657,2.271 2.765,3.129 v 0 l -15.316,13.528 -65.272,-68.874 14.637,71.15 -25.051,20.07 c -0.475,-1.363 -1.407,-2.51 -2.614,-3.258"
             style="fill:url(#linearGradient110);stroke:none"
             id="path112" />
        </g>
      </g>
    </g>
  </g>
  <g
     id="g114"
     transform="matrix(0.10697538,0,0,-0.10697538,2.2497172,38.797469)">
    <g
       id="g116">
      <g
         id="g122">
        <g
           id="g124">
          <path
             d="m 240.977,147.589 c -0.651,-0.24 -1.314,-0.37 -1.974,-0.409 v 0 l 7.056,-14.68 c 1.124,0.811 2.403,1.414 3.787,1.759 v 0 l -6.936,14.43 c -0.575,-0.461 -1.222,-0.836 -1.933,-1.1"
             style="fill:url(#linearGradient132);stroke:none"
             id="path134" />
        </g>
      </g>
    </g>
  </g>
  <g
     id="g136"
     transform="matrix(0.10697538,0,0,-0.10697538,2.2497172,38.797469)">
    <g
       id="g138">
      <g
         id="g144">
        <g
           id="g146">
          <path
             d="m 237.147,157.955 c -2.137,-0.79 -3.233,-3.171 -2.445,-5.309 v 0 c 0.617,-1.666 2.2,-2.702 3.882,-2.702 v 0 c 0.475,0 0.957,0.083 1.428,0.257 v 0 c 1.035,0.382 1.86,1.146 2.322,2.148 v 0 c 0.463,1.003 0.506,2.125 0.123,3.161 v 0 c -0.382,1.037 -1.145,1.861 -2.148,2.324 v 0 c -0.551,0.253 -1.138,0.381 -1.729,0.381 v 0 c -0.482,0 -0.967,-0.087 -1.433,-0.26 m 1.308,-3.924 c -0.024,0.066 0.013,0.149 0.084,0.175 v 0 c 0.024,0.008 0.037,0.008 0.041,0.008 v 0 c 0.017,0 0.038,-0.004 0.055,-0.013 v 0 c 0.04,-0.017 0.055,-0.035 0.07,-0.076 v 0 c 0.015,-0.04 0.014,-0.063 -0.003,-0.102 v 0 c -0.019,-0.039 -0.035,-0.055 -0.118,-0.078 v 0 c -0.002,0 -0.098,0.002 -0.129,0.086"
             style="fill:url(#linearGradient154);stroke:none"
             id="path156" />
        </g>
      </g>
    </g>
  </g>
  <g
     id="g158"
     transform="matrix(0.10697538,0,0,-0.10697538,2.2497172,38.797469)">
    <g
       id="g160"
       clip-path="url(#clipPath164)">
      <g
         id="g166"
         transform="translate(159.5481,185.5972)">
        <path
           d="m 0,0 -31.735,-34.331 9.973,33.711 -83.209,57.999 78.76,1.193 13.374,46.127 c -0.058,-0.002 -0.113,-0.009 -0.171,-0.009 -1.421,0 -2.741,0.432 -3.842,1.168 l -12.511,-43.157 -88.623,-1.341 91.363,-63.683 -9.788,-33.085 c 0.045,0 0.088,0.006 0.133,0.006 1.051,0 2.045,-0.243 2.937,-0.664 0.325,-0.154 0.641,-0.325 0.936,-0.525 0.876,-0.594 1.604,-1.387 2.132,-2.308 L 0.273,-5.855 56.949,-56.684 c 0.686,1.213 1.719,2.234 3.02,2.903 z"
           style="fill:#4599c3;fill-opacity:1;fill-rule:nonzero;stroke:none"
           id="path168" />
      </g>
      <g
         id="g170"
         transform="translate(123.2718,147.4097)">
        <path
           d="m 0,0 c -2.279,0 -4.133,-1.854 -4.133,-4.133 0,-2.279 1.854,-4.133 4.133,-4.133 2.279,0 4.134,1.854 4.134,4.133 C 4.134,-1.854 2.279,0 0,0"
           style="fill:#4599c3;fill-opacity:1;fill-rule:nonzero;stroke:none"
           id="path172" />
      </g>
    </g>
  </g>
  <g
     id="g174"
     transform="matrix(0.10697538,0,0,-0.10697538,2.2497172,38.797469)">
    <g
       id="g176">
      <g
         id="g182">
        <g
           id="g184">
          <path
             d="m 221.296,129.568 c -2.356,-0.87 -3.564,-3.493 -2.694,-5.849 v 0 c 0.871,-2.355 3.495,-3.564 5.848,-2.693 v 0 c 2.355,0.87 3.563,3.494 2.694,5.849 v 0 c -0.679,1.836 -2.424,2.975 -4.276,2.975 v 0 c -0.523,0 -1.054,-0.091 -1.572,-0.282"
             style="fill:url(#linearGradient192);stroke:none"
             id="path194" />
        </g>
      </g>
    </g>
  </g>
  <g
     id="g196"
     transform="matrix(0.10697538,0,0,-0.10697538,2.2497172,38.797469)">
    <g
       id="g198"
       clip-path="url(#clipPath202)">
      <g
         id="g204"
         transform="translate(290.8899,236.1124)">
        <path
           d="M 0,0 C 2.279,0 4.133,1.854 4.133,4.133 4.133,6.412 2.279,8.266 0,8.266 -2.279,8.266 -4.133,6.412 -4.133,4.133 -4.133,1.854 -2.279,0 0,0"
           style="fill:#4599c3;fill-opacity:1;fill-rule:nonzero;stroke:none"
           id="path206" />
      </g>
      <g
         id="g208"
         transform="translate(150.6731,297.2047)">
        <path
           d="m 0,0 c 0,2.279 -1.854,4.133 -4.133,4.133 -2.279,0 -4.133,-1.854 -4.133,-4.133 0,-2.279 1.854,-4.132 4.133,-4.132 C -1.854,-4.132 0,-2.279 0,0"
           style="fill:#4599c3;fill-opacity:1;fill-rule:nonzero;stroke:none"
           id="path210" />
      </g>
    </g>
  </g>
  <g
     id="g212"
     transform="matrix(0.10697538,0,0,-0.10697538,2.2497172,38.797469)">
    <g
       id="g214">
      <g
         id="g220">
        <g
           id="g222">
          <path
             d="m 251.086,131.683 c -1.423,-0.252 -2.725,-0.859 -3.799,-1.737 v 0 c -1.867,-1.524 -3.062,-3.841 -3.062,-6.434 v 0 c 0,-4.578 3.724,-8.302 8.303,-8.302 v 0 c 2.576,0 4.964,1.164 6.55,3.198 v 0 c 1.148,1.47 1.754,3.235 1.754,5.104 v 0 c 0,4.58 -3.725,8.304 -8.304,8.304 v 0 c -0.493,0 -0.973,-0.051 -1.442,-0.133 m -2.861,-8.171 c 0,1.295 0.58,2.51 1.591,3.335 v 0 c 0.562,0.459 1.241,0.769 1.963,0.895 v 0 c 0.28,0.051 0.526,0.074 0.749,0.074 v 0 c 2.373,0 4.303,-1.929 4.303,-4.304 v 0 c 0,-0.982 -0.304,-1.872 -0.906,-2.642 v 0 c -0.824,-1.055 -2.06,-1.66 -3.397,-1.66 v 0 c -2.372,0 -4.303,1.93 -4.303,4.302"
             style="fill:url(#linearGradient230);stroke:none"
             id="path232" />
        </g>
      </g>
    </g>
  </g>
  <g
     id="g234"
     transform="matrix(0.10697538,0,0,-0.10697538,2.2497172,38.797469)">
    <g
       id="g236">
      <g
         id="g242">
        <g
           id="g244">
          <path
             d="m 182.617,144.761 c -1.166,-0.789 -2.117,-1.871 -2.759,-3.134 v 0 c -0.573,-1.127 -0.905,-2.399 -0.905,-3.75 v 0 c 0,-4.579 3.725,-8.303 8.304,-8.303 v 0 c 2.576,0 4.963,1.165 6.55,3.199 v 0 c 1.147,1.469 1.753,3.234 1.753,5.104 v 0 c 0,4.579 -3.725,8.304 -8.303,8.304 v 0 c -1.717,0 -3.313,-0.524 -4.64,-1.42 m 0.337,-6.884 c 0,0.673 0.157,1.324 0.469,1.936 v 0 c 0.337,0.663 0.833,1.228 1.434,1.634 v 0 c 0.71,0.48 1.541,0.733 2.4,0.733 v 0 c 2.372,0 4.303,-1.929 4.303,-4.303 v 0 c 0,-0.983 -0.305,-1.873 -0.907,-2.642 v 0 c -0.822,-1.056 -2.061,-1.661 -3.396,-1.661 v 0 c -2.373,0 -4.303,1.931 -4.303,4.303"
             style="fill:url(#linearGradient252);stroke:none"
             id="path254" />
        </g>
      </g>
    </g>
  </g>
  <g
     id="g256"
     transform="matrix(0.10697538,0,0,-0.10697538,2.2497172,38.797469)">
    <g
       id="g258">
      <g
         id="g264">
        <g
           id="g266">
          <path
             d="m 80.141,184.558 c 0,-1.906 1.551,-3.456 3.456,-3.456 v 0 c 0.464,0 0.904,0.096 1.308,0.261 v 0 c 1.084,0.445 1.885,1.423 2.088,2.606 v 0 c 0.033,0.193 0.06,0.387 0.06,0.589 v 0 c 0,1.905 -1.551,3.455 -3.456,3.455 v 0 c -1.905,0 -3.456,-1.55 -3.456,-3.455"
             style="fill:url(#linearGradient274);stroke:none"
             id="path276" />
        </g>
      </g>
    </g>
  </g>
  <g
     id="g278"
     transform="matrix(0.45679155,0,0,-0.45679155,-30.21974,107.00083)">
    <g
       id="g280"
       clip-path="url(#clipPath284)">
      <g
         id="g286"
         transform="translate(195.8821,209.4078)">
        <path
           d="M 0,0 C 0,1.818 -0.3,3.045 -0.899,3.683 -1.499,4.321 -2.301,4.64 -3.307,4.64 -4.312,4.64 -5.124,4.34 -5.742,3.741 -6.361,3.141 -6.67,2.108 -6.67,0.638 v -3.306 h -5.858 v 3.016 c 0,3.286 0.783,5.79 2.348,7.511 1.567,1.72 3.915,2.581 7.048,2.581 C 0,10.44 2.368,9.56 3.973,7.801 5.577,6.041 6.38,3.518 6.38,0.232 v -1.044 c 0,-4.331 -1.489,-7.115 -4.466,-8.352 1.624,-0.696 2.773,-1.769 3.451,-3.219 0.676,-1.45 1.015,-3.219 1.015,-5.307 v -3.19 c 0,-3.287 -0.803,-5.81 -2.407,-7.569 -1.605,-1.76 -3.973,-2.639 -7.105,-2.639 -3.133,0 -5.501,0.879 -7.105,2.639 -1.605,1.759 -2.408,4.282 -2.408,7.569 v 4.466 h 6.033 v -4.872 c 0,-1.47 0.299,-2.504 0.899,-3.103 0.599,-0.6 1.401,-0.899 2.406,-0.899 1.006,0 1.808,0.309 2.408,0.928 C -0.3,-23.742 0,-22.524 0,-20.706 v 3.19 c 0,1.894 -0.329,3.228 -0.986,4.002 -0.659,0.773 -1.721,1.16 -3.19,1.16 h -1.566 v 5.8 h 1.914 c 1.198,0 2.136,0.309 2.812,0.928 C -0.339,-5.008 0,-3.886 0,-2.262 Z"
           style="fill:#4599c3;fill-opacity:1;fill-rule:nonzero;stroke:none"
           id="path288" />
      </g>
      <g
         id="g290"
         transform="translate(224.5335,197.0533)">
        <path
           d="m 0,0 v -12.47 h 3.653 c 1.083,0 1.905,0.29 2.466,0.87 0.56,0.58 0.841,1.624 0.841,3.132 v 3.538 c 0,1.895 -0.319,3.191 -0.957,3.886 C 5.365,-0.348 4.311,0 2.842,0 Z M 0,16.53 V 5.801 h 2.494 c 1.197,0 2.136,0.308 2.813,0.928 0.675,0.618 1.015,1.74 1.015,3.364 v 2.261 c 0,1.469 -0.261,2.533 -0.783,3.191 -0.522,0.656 -1.344,0.985 -2.465,0.985 z m 3.248,5.8 c 3.325,0 5.731,-0.773 7.221,-2.319 1.488,-1.547 2.233,-3.887 2.233,-7.019 v -1.45 c 0,-2.088 -0.329,-3.809 -0.986,-5.161 -0.658,-1.355 -1.702,-2.36 -3.132,-3.017 1.74,-0.658 2.967,-1.73 3.683,-3.218 0.714,-1.49 1.073,-3.317 1.073,-5.482 v -3.306 c 0,-3.131 -0.813,-5.519 -2.437,-7.163 -1.623,-1.643 -4.04,-2.465 -7.25,-2.465 H -6.38 v 40.6 z"
           style="fill:#4599c3;fill-opacity:1;fill-rule:nonzero;stroke:none"
           id="path292" />
      </g>
      <g
         id="g294"
         transform="translate(259.6819,202.274)">
        <path
           d="M 0,0 H 8.758 V -5.8 H 0 v -11.89 h 11.02 v -5.8 h -17.4 v 40.599 h 17.4 V 11.31 H 0 Z"
           style="fill:#4599c3;fill-opacity:1;fill-rule:nonzero;stroke:none"
           id="path296" />
      </g>
      <g
         id="g298"
         transform="translate(298.5413,209.4078)">
        <path
           d="M 0,0 C 0,1.818 -0.3,3.045 -0.899,3.683 -1.499,4.321 -2.301,4.64 -3.307,4.64 -4.312,4.64 -5.124,4.34 -5.742,3.741 -6.361,3.141 -6.67,2.108 -6.67,0.638 v -3.306 h -5.858 v 3.016 c 0,3.286 0.783,5.79 2.348,7.511 1.567,1.72 3.915,2.581 7.048,2.581 C 0,10.44 2.368,9.56 3.973,7.801 5.577,6.041 6.38,3.518 6.38,0.232 v -1.044 c 0,-4.331 -1.489,-7.115 -4.466,-8.352 1.624,-0.696 2.773,-1.769 3.451,-3.219 0.676,-1.45 1.015,-3.219 1.015,-5.307 v -3.19 c 0,-3.287 -0.803,-5.81 -2.407,-7.569 -1.605,-1.76 -3.973,-2.639 -7.105,-2.639 -3.133,0 -5.501,0.879 -7.105,2.639 -1.605,1.759 -2.408,4.282 -2.408,7.569 v 4.466 h 6.033 v -4.872 c 0,-1.47 0.299,-2.504 0.899,-3.103 0.599,-0.6 1.401,-0.899 2.406,-0.899 1.006,0 1.808,0.309 2.408,0.928 C -0.3,-23.742 0,-22.524 0,-20.706 v 3.19 c 0,1.894 -0.329,3.228 -0.986,4.002 -0.659,0.773 -1.721,1.16 -3.19,1.16 h -1.566 v 5.8 h 1.914 c 1.198,0 2.136,0.309 2.812,0.928 C -0.339,-5.008 0,-3.886 0,-2.262 Z"
           style="fill:#4599c3;fill-opacity:1;fill-rule:nonzero;stroke:none"
           id="path300" />
      </g>
      <g
         id="g302"
         transform="translate(329.7454,189.8619)">
        <path
           d="m 0,0 c -0.078,-1.547 -0.261,-2.707 -0.551,-3.48 -0.29,-0.774 -0.706,-1.412 -1.247,-1.915 H 6.554 V 23.722 H 1.16 Z m 9.512,-16.53 v 5.452 h -13.63 v -5.452 h -6.206 v 11.135 h 2.494 c 0.541,0.697 0.918,1.451 1.131,2.263 0.212,0.812 0.357,1.817 0.435,3.016 l 1.451,29.637 H 13.05 V -5.395 h 2.784 V -16.53 Z"
           style="fill:#4599c3;fill-opacity:1;fill-rule:nonzero;stroke:none"
           id="path304" />
      </g>
      <g
         id="g306"
         transform="translate(366.8069,191.6597)">
        <path
           d="M 0,0 H 6.147 L 3.074,20.533 Z M 14.558,-12.876 H 8.12 L 7.018,-5.51 h -7.83 l -1.102,-7.366 h -5.858 l 6.496,40.6 h 9.338 z"
           style="fill:#4599c3;fill-opacity:1;fill-rule:nonzero;stroke:none"
           id="path308" />
      </g>
    </g>
  </g>
</svg>
