<?xml version="1.0" encoding="UTF-8" standalone="no"?>
<!-- Created with Inkscape (http://www.inkscape.org/) -->

<svg
   xmlns:dc="http://purl.org/dc/elements/1.1/"
   xmlns:cc="http://creativecommons.org/ns#"
   xmlns:rdf="http://www.w3.org/1999/02/22-rdf-syntax-ns#"
   xmlns:svg="http://www.w3.org/2000/svg"
   xmlns="http://www.w3.org/2000/svg"
   xmlns:sodipodi="http://sodipodi.sourceforge.net/DTD/sodipodi-0.dtd"
   xmlns:inkscape="http://www.inkscape.org/namespaces/inkscape"
   version="1.1"
   id="svg5359"
   xml:space="preserve"
   width="240"
   height="240"
   viewBox="0 0 240 240.00001"
   sodipodi:docname="login-company-logo.svg"
   inkscape:version="0.92.5 (2060ec1f9f, 2020-04-08)"><metadata
     id="metadata5365"><rdf:RDF><cc:Work
         rdf:about=""><dc:format>image/svg+xml</dc:format><dc:type
           rdf:resource="http://purl.org/dc/dcmitype/StillImage" /><dc:title /></cc:Work></rdf:RDF></metadata><defs
     id="defs5363"><clipPath
       clipPathUnits="userSpaceOnUse"
       id="clipPath5375"><path
         d="M 0,113.4 H 409.6 V 0 H 0 Z"
         id="path5373"
         inkscape:connector-curvature="0" /></clipPath><clipPath
       clipPathUnits="userSpaceOnUse"
       id="clipPath5391"><path
         d="m 29.65,35.5796 h 3.5806 V 31.999 H 29.65 Z"
         id="path5389"
         inkscape:connector-curvature="0" /></clipPath><clipPath
       clipPathUnits="userSpaceOnUse"
       id="clipPath5407"><path
         d="m 30.7242,44.5312 h 4.2967 v -4.2968 h -4.2967 z"
         id="path5405"
         inkscape:connector-curvature="0" /></clipPath><clipPath
       clipPathUnits="userSpaceOnUse"
       id="clipPath5439"><path
         d="m 52.1183,14.0959 h 3.5806 v -3.5806 h -3.5806 z"
         id="path5437"
         inkscape:connector-curvature="0" /></clipPath><clipPath
       clipPathUnits="userSpaceOnUse"
       id="clipPath5455"><path
         d="m 47.8216,22.1523 h 4.2967 v -4.2967 h -4.2967 z"
         id="path5453"
         inkscape:connector-curvature="0" /></clipPath><clipPath
       clipPathUnits="userSpaceOnUse"
       id="clipPath5487"><path
         d="m 82.5535,9.7097 h 3.5806 V 6.12909 h -3.5806 z"
         id="path5485"
         inkscape:connector-curvature="0" /></clipPath><clipPath
       clipPathUnits="userSpaceOnUse"
       id="clipPath5503"><path
         d="m 74.4076,14.0064 h 4.2968 V 9.7097 h -4.2968 z"
         id="path5501"
         inkscape:connector-curvature="0" /></clipPath><clipPath
       clipPathUnits="userSpaceOnUse"
       id="clipPath5535"><path
         d="m 110.035,24.3007 h 3.58 v -3.5806 h -3.58 z"
         id="path5533"
         inkscape:connector-curvature="0" /></clipPath><clipPath
       clipPathUnits="userSpaceOnUse"
       id="clipPath5551"><path
         d="m 101.083,23.316 h 4.297 v -4.2967 h -4.297 z"
         id="path5549"
         inkscape:connector-curvature="0" /></clipPath><clipPath
       clipPathUnits="userSpaceOnUse"
       id="clipPath5599"><path
         d="m 95.6228,104.865 h 3.5806 v -3.581 h -3.5806 z"
         id="path5597"
         inkscape:connector-curvature="0" /></clipPath><clipPath
       clipPathUnits="userSpaceOnUse"
       id="clipPath5615"><path
         d="M 99.2034,97.4347 H 103.5 V 93.138 h -4.2966 z"
         id="path5613"
         inkscape:connector-curvature="0" /></clipPath><clipPath
       clipPathUnits="userSpaceOnUse"
       id="clipPath5639"><path
         d="m 64.5609,107.371 h 3.5807 v -3.581 h -3.5807 z"
         id="path5637"
         inkscape:connector-curvature="0" /></clipPath><clipPath
       clipPathUnits="userSpaceOnUse"
       id="clipPath5655"><path
         d="m 71.9012,105.491 h 4.2967 v -4.297 h -4.2967 z"
         id="path5653"
         inkscape:connector-curvature="0" /></clipPath><clipPath
       clipPathUnits="userSpaceOnUse"
       id="clipPath5683"><path
         d="m 37.2588,94.3017 h 3.5806 v -3.5806 h -3.5806 z"
         id="path5681"
         inkscape:connector-curvature="0" /></clipPath><clipPath
       clipPathUnits="userSpaceOnUse"
       id="clipPath5699"><path
         d="m 45.4942,95.913 h 4.2967 v -4.2968 h -4.2967 z"
         id="path5697"
         inkscape:connector-curvature="0" /></clipPath><clipPath
       clipPathUnits="userSpaceOnUse"
       id="clipPath5731"><path
         d="m 24.1,65.9253 h 3.5806 V 62.3447 H 24.1 Z"
         id="path5729"
         inkscape:connector-curvature="0" /></clipPath><clipPath
       clipPathUnits="userSpaceOnUse"
       id="clipPath5747"><path
         d="m 29.9185,72.3704 h 4.2967 v -4.2967 h -4.2967 z"
         id="path5745"
         inkscape:connector-curvature="0" /></clipPath></defs><sodipodi:namedview
     pagecolor="#ffffff"
     bordercolor="#666666"
     borderopacity="1"
     objecttolerance="10"
     gridtolerance="10"
     guidetolerance="10"
     inkscape:pageopacity="0"
     inkscape:pageshadow="2"
     inkscape:window-width="1848"
     inkscape:window-height="1136"
     id="namedview5361"
     showgrid="false"
     inkscape:zoom="0.6693864"
     inkscape:cx="803.27741"
     inkscape:cy="210.19009"
     inkscape:window-x="72"
     inkscape:window-y="27"
     inkscape:window-maximized="1"
     inkscape:current-layer="g5367" /><g
     id="g5367"
     inkscape:groupmode="layer"
     inkscape:label="Encore_tech_logo_main"
     transform="matrix(1.3333333,0,0,-1.3333333,-35.369063,195.667)"><g
       id="g5369"
       transform="matrix(0.97374462,0,0,1.7779271,3.0594549,-44.147556)"><g
         id="g5371"
         clip-path="url(#clipPath5375)"><g
           id="g5377"
           transform="translate(40.9287,63.1504)"><path
             d="m 0,0 c 1.681,0 3.044,-1.363 3.044,-3.043 0,-1.682 -1.363,-3.044 -3.044,-3.044 -1.681,0 -3.043,1.362 -3.043,3.044 C -3.043,-1.363 -1.681,0 0,0"
             style="fill:#0857c3;fill-opacity:1;fill-rule:nonzero;stroke:none"
             id="path5379"
             inkscape:connector-curvature="0" /></g><g
           id="g5381"
           transform="translate(36.0054,54.5571)"><path
             d="m 0,0 c 1.483,0 2.686,-1.202 2.686,-2.686 0,-1.483 -1.203,-2.685 -2.686,-2.685 -1.483,0 -2.685,1.202 -2.685,2.685 C -2.685,-1.202 -1.483,0 0,0"
             style="fill:#0857c3;fill-opacity:1;fill-rule:nonzero;stroke:none"
             id="path5383"
             inkscape:connector-curvature="0" /></g><g
           id="g5385"><g
             id="g5387" /><g
             id="g5399"><g
               clip-path="url(#clipPath5391)"
               id="g5397"
               style="opacity:0.10000598"><g
                 transform="translate(31.4404,35.5796)"
                 id="g5395"><path
                   d="m 0,0 c 0.989,0 1.79,-0.802 1.79,-1.79 0,-0.989 -0.801,-1.79 -1.79,-1.79 -0.989,0 -1.791,0.801 -1.791,1.79 C -1.791,-0.802 -0.989,0 0,0"
                   style="fill:#0857c3;fill-opacity:1;fill-rule:nonzero;stroke:none"
                   id="path5393"
                   inkscape:connector-curvature="0" /></g></g></g></g><g
           id="g5401"><g
             id="g5403" /><g
             id="g5415"><g
               clip-path="url(#clipPath5407)"
               id="g5413"
               style="opacity:0.39999402"><g
                 transform="translate(32.8726,44.5307)"
                 id="g5411"><path
                   d="m 0,0 c 1.187,0 2.148,-0.962 2.148,-2.147 0,-1.187 -0.961,-2.149 -2.148,-2.149 -1.187,0 -2.148,0.962 -2.148,2.149 C -2.148,-0.962 -1.187,0 0,0"
                   style="fill:#0857c3;fill-opacity:1;fill-rule:nonzero;stroke:none"
                   id="path5409"
                   inkscape:connector-curvature="0" /></g></g></g></g><g
           id="g5417"
           transform="translate(47.9111,70.043)"><path
             d="M 0,0 C 1.878,0 3.401,-1.523 3.401,-3.401 3.401,-5.28 1.878,-6.803 0,-6.803 c -1.879,0 -3.402,1.523 -3.402,3.402 C -3.402,-1.523 -1.879,0 0,0"
             style="fill:#0857c3;fill-opacity:1;fill-rule:nonzero;stroke:none"
             id="path5419"
             inkscape:connector-curvature="0" /></g><g
           id="g5421"
           transform="translate(56.0571,74.6084)"><path
             d="m 0,0 c 1.582,0 2.864,-1.283 2.864,-2.865 0,-1.582 -1.282,-2.864 -2.864,-2.864 -1.582,0 -2.865,1.282 -2.865,2.864 C -2.865,-1.283 -1.582,0 0,0"
             style="fill:#0857c3;fill-opacity:1;fill-rule:nonzero;stroke:none"
             id="path5423"
             inkscape:connector-curvature="0" /></g><g
           id="g5425"
           transform="translate(46.2104,42.2036)"><path
             d="m 0,0 c 1.681,0 3.043,-1.362 3.043,-3.043 0,-1.682 -1.362,-3.044 -3.043,-3.044 -1.681,0 -3.043,1.362 -3.043,3.044 C -3.043,-1.362 -1.681,0 0,0"
             style="fill:#0857c3;fill-opacity:1;fill-rule:nonzero;stroke:none"
             id="path5427"
             inkscape:connector-curvature="0" /></g><g
           id="g5429"
           transform="translate(46.9263,32.2681)"><path
             d="m 0,0 c 1.483,0 2.686,-1.203 2.686,-2.686 0,-1.483 -1.203,-2.685 -2.686,-2.685 -1.483,0 -2.686,1.202 -2.686,2.685 C -2.686,-1.203 -1.483,0 0,0"
             style="fill:#0857c3;fill-opacity:1;fill-rule:nonzero;stroke:none"
             id="path5431"
             inkscape:connector-curvature="0" /></g><g
           id="g5433"><g
             id="g5435" /><g
             id="g5447"><g
               clip-path="url(#clipPath5439)"
               id="g5445"
               style="opacity:0.10000598"><g
                 transform="translate(53.9087,14.0962)"
                 id="g5443"><path
                   d="m 0,0 c 0.989,0 1.79,-0.802 1.79,-1.791 0,-0.988 -0.801,-1.79 -1.79,-1.79 -0.989,0 -1.791,0.802 -1.791,1.79 C -1.791,-0.802 -0.989,0 0,0"
                   style="fill:#0857c3;fill-opacity:1;fill-rule:nonzero;stroke:none"
                   id="path5441"
                   inkscape:connector-curvature="0" /></g></g></g></g><g
           id="g5449"><g
             id="g5451" /><g
             id="g5463"><g
               clip-path="url(#clipPath5455)"
               id="g5461"
               style="opacity:0.39999402"><g
                 transform="translate(49.9697,22.1528)"
                 id="g5459"><path
                   d="m 0,0 c 1.187,0 2.148,-0.962 2.148,-2.148 0,-1.187 -0.961,-2.149 -2.148,-2.149 -1.187,0 -2.148,0.962 -2.148,2.149 C -2.148,-0.962 -1.187,0 0,0"
                   style="fill:#0857c3;fill-opacity:1;fill-rule:nonzero;stroke:none"
                   id="path5457"
                   inkscape:connector-curvature="0" /></g></g></g></g><g
           id="g5465"
           transform="translate(48.0005,51.9614)"><path
             d="M 0,0 C 1.879,0 3.402,-1.523 3.402,-3.402 3.402,-5.28 1.879,-6.804 0,-6.804 c -1.878,0 -3.401,1.524 -3.401,3.402 C -3.401,-1.523 -1.878,0 0,0"
             style="fill:#0857c3;fill-opacity:1;fill-rule:nonzero;stroke:none"
             id="path5467"
             inkscape:connector-curvature="0" /></g><g
           id="g5469"
           transform="translate(51.4917,60.3755)"><path
             d="m 0,0 c 1.582,0 2.864,-1.283 2.864,-2.865 0,-1.582 -1.282,-2.864 -2.864,-2.864 -1.582,0 -2.864,1.282 -2.864,2.864 C -2.864,-1.283 -1.582,0 0,0"
             style="fill:#0857c3;fill-opacity:1;fill-rule:nonzero;stroke:none"
             id="path5471"
             inkscape:connector-curvature="0" /></g><g
           id="g5473"
           transform="translate(62.2334,28.06)"><path
             d="m 0,0 c 1.681,0 3.043,-1.362 3.043,-3.043 0,-1.681 -1.362,-3.044 -3.043,-3.044 -1.681,0 -3.043,1.363 -3.043,3.044 C -3.043,-1.362 -1.681,0 0,0"
             style="fill:#0857c3;fill-opacity:1;fill-rule:nonzero;stroke:none"
             id="path5475"
             inkscape:connector-curvature="0" /></g><g
           id="g5477"
           transform="translate(68.4995,20.5415)"><path
             d="m 0,0 c 1.483,0 2.686,-1.203 2.686,-2.686 0,-1.483 -1.203,-2.685 -2.686,-2.685 -1.483,0 -2.686,1.202 -2.686,2.685 C -2.686,-1.203 -1.483,0 0,0"
             style="fill:#0857c3;fill-opacity:1;fill-rule:nonzero;stroke:none"
             id="path5479"
             inkscape:connector-curvature="0" /></g><g
           id="g5481"><g
             id="g5483" /><g
             id="g5495"><g
               clip-path="url(#clipPath5487)"
               id="g5493"
               style="opacity:0.10000598"><g
                 transform="translate(84.3438,9.7095)"
                 id="g5491"><path
                   d="m 0,0 c 0.989,0 1.791,-0.802 1.791,-1.79 0,-0.989 -0.802,-1.79 -1.791,-1.79 -0.989,0 -1.79,0.801 -1.79,1.79 C -1.79,-0.802 -0.989,0 0,0"
                   style="fill:#0857c3;fill-opacity:1;fill-rule:nonzero;stroke:none"
                   id="path5489"
                   inkscape:connector-curvature="0" /></g></g></g></g><g
           id="g5497"><g
             id="g5499" /><g
             id="g5511"><g
               clip-path="url(#clipPath5503)"
               id="g5509"
               style="opacity:0.39999402"><g
                 transform="translate(76.5562,14.0063)"
                 id="g5507"><path
                   d="m 0,0 c 1.187,0 2.148,-0.962 2.148,-2.148 0,-1.187 -0.961,-2.149 -2.148,-2.149 -1.187,0 -2.148,0.962 -2.148,2.149 C -2.148,-0.962 -1.187,0 0,0"
                   style="fill:#0857c3;fill-opacity:1;fill-rule:nonzero;stroke:none"
                   id="path5505"
                   inkscape:connector-curvature="0" /></g></g></g></g><g
           id="g5513"
           transform="translate(58.1157,37.1011)"><path
             d="M 0,0 C 1.879,0 3.402,-1.522 3.402,-3.401 3.402,-5.28 1.879,-6.803 0,-6.803 c -1.878,0 -3.401,1.523 -3.401,3.402 C -3.401,-1.522 -1.878,0 0,0"
             style="fill:#0857c3;fill-opacity:1;fill-rule:nonzero;stroke:none"
             id="path5515"
             inkscape:connector-curvature="0" /></g><g
           id="g5517"
           transform="translate(55.7886,45.8735)"><path
             d="m 0,0 c 1.582,0 2.864,-1.282 2.864,-2.864 0,-1.582 -1.282,-2.865 -2.864,-2.865 -1.582,0 -2.865,1.283 -2.865,2.865 C -2.865,-1.282 -1.582,0 0,0"
             style="fill:#0857c3;fill-opacity:1;fill-rule:nonzero;stroke:none"
             id="path5519"
             inkscape:connector-curvature="0" /></g><g
           id="g5521"
           transform="translate(83.8965,26.3598)"><path
             d="m 0,0 c 1.681,0 3.043,-1.363 3.043,-3.044 0,-1.681 -1.362,-3.043 -3.043,-3.043 -1.681,0 -3.044,1.362 -3.044,3.043 C -3.044,-1.363 -1.681,0 0,0"
             style="fill:#0857c3;fill-opacity:1;fill-rule:nonzero;stroke:none"
             id="path5523"
             inkscape:connector-curvature="0" /></g><g
           id="g5525"
           transform="translate(93.2061,23.9429)"><path
             d="m 0,0 c 1.483,0 2.685,-1.202 2.685,-2.686 0,-1.483 -1.202,-2.685 -2.685,-2.685 -1.483,0 -2.686,1.202 -2.686,2.685 C -2.686,-1.202 -1.483,0 0,0"
             style="fill:#0857c3;fill-opacity:1;fill-rule:nonzero;stroke:none"
             id="path5527"
             inkscape:connector-curvature="0" /></g><g
           id="g5529"><g
             id="g5531" /><g
             id="g5543"><g
               clip-path="url(#clipPath5535)"
               id="g5541"
               style="opacity:0.10000598"><g
                 transform="translate(111.8252,24.3003)"
                 id="g5539"><path
                   d="m 0,0 c 0.989,0 1.79,-0.801 1.79,-1.79 0,-0.988 -0.801,-1.79 -1.79,-1.79 -0.989,0 -1.791,0.802 -1.791,1.79 C -1.791,-0.801 -0.989,0 0,0"
                   style="fill:#0857c3;fill-opacity:1;fill-rule:nonzero;stroke:none"
                   id="path5537"
                   inkscape:connector-curvature="0" /></g></g></g></g><g
           id="g5545"><g
             id="g5547" /><g
             id="g5559"><g
               clip-path="url(#clipPath5551)"
               id="g5557"
               style="opacity:0.39999402"><g
                 transform="translate(103.2314,23.3159)"
                 id="g5555"><path
                   d="m 0,0 c 1.187,0 2.148,-0.962 2.148,-2.148 0,-1.187 -0.961,-2.149 -2.148,-2.149 -1.187,0 -2.148,0.962 -2.148,2.149 C -2.148,-0.962 -1.187,0 0,0"
                   style="fill:#0857c3;fill-opacity:1;fill-rule:nonzero;stroke:none"
                   id="path5553"
                   inkscape:connector-curvature="0" /></g></g></g></g><g
           id="g5561"
           transform="translate(75.4819,31.3725)"><path
             d="M 0,0 C 1.878,0 3.401,-1.523 3.401,-3.401 3.401,-5.28 1.878,-6.804 0,-6.804 c -1.879,0 -3.402,1.524 -3.402,3.403 C -3.402,-1.523 -1.879,0 0,0"
             style="fill:#0857c3;fill-opacity:1;fill-rule:nonzero;stroke:none"
             id="path5563"
             inkscape:connector-curvature="0" /></g><g
           id="g5565"
           transform="translate(68.0522,37.0122)"><path
             d="m 0,0 c 1.582,0 2.864,-1.283 2.864,-2.865 0,-1.582 -1.282,-2.864 -2.864,-2.864 -1.582,0 -2.865,1.282 -2.865,2.864 C -2.865,-1.283 -1.582,0 0,0"
             style="fill:#0857c3;fill-opacity:1;fill-rule:nonzero;stroke:none"
             id="path5567"
             inkscape:connector-curvature="0" /></g><g
           id="g5569"
           transform="translate(102.2471,38.1753)"><path
             d="m 0,0 c 1.681,0 3.043,-1.362 3.043,-3.043 0,-1.681 -1.362,-3.044 -3.043,-3.044 -1.681,0 -3.044,1.363 -3.044,3.044 C -3.044,-1.362 -1.681,0 0,0"
             style="fill:#0857c3;fill-opacity:1;fill-rule:nonzero;stroke:none"
             id="path5571"
             inkscape:connector-curvature="0" /></g><g
           id="g5573"
           transform="translate(111.0195,41.5776)"><path
             d="m 0,0 c 1.483,0 2.686,-1.203 2.686,-2.686 0,-1.483 -1.203,-2.685 -2.686,-2.685 -1.483,0 -2.686,1.202 -2.686,2.685 C -2.686,-1.203 -1.483,0 0,0"
             style="fill:#0857c3;fill-opacity:1;fill-rule:nonzero;stroke:none"
             id="path5575"
             inkscape:connector-curvature="0" /></g><g
           id="g5577"
           transform="translate(92.7583,37.3696)"><path
             d="M 0,0 C 1.878,0 3.401,-1.522 3.401,-3.401 3.401,-5.28 1.878,-6.803 0,-6.803 c -1.879,0 -3.402,1.523 -3.402,3.402 C -3.402,-1.522 -1.879,0 0,0"
             style="fill:#0857c3;fill-opacity:1;fill-rule:nonzero;stroke:none"
             id="path5579"
             inkscape:connector-curvature="0" /></g><g
           id="g5581"
           transform="translate(83.0908,37.3696)"><path
             d="m 0,0 c 1.582,0 2.864,-1.282 2.864,-2.864 0,-1.582 -1.282,-2.865 -2.864,-2.865 -1.582,0 -2.865,1.283 -2.865,2.865 C -2.865,-1.282 -1.582,0 0,0"
             style="fill:#0857c3;fill-opacity:1;fill-rule:nonzero;stroke:none"
             id="path5583"
             inkscape:connector-curvature="0" /></g><g
           id="g5585"
           transform="translate(105.2007,79.1738)"><path
             d="m 0,0 c 1.681,0 3.044,-1.363 3.044,-3.044 0,-1.681 -1.363,-3.043 -3.044,-3.043 -1.681,0 -3.043,1.362 -3.043,3.043 C -3.043,-1.363 -1.681,0 0,0"
             style="fill:#0857c3;fill-opacity:1;fill-rule:nonzero;stroke:none"
             id="path5587"
             inkscape:connector-curvature="0" /></g><g
           id="g5589"
           transform="translate(104.395,88.3935)"><path
             d="m 0,0 c 1.483,0 2.686,-1.202 2.686,-2.686 0,-1.482 -1.203,-2.685 -2.686,-2.685 -1.483,0 -2.685,1.203 -2.685,2.685 C -2.685,-1.202 -1.483,0 0,0"
             style="fill:#0857c3;fill-opacity:1;fill-rule:nonzero;stroke:none"
             id="path5591"
             inkscape:connector-curvature="0" /></g><g
           id="g5593"><g
             id="g5595" /><g
             id="g5607"><g
               clip-path="url(#clipPath5599)"
               id="g5605"
               style="opacity:0.10000598"><g
                 transform="translate(97.4131,104.8647)"
                 id="g5603"><path
                   d="m 0,0 c 0.989,0 1.791,-0.802 1.791,-1.791 0,-0.988 -0.802,-1.79 -1.791,-1.79 -0.989,0 -1.791,0.802 -1.791,1.79 C -1.791,-0.802 -0.989,0 0,0"
                   style="fill:#0857c3;fill-opacity:1;fill-rule:nonzero;stroke:none"
                   id="path5601"
                   inkscape:connector-curvature="0" /></g></g></g></g><g
           id="g5609"><g
             id="g5611" /><g
             id="g5623"><g
               clip-path="url(#clipPath5615)"
               id="g5621"
               style="opacity:0.39999402"><g
                 transform="translate(101.3516,97.4346)"
                 id="g5619"><path
                   d="m 0,0 c 1.187,0 2.148,-0.962 2.148,-2.148 0,-1.186 -0.961,-2.148 -2.148,-2.148 -1.187,0 -2.148,0.962 -2.148,2.148 C -2.148,-0.962 -1.187,0 0,0"
                   style="fill:#0857c3;fill-opacity:1;fill-rule:nonzero;stroke:none"
                   id="path5617"
                   inkscape:connector-curvature="0" /></g></g></g></g><g
           id="g5625"
           transform="translate(88.3721,93.2275)"><path
             d="m 0,0 c 1.681,0 3.043,-1.363 3.043,-3.043 0,-1.682 -1.362,-3.044 -3.043,-3.044 -1.681,0 -3.043,1.362 -3.043,3.044 C -3.043,-1.363 -1.681,0 0,0"
             style="fill:#0857c3;fill-opacity:1;fill-rule:nonzero;stroke:none"
             id="path5627"
             inkscape:connector-curvature="0" /></g><g
           id="g5629"
           transform="translate(82.106,100.1201)"><path
             d="m 0,0 c 1.483,0 2.686,-1.202 2.686,-2.686 0,-1.482 -1.203,-2.685 -2.686,-2.685 -1.483,0 -2.686,1.203 -2.686,2.685 C -2.686,-1.202 -1.483,0 0,0"
             style="fill:#0857c3;fill-opacity:1;fill-rule:nonzero;stroke:none"
             id="path5631"
             inkscape:connector-curvature="0" /></g><g
           id="g5633"><g
             id="g5635" /><g
             id="g5647"><g
               clip-path="url(#clipPath5639)"
               id="g5645"
               style="opacity:0.10000598"><g
                 transform="translate(66.3511,107.3711)"
                 id="g5643"><path
                   d="m 0,0 c 0.989,0 1.791,-0.802 1.791,-1.791 0,-0.988 -0.802,-1.79 -1.791,-1.79 -0.989,0 -1.79,0.802 -1.79,1.79 C -1.79,-0.802 -0.989,0 0,0"
                   style="fill:#0857c3;fill-opacity:1;fill-rule:nonzero;stroke:none"
                   id="path5641"
                   inkscape:connector-curvature="0" /></g></g></g></g><g
           id="g5649"><g
             id="g5651" /><g
             id="g5663"><g
               clip-path="url(#clipPath5655)"
               id="g5661"
               style="opacity:0.39999402"><g
                 transform="translate(74.0498,105.4912)"
                 id="g5659"><path
                   d="m 0,0 c 1.186,0 2.148,-0.962 2.148,-2.148 0,-1.187 -0.962,-2.149 -2.148,-2.149 -1.187,0 -2.148,0.962 -2.148,2.149 C -2.148,-0.962 -1.187,0 0,0"
                   style="fill:#0857c3;fill-opacity:1;fill-rule:nonzero;stroke:none"
                   id="path5657"
                   inkscape:connector-curvature="0" /></g></g></g></g><g
           id="g5665"
           transform="translate(92.4897,84.9028)"><path
             d="M 0,0 C 1.878,0 3.401,-1.523 3.401,-3.402 3.401,-5.28 1.878,-6.803 0,-6.803 c -1.878,0 -3.401,1.523 -3.401,3.401 C -3.401,-1.523 -1.878,0 0,0"
             style="fill:#0857c3;fill-opacity:1;fill-rule:nonzero;stroke:none"
             id="path5667"
             inkscape:connector-curvature="0" /></g><g
           id="g5669"
           transform="translate(66.978,94.5703)"><path
             d="m 0,0 c 1.681,0 3.043,-1.363 3.043,-3.043 0,-1.682 -1.362,-3.044 -3.043,-3.044 -1.681,0 -3.043,1.362 -3.043,3.044 C -3.043,-1.363 -1.681,0 0,0"
             style="fill:#0857c3;fill-opacity:1;fill-rule:nonzero;stroke:none"
             id="path5671"
             inkscape:connector-curvature="0" /></g><g
           id="g5673"
           transform="translate(57.7578,96.4502)"><path
             d="m 0,0 c 1.483,0 2.686,-1.203 2.686,-2.686 0,-1.483 -1.203,-2.685 -2.686,-2.685 -1.483,0 -2.686,1.202 -2.686,2.685 C -2.686,-1.203 -1.483,0 0,0"
             style="fill:#0857c3;fill-opacity:1;fill-rule:nonzero;stroke:none"
             id="path5675"
             inkscape:connector-curvature="0" /></g><g
           id="g5677"><g
             id="g5679" /><g
             id="g5691"><g
               clip-path="url(#clipPath5683)"
               id="g5689"
               style="opacity:0.10000598"><g
                 transform="translate(39.0488,94.3017)"
                 id="g5687"><path
                   d="m 0,0 c 0.989,0 1.791,-0.802 1.791,-1.791 0,-0.988 -0.802,-1.79 -1.791,-1.79 -0.988,0 -1.79,0.802 -1.79,1.79 C -1.79,-0.802 -0.988,0 0,0"
                   style="fill:#0857c3;fill-opacity:1;fill-rule:nonzero;stroke:none"
                   id="path5685"
                   inkscape:connector-curvature="0" /></g></g></g></g><g
           id="g5693"><g
             id="g5695" /><g
             id="g5707"><g
               clip-path="url(#clipPath5699)"
               id="g5705"
               style="opacity:0.39999402"><g
                 transform="translate(47.6426,95.9131)"
                 id="g5703"><path
                   d="m 0,0 c 1.187,0 2.148,-0.962 2.148,-2.148 0,-1.187 -0.961,-2.149 -2.148,-2.149 -1.187,0 -2.148,0.962 -2.148,2.149 C -2.148,-0.962 -1.187,0 0,0"
                   style="fill:#0857c3;fill-opacity:1;fill-rule:nonzero;stroke:none"
                   id="path5701"
                   inkscape:connector-curvature="0" /></g></g></g></g><g
           id="g5709"
           transform="translate(75.3921,90.3628)"><path
             d="M 0,0 C 1.879,0 3.402,-1.522 3.402,-3.401 3.402,-5.28 1.879,-6.803 0,-6.803 c -1.878,0 -3.401,1.523 -3.401,3.402 C -3.401,-1.522 -1.878,0 0,0"
             style="fill:#0857c3;fill-opacity:1;fill-rule:nonzero;stroke:none"
             id="path5711"
             inkscape:connector-curvature="0" /></g><g
           id="g5713"
           transform="translate(82.8223,83.6494)"><path
             d="m 0,0 c 1.582,0 2.864,-1.283 2.864,-2.865 0,-1.582 -1.282,-2.864 -2.864,-2.864 -1.582,0 -2.865,1.282 -2.865,2.864 C -2.865,-1.283 -1.582,0 0,0"
             style="fill:#0857c3;fill-opacity:1;fill-rule:nonzero;stroke:none"
             id="path5715"
             inkscape:connector-curvature="0" /></g><g
           id="g5717"
           transform="translate(49.0747,82.7544)"><path
             d="m 0,0 c 1.681,0 3.043,-1.363 3.043,-3.043 0,-1.682 -1.362,-3.044 -3.043,-3.044 -1.681,0 -3.043,1.362 -3.043,3.044 C -3.043,-1.363 -1.681,0 0,0"
             style="fill:#0857c3;fill-opacity:1;fill-rule:nonzero;stroke:none"
             id="path5719"
             inkscape:connector-curvature="0" /></g><g
           id="g5721"
           transform="translate(40.2129,78.8154)"><path
             d="m 0,0 c 1.483,0 2.686,-1.202 2.686,-2.686 0,-1.482 -1.203,-2.685 -2.686,-2.685 -1.483,0 -2.686,1.203 -2.686,2.685 C -2.686,-1.202 -1.483,0 0,0"
             style="fill:#0857c3;fill-opacity:1;fill-rule:nonzero;stroke:none"
             id="path5723"
             inkscape:connector-curvature="0" /></g><g
           id="g5725"><g
             id="g5727" /><g
             id="g5739"><g
               clip-path="url(#clipPath5731)"
               id="g5737"
               style="opacity:0.10000598"><g
                 transform="translate(25.8901,65.9253)"
                 id="g5735"><path
                   d="m 0,0 c 0.989,0 1.791,-0.801 1.791,-1.79 0,-0.989 -0.802,-1.791 -1.791,-1.791 -0.989,0 -1.79,0.802 -1.79,1.791 C -1.79,-0.801 -0.989,0 0,0"
                   style="fill:#0857c3;fill-opacity:1;fill-rule:nonzero;stroke:none"
                   id="path5733"
                   inkscape:connector-curvature="0" /></g></g></g></g><g
           id="g5741"><g
             id="g5743" /><g
             id="g5755"><g
               clip-path="url(#clipPath5747)"
               id="g5753"
               style="opacity:0.39999402"><g
                 transform="translate(32.0669,72.3706)"
                 id="g5751"><path
                   d="m 0,0 c 1.187,0 2.148,-0.962 2.148,-2.148 0,-1.187 -0.961,-2.149 -2.148,-2.149 -1.187,0 -2.148,0.962 -2.148,2.149 C -2.148,-0.962 -1.187,0 0,0"
                   style="fill:#0857c3;fill-opacity:1;fill-rule:nonzero;stroke:none"
                   id="path5749"
                   inkscape:connector-curvature="0" /></g></g></g></g><g
           id="g5757"
           transform="translate(58.4741,84.4551)"><path
             d="M 0,0 C 1.878,0 3.401,-1.523 3.401,-3.402 3.401,-5.28 1.878,-6.803 0,-6.803 c -1.879,0 -3.402,1.523 -3.402,3.401 C -3.402,-1.523 -1.879,0 0,0"
             style="fill:#0857c3;fill-opacity:1;fill-rule:nonzero;stroke:none"
             id="path5759"
             inkscape:connector-curvature="0" /></g><g
           id="g5761"
           transform="translate(68.1416,83.2016)"><path
             d="m 0,0 c 1.582,0 2.864,-1.282 2.864,-2.864 0,-1.582 -1.282,-2.865 -2.864,-2.865 -1.582,0 -2.865,1.283 -2.865,2.865 C -2.865,-1.282 -1.582,0 0,0"
             style="fill:#0857c3;fill-opacity:1;fill-rule:nonzero;stroke:none"
             id="path5763"
             inkscape:connector-curvature="0" /></g><g
           id="g5765"
           transform="translate(57.5786,65.9253)"><path
             d="m 0,0 c 1.286,0 2.328,-1.042 2.328,-2.327 0,-1.286 -1.042,-2.328 -2.328,-2.328 -1.285,0 -2.327,1.042 -2.327,2.328 C -2.327,-1.042 -1.285,0 0,0"
             style="fill:#0857c3;fill-opacity:1;fill-rule:nonzero;stroke:none"
             id="path5767"
             inkscape:connector-curvature="0" /></g><g
           id="g5769"
           transform="translate(57.4893,54.1089)"><path
             d="m 0,0 c 1.285,0 2.327,-1.042 2.327,-2.327 0,-1.285 -1.042,-2.327 -2.327,-2.327 -1.286,0 -2.328,1.042 -2.328,2.327 C -2.328,-1.042 -1.286,0 0,0"
             style="fill:#0857c3;fill-opacity:1;fill-rule:nonzero;stroke:none"
             id="path5771"
             inkscape:connector-curvature="0" /></g><g
           id="g5773"
           transform="translate(64.1133,44.2622)"><path
             d="m 0,0 c 1.286,0 2.328,-1.042 2.328,-2.327 0,-1.285 -1.042,-2.327 -2.328,-2.327 -1.285,0 -2.327,1.042 -2.327,2.327 C -2.327,-1.042 -1.285,0 0,0"
             style="fill:#0857c3;fill-opacity:1;fill-rule:nonzero;stroke:none"
             id="path5775"
             inkscape:connector-curvature="0" /></g><g
           id="g5777"
           transform="translate(75.4819,40.4136)"><path
             d="m 0,0 c 1.285,0 2.327,-1.042 2.327,-2.327 0,-1.286 -1.042,-2.328 -2.327,-2.328 -1.286,0 -2.328,1.042 -2.328,2.328 C -2.328,-1.042 -1.286,0 0,0"
             style="fill:#0857c3;fill-opacity:1;fill-rule:nonzero;stroke:none"
             id="path5779"
             inkscape:connector-curvature="0" /></g><g
           id="g5781"
           transform="translate(75.5713,78.9946)"><path
             d="m 0,0 c 1.286,0 2.328,-1.042 2.328,-2.328 0,-1.285 -1.042,-2.327 -2.328,-2.327 -1.285,0 -2.327,1.042 -2.327,2.327 C -2.327,-1.042 -1.285,0 0,0"
             style="fill:#0857c3;fill-opacity:1;fill-rule:nonzero;stroke:none"
             id="path5783"
             inkscape:connector-curvature="0" /></g><g
           id="g5785"
           transform="translate(64.6504,75.1455)"><path
             d="m 0,0 c 1.286,0 2.328,-1.042 2.328,-2.328 0,-1.285 -1.042,-2.327 -2.328,-2.327 -1.285,0 -2.327,1.042 -2.327,2.327 C -2.327,-1.042 -1.285,0 0,0"
             style="fill:#0857c3;fill-opacity:1;fill-rule:nonzero;stroke:none"
             id="path5787"
             inkscape:connector-curvature="0" /></g><g
           id="g5789"
           transform="translate(217.5898,46.9497)" /><g
           id="g5793"
           transform="translate(238.9453,52.5356)" /><g
           id="g5797"
           transform="translate(242.8887,51.0571)" /><g
           id="g5801"
           transform="translate(261.2871,67.6489)" /><g
           id="g5805"
           transform="translate(279.1934,59.6811)" /><g
           id="g5809"
           transform="translate(310.4883,51.2212)" /><g
           id="g5815"
           transform="translate(335.1299,51.2212)" /><g
           id="g5819"
           transform="translate(352.9531,51.5493)" /><g
           id="g5823"
           transform="translate(364.042,44.4038)" /><g
           id="g5827"
           transform="translate(186.8745,59.9629)"><path
             d="M 0,0 C 0.947,3.939 3.788,6.332 7.824,6.332 11.862,6.332 14.653,3.986 15.3,0 Z m 22.079,-1.991 c 0,8.024 -6.231,14.404 -14.307,14.404 -8.371,0 -14.551,-6.581 -14.551,-14.855 0,-8.222 6.331,-14.651 14.603,-14.651 5.884,0 11.564,3.985 13.358,9.619 h -6.976 c -1.347,-2.443 -3.689,-3.538 -6.382,-3.538 -2.739,0 -5.233,1.394 -6.728,3.685 -0.399,0.603 -0.746,1.247 -0.895,1.994 h 21.48 c 0.246,1.096 0.398,2.244 0.398,3.342"
             style="fill:#1a1b1b;fill-opacity:1;fill-rule:nonzero;stroke:none"
             id="path5829"
             inkscape:connector-curvature="0" /></g><g
           id="g5831"
           transform="translate(182.3872,72.3755)"><path
             d="m 0,0 c -3.291,0 -4.637,-0.699 -6.479,-3.389 h -0.099 v 2.442 h -6.081 v -13.757 -13.909 h 6.628 v 15.551 c 0,4.039 1.694,6.481 6.031,6.632 z"
             style="fill:#1a1b1b;fill-opacity:1;fill-rule:nonzero;stroke:none"
             id="path5833"
             inkscape:connector-curvature="0" /></g><g
           id="g5835"
           transform="translate(155.0732,48.9507)"><path
             d="m 0,0 c -4.786,0 -8.123,3.985 -8.123,8.625 0,4.483 3.438,8.718 8.123,8.718 4.685,0 8.026,-4.336 8.026,-8.773 C 8.026,4.034 4.685,0 0,0 m 0,23.425 c -8.175,0 -14.752,-6.682 -14.752,-14.8 0,-8.077 6.678,-14.706 14.752,-14.706 8.375,0 14.655,6.43 14.655,14.802 0,8.123 -6.48,14.704 -14.655,14.704"
             style="fill:#1a1b1b;fill-opacity:1;fill-rule:nonzero;stroke:none"
             id="path5837"
             inkscape:connector-curvature="0" /></g><g
           id="g5839"
           transform="translate(127.3066,48.9507)"><path
             d="m 0,0 c -4.933,0 -8.324,3.887 -8.324,8.671 0,4.733 3.091,8.672 8.026,8.672 3.089,0 4.983,-1.445 6.432,-4.037 h 7.471 c -2.041,6.129 -7.427,10.119 -13.903,10.119 -8.075,0 -14.654,-6.581 -14.654,-14.654 0,-8.125 6.529,-14.852 14.704,-14.852 6.529,0 11.663,3.835 13.853,9.916 H 6.134 C 4.735,1.596 2.692,0 0,0"
             style="fill:#1a1b1b;fill-opacity:1;fill-rule:nonzero;stroke:none"
             id="path5841"
             inkscape:connector-curvature="0" /></g><g
           id="g5843"
           transform="translate(109.8159,68.5371)"><path
             d="m 0,0 c -1.946,2.343 -5.285,3.838 -8.326,3.838 -3.186,0 -5.38,-1.198 -7.574,-3.34 v 2.394 h -12.394 c 5.418,-2.053 9.148,-7.257 9.148,-13.457 0,-1.098 -0.151,-2.247 -0.401,-3.343 h -21.482 c 0.151,-0.746 0.5,-1.39 0.897,-1.993 1.495,-2.291 3.987,-3.685 6.73,-3.685 2.69,0 5.033,1.094 6.38,3.538 h 6.977 c -1.291,-4.057 -4.601,-7.248 -8.545,-8.727 h 13.188 v 13.162 c 0,2.044 0,5.185 1.198,6.927 0.994,1.447 2.789,2.443 4.534,2.443 4.935,0 5.584,-5.033 5.584,-8.87 V -24.775 H 2.54 v 13.96 1.393 C 2.54,-6.182 2.142,-2.591 0,0"
             style="fill:#1a1b1b;fill-opacity:1;fill-rule:nonzero;stroke:none"
             id="path5845"
             inkscape:connector-curvature="0" /></g><g
           id="g5847"
           transform="translate(76.4155,66.2939)"><path
             d="m 0,0 c -4.038,0 -6.879,-2.392 -7.826,-6.329 h 15.3 C 6.827,-2.345 4.034,0 0,0"
             style="fill:#1a1b1b;fill-opacity:1;fill-rule:nonzero;stroke:none"
             id="path5849"
             inkscape:connector-curvature="0" /></g></g></g></g></svg>