<?xml version="1.0" encoding="UTF-8" standalone="no"?>
<!-- Created with Inkscape (http://www.inkscape.org/) -->

<svg
   xmlns:dc="http://purl.org/dc/elements/1.1/"
   xmlns:cc="http://creativecommons.org/ns#"
   xmlns:rdf="http://www.w3.org/1999/02/22-rdf-syntax-ns#"
   xmlns:svg="http://www.w3.org/2000/svg"
   xmlns="http://www.w3.org/2000/svg"
   xmlns:sodipodi="http://sodipodi.sourceforge.net/DTD/sodipodi-0.dtd"
   xmlns:inkscape="http://www.inkscape.org/namespaces/inkscape"
   width="40.256618mm"
   height="8.4666672mm"
   viewBox="0 0 40.256618 8.4666671"
   version="1.1"
   id="svg8"
   inkscape:version="0.92.5 (2060ec1f9f, 2020-04-08)"
   sodipodi:docname="drawing.svg">
  <defs
     id="defs2">
    <style
       id="style10">.cls-1{fill:#fff;}</style>
  </defs>
  <sodipodi:namedview
     id="base"
     pagecolor="#ffffff"
     bordercolor="#666666"
     borderopacity="1.0"
     inkscape:pageopacity="0.0"
     inkscape:pageshadow="2"
     inkscape:zoom="0.35"
     inkscape:cx="-498.21022"
     inkscape:cy="-366.85713"
     inkscape:document-units="mm"
     inkscape:current-layer="layer1"
     showgrid="false"
     inkscape:window-width="1848"
     inkscape:window-height="1136"
     inkscape:window-x="72"
     inkscape:window-y="27"
     inkscape:window-maximized="1" />
  <metadata
     id="metadata5">
    <rdf:RDF>
      <cc:Work
         rdf:about="">
        <dc:format>image/svg+xml</dc:format>
        <dc:type
           rdf:resource="http://purl.org/dc/dcmitype/StillImage" />
        <dc:title></dc:title>
      </cc:Work>
    </rdf:RDF>
  </metadata>
  <g
     inkscape:label="Layer 1"
     inkscape:groupmode="layer"
     id="layer1"
     transform="translate(-78.145502,-46.326191)">
    <path
       id="path14"
       d="m 80.386738,48.071173 c -1.158376,0 -1.971532,0.686395 -2.241236,1.815779 h 4.382682 c -0.185422,-1.14624 -0.986441,-1.815779 -2.143469,-1.815779 m 9.579868,-0.643243 c -0.557612,-0.674259 -1.515734,-1.101064 -2.38755,-1.101064 -0.914295,0 -1.544053,0.343872 -2.173136,0.958121 v -0.686395 h -3.549972 c 1.550795,0.588628 2.620843,2.081437 2.620843,3.858782 a 4.428531,4.428531 0 0 1 -0.113949,0.958796 h -6.162051 a 1.623615,1.623615 0 0 0 0.256893,0.571772 2.2985479,2.2985479 0 0 0 1.930403,1.057237 c 0.771352,0 1.443588,-0.314204 1.829938,-1.011388 h 2.001874 c -0.370842,1.163097 -1.319524,2.07874 -2.451605,2.502849 h 3.782592 v -3.775849 c 0,-0.585931 0,-1.483369 0.343872,-1.987041 a 1.6438427,1.6438427 0 0 1 1.29997,-0.700554 c 1.415944,0 1.602039,1.443588 1.602039,2.544652 v 3.918117 h 1.900061 v -4.405606 c 0,-0.929128 -0.11395,-1.958722 -0.728199,-2.702429 m 5.017159,5.617924 c -1.415944,0 -2.38755,-1.115224 -2.38755,-2.487341 0,-1.357282 0.88665,-2.48734 2.301919,-2.48734 0.885976,0 1.429428,0.414669 1.844772,1.158376 h 2.143468 c -0.585931,-1.758466 -2.130658,-2.902683 -3.98824,-2.902683 a 4.2107455,4.2107455 0 0 0 -4.203329,4.203328 c 0,2.330913 1.873091,4.259967 4.218162,4.259967 1.872417,0 3.344998,-1.099716 3.973407,-2.844698 h -2.143468 c -0.401184,0.642569 -0.987115,1.100391 -1.759141,1.100391 m 7.964345,-6.718988 a 4.2437842,4.2437842 0 0 0 -4.231649,4.247829 c 0,2.316753 1.915569,4.218163 4.231649,4.218163 2.40171,0 4.20333,-1.844772 4.20333,-4.24783 a 4.1959119,4.1959119 0 0 0 -4.20333,-4.217488 m 0,6.718988 c -1.37279,0 -2.33024,-1.14624 -2.33024,-2.473855 0,-1.285812 0.98644,-2.500826 2.33024,-2.500826 1.34379,0 2.30259,1.243333 2.30259,2.515659 0,1.30132 -0.95812,2.458348 -2.30192,2.458348 m 7.83084,-6.718988 c -0.94396,0 -1.33031,0.202277 -1.85825,0.972281 h -0.0283 v -0.700555 h -1.74161 v 7.935351 h 1.90073 v -4.460896 c 0,-1.157702 0.48614,-1.858257 1.73015,-1.90141 z m 7.6225,4.130508 c 0,-2.301244 -1.78746,-4.131183 -4.10354,-4.131183 -2.40104,0 -4.17366,1.887925 -4.17366,4.260641 0,2.359906 1.81578,4.202655 4.18849,4.202655 1.68565,0 3.31668,-1.14624 3.83114,-2.759067 h -2.0012 c -0.38568,0.700555 -1.05791,1.011388 -1.82994,1.011388 a 2.2978736,2.2978736 0 0 1 -1.92973,-1.057238 1.6000159,1.6000159 0 0 1 -0.25689,-0.571771 h 6.16138 a 4.4703352,4.4703352 0 0 0 0.11395,-0.955425 m -6.33264,-0.571097 c 0.2697,-1.129383 1.08623,-1.815778 2.24393,-1.815778 1.1577,0 1.95872,0.674258 2.14415,1.815778 z"
       class="cls-1"
       inkscape:connector-curvature="0"
       style="fill:#ffffff;stroke-width:0.06742587" />
  </g>
</svg>
