<svg id="Layer_1" data-name="Layer 1" xmlns="http://www.w3.org/2000/svg" viewBox="0 0 615 179"><defs><style>.cls-1{fill:#fff;}</style></defs><path class="cls-1" d="M42.24,52.61C25.06,52.61,13,62.79,9,79.54H74c-2.75-17-14.63-26.93-31.79-26.93m142.08-9.54c-8.27-10-22.48-16.33-35.41-16.33-13.56,0-22.9,5.1-32.23,14.21V30.77H64C87,39.5,102.87,61.64,102.87,88a65.68,65.68,0,0,1-1.69,14.22H9.79a24.08,24.08,0,0,0,3.81,8.48,34.09,34.09,0,0,0,28.63,15.68c11.44,0,21.41-4.66,27.14-15H99.06c-5.5,17.25-19.57,30.83-36.36,37.12h56.1v-56c0-8.69,0-22,5.1-29.47a24.38,24.38,0,0,1,19.28-10.39c21,0,23.76,21.41,23.76,37.74v58.11h28.18V83.15c0-13.78-1.69-29.05-10.8-40.08m74.41,83.32c-21,0-35.41-16.54-35.41-36.89,0-20.13,13.15-36.89,34.14-36.89,13.14,0,21.2,6.15,27.36,17.18h31.79c-8.69-26.08-31.6-43.05-59.15-43.05a62.45,62.45,0,0,0-62.34,62.34c0,34.57,27.78,63.18,62.56,63.18,27.77,0,49.61-16.31,58.93-42.19H284.82c-5.95,9.53-14.64,16.32-26.09,16.32M376.85,26.74a62.94,62.94,0,0,0-62.76,63c0,34.36,28.41,62.56,62.76,62.56,35.62,0,62.34-27.36,62.34-63a62.23,62.23,0,0,0-62.34-62.55m0,99.65c-20.36,0-34.56-17-34.56-36.69,0-19.07,14.63-37.09,34.56-37.09S411,71.06,411,89.93c0,19.3-14.21,36.46-34.14,36.46M493,26.74c-14,0-19.73,3-27.56,14.42h-.42V30.77H439.19V148.46h28.19V82.3c0-17.17,7.21-27.56,25.66-28.2ZM606.05,88c0-34.13-26.51-61.27-60.86-61.27-35.61,0-61.9,28-61.9,63.19,0,35,26.93,62.33,62.12,62.33,25,0,49.19-17,56.82-40.92H572.55c-5.72,10.39-15.69,15-27.14,15a34.08,34.08,0,0,1-28.62-15.68,23.73,23.73,0,0,1-3.81-8.48h91.38A66.3,66.3,0,0,0,606.05,88m-93.92-8.47c4-16.75,16.11-26.93,33.28-26.93s29.05,10,31.8,26.93Z"/></svg>