<svg id="svg" version="1.1" xmlns="http://www.w3.org/2000/svg" xmlns:xlink="http://www.w3.org/1999/xlink" width="400" height="308.9430894308943" viewBox="0, 0, 400,308.9430894308943"><g id="svgg"><path id="path0" d="M153.432 0.237 C 153.236 0.361,152.977 1.264,152.855 2.241 C 152.733 3.219,152.515 4.019,152.371 4.019 C 152.226 4.019,152.016 4.714,151.903 5.564 C 151.790 6.414,151.593 7.110,151.464 7.110 C 151.336 7.110,151.135 7.875,151.018 8.810 C 150.901 9.745,150.694 10.510,150.559 10.510 C 150.423 10.510,150.219 11.206,150.106 12.056 C 149.994 12.906,149.781 13.601,149.633 13.601 C 149.486 13.601,149.268 14.436,149.150 15.456 C 149.032 16.476,148.819 17.311,148.678 17.311 C 148.537 17.311,148.326 18.076,148.209 19.011 C 148.092 19.946,147.878 20.711,147.734 20.711 C 147.589 20.711,147.379 21.406,147.266 22.257 C 147.153 23.107,146.956 23.802,146.827 23.802 C 146.699 23.802,146.498 24.567,146.381 25.502 C 146.264 26.437,146.053 27.202,145.912 27.202 C 145.771 27.202,145.559 28.037,145.440 29.057 C 145.322 30.077,145.110 30.912,144.969 30.912 C 144.828 30.912,144.617 31.677,144.500 32.612 C 144.383 33.547,144.169 34.312,144.024 34.312 C 143.880 34.312,143.669 35.008,143.557 35.858 C 143.444 36.708,143.246 37.403,143.118 37.403 C 142.989 37.403,142.789 38.168,142.672 39.104 C 142.555 40.039,142.348 40.804,142.212 40.804 C 142.076 40.804,141.873 41.499,141.760 42.349 C 141.647 43.199,141.435 43.895,141.287 43.895 C 141.140 43.895,140.922 44.730,140.804 45.750 C 140.685 46.770,140.473 47.604,140.332 47.604 C 140.191 47.604,139.980 48.369,139.863 49.304 C 139.746 50.240,139.532 51.005,139.388 51.005 C 139.243 51.005,139.033 51.700,138.920 52.550 C 138.807 53.400,138.610 54.096,138.481 54.096 C 138.353 54.096,138.152 54.861,138.035 55.796 C 137.918 56.731,137.707 57.496,137.566 57.496 C 137.425 57.496,137.213 58.331,137.094 59.351 C 136.976 60.371,136.758 61.206,136.611 61.206 C 136.463 61.206,136.251 61.901,136.138 62.751 C 136.025 63.601,135.822 64.297,135.686 64.297 C 135.550 64.297,135.343 65.062,135.226 65.997 C 135.109 66.932,134.909 67.697,134.780 67.697 C 134.652 67.697,134.454 68.393,134.341 69.243 C 134.229 70.093,134.018 70.788,133.874 70.788 C 133.729 70.788,133.515 71.553,133.398 72.488 C 133.281 73.423,133.070 74.189,132.929 74.189 C 132.788 74.189,132.576 75.023,132.457 76.043 C 132.339 77.063,132.122 77.898,131.974 77.898 C 131.827 77.898,131.614 78.594,131.501 79.444 C 131.388 80.294,131.191 80.989,131.062 80.989 C 130.934 80.989,130.733 81.754,130.616 82.689 C 130.499 83.624,130.293 84.389,130.157 84.389 C 130.021 84.389,129.817 85.085,129.705 85.935 C 129.592 86.785,129.379 87.481,129.231 87.481 C 129.084 87.481,128.866 88.315,128.748 89.335 C 128.630 90.355,128.417 91.190,128.276 91.190 C 128.135 91.190,127.924 91.955,127.807 92.890 C 127.691 93.825,127.482 94.590,127.344 94.590 C 127.205 94.590,126.997 95.355,126.880 96.291 C 126.763 97.226,126.562 97.991,126.434 97.991 C 126.305 97.991,126.108 98.686,125.995 99.536 C 125.882 100.386,125.669 101.082,125.522 101.082 C 125.375 101.082,125.157 101.917,125.039 102.937 C 124.920 103.957,124.708 104.791,124.567 104.791 C 124.426 104.791,124.215 105.556,124.098 106.491 C 123.981 107.427,123.767 108.192,123.623 108.192 C 123.478 108.192,123.268 108.887,123.155 109.737 C 123.042 110.587,122.845 111.283,122.716 111.283 C 122.588 111.283,122.387 112.048,122.270 112.983 C 122.153 113.918,121.946 114.683,121.810 114.683 C 121.675 114.683,121.471 115.379,121.358 116.229 C 121.246 117.079,121.033 117.774,120.885 117.774 C 120.738 117.774,120.520 118.609,120.402 119.629 C 120.283 120.649,120.061 121.484,119.908 121.484 C 119.755 121.484,119.629 121.832,119.629 122.257 C 119.629 122.682,119.508 123.029,119.360 123.029 C 119.212 123.029,118.999 123.719,118.887 124.562 C 118.775 125.405,118.558 126.173,118.405 126.267 C 118.252 126.362,118.031 127.204,117.914 128.139 C 117.798 129.073,117.583 129.912,117.438 130.001 C 117.293 130.091,117.083 130.854,116.971 131.697 C 116.859 132.540,116.664 133.230,116.538 133.230 C 116.412 133.230,116.217 133.920,116.105 134.763 C 115.993 135.606,115.785 136.368,115.643 136.456 C 115.501 136.544,115.451 136.967,115.533 137.396 C 115.621 137.853,115.540 138.176,115.337 138.176 C 115.148 138.176,114.992 138.524,114.992 138.949 C 114.992 139.374,114.877 139.722,114.737 139.722 C 114.596 139.722,114.542 140.139,114.617 140.649 C 114.699 141.206,114.616 141.577,114.409 141.577 C 114.220 141.577,114.065 141.994,114.065 142.504 C 114.065 143.014,113.944 143.431,113.795 143.431 C 113.647 143.431,113.433 144.022,113.319 144.745 C 112.833 147.844,112.460 148.322,111.086 147.606 C 110.599 147.352,109.888 147.144,109.505 147.143 C 109.123 147.142,108.810 147.010,108.810 146.850 C 108.810 146.691,108.184 146.466,107.419 146.352 C 106.654 146.237,106.028 146.025,106.028 145.880 C 106.028 145.735,105.332 145.524,104.482 145.411 C 103.632 145.299,102.937 145.104,102.937 144.980 C 102.937 144.855,102.589 144.820,102.164 144.901 C 101.713 144.987,101.391 144.905,101.391 144.704 C 101.391 144.514,101.124 144.359,100.799 144.359 C 100.473 144.359,100.160 144.228,100.103 144.068 C 100.046 143.909,99.288 143.685,98.417 143.570 L 96.835 143.362 96.610 144.865 C 96.486 145.692,96.272 146.438,96.134 146.523 C 94.705 147.409,95.699 149.289,97.604 149.300 C 97.987 149.303,98.300 149.435,98.300 149.595 C 98.300 149.754,98.926 149.979,99.691 150.093 C 100.456 150.208,101.082 150.417,101.082 150.557 C 101.082 150.697,101.708 150.906,102.473 151.021 C 103.238 151.136,103.864 151.344,103.864 151.484 C 103.864 151.625,104.525 151.835,105.332 151.952 C 106.140 152.069,106.940 152.274,107.110 152.407 C 107.280 152.540,107.940 152.747,108.578 152.866 C 109.216 152.985,109.737 153.191,109.737 153.322 C 109.737 153.454,110.363 153.656,111.128 153.771 C 111.893 153.885,112.519 154.110,112.519 154.269 C 112.519 154.429,112.867 154.560,113.292 154.560 C 113.717 154.560,114.065 154.699,114.065 154.869 C 114.065 155.039,114.681 155.178,115.434 155.178 L 116.802 155.178 117.015 153.478 C 117.132 152.543,117.340 151.777,117.479 151.777 C 117.617 151.777,117.825 151.012,117.942 150.077 C 118.059 149.142,118.273 148.377,118.418 148.377 C 118.562 148.377,118.773 147.682,118.885 146.832 C 118.998 145.981,119.212 145.286,119.360 145.286 C 119.508 145.286,119.629 144.869,119.629 144.359 C 119.629 143.849,119.758 143.431,119.916 143.431 C 120.074 143.431,120.298 142.666,120.415 141.731 C 120.532 140.796,120.746 140.031,120.891 140.031 C 121.035 140.031,121.246 139.335,121.358 138.485 C 121.471 137.635,121.669 136.940,121.797 136.940 C 121.926 136.940,122.126 136.175,122.243 135.240 C 122.360 134.304,122.571 133.539,122.712 133.539 C 122.853 133.539,123.066 132.705,123.184 131.685 C 123.302 130.665,123.520 129.830,123.667 129.830 C 123.815 129.830,124.028 129.134,124.140 128.284 C 124.253 127.434,124.457 126.739,124.593 126.739 C 124.728 126.739,124.935 125.974,125.052 125.039 C 125.169 124.104,125.370 123.338,125.498 123.338 C 125.627 123.338,125.824 122.643,125.937 121.793 C 126.050 120.943,126.260 120.247,126.405 120.247 C 126.549 120.247,126.763 119.482,126.880 118.547 C 126.997 117.612,127.208 116.847,127.349 116.847 C 127.490 116.847,127.702 116.012,127.821 114.992 C 127.939 113.972,128.157 113.138,128.304 113.138 C 128.452 113.138,128.664 112.442,128.777 111.592 C 128.890 110.742,129.093 110.046,129.229 110.046 C 129.365 110.046,129.572 109.281,129.689 108.346 C 129.806 107.411,130.006 106.646,130.135 106.646 C 130.263 106.646,130.461 105.951,130.574 105.100 C 130.686 104.250,130.899 103.555,131.047 103.555 C 131.194 103.555,131.412 102.720,131.530 101.700 C 131.649 100.680,131.861 99.845,132.002 99.845 C 132.143 99.845,132.354 99.080,132.471 98.145 C 132.588 97.210,132.798 96.445,132.938 96.445 C 133.078 96.445,133.288 95.784,133.405 94.977 C 133.522 94.169,133.721 93.369,133.849 93.199 C 133.976 93.029,134.175 92.230,134.292 91.422 C 134.409 90.614,134.619 89.954,134.759 89.954 C 134.899 89.954,135.109 89.189,135.226 88.253 C 135.343 87.318,135.554 86.553,135.695 86.553 C 135.836 86.553,136.049 85.719,136.167 84.699 C 136.285 83.679,136.503 82.844,136.650 82.844 C 136.798 82.844,137.011 82.148,137.123 81.298 C 137.236 80.448,137.434 79.753,137.562 79.753 C 137.691 79.753,137.891 78.988,138.008 78.053 C 138.125 77.117,138.332 76.352,138.468 76.352 C 138.604 76.352,138.807 75.657,138.920 74.807 C 139.033 73.957,139.246 73.261,139.393 73.261 C 139.540 73.261,139.758 72.427,139.876 71.406 C 139.995 70.386,140.207 69.552,140.348 69.552 C 140.489 69.552,140.700 68.787,140.817 67.852 C 140.934 66.917,141.148 66.151,141.292 66.151 C 141.437 66.151,141.647 65.456,141.760 64.606 C 141.873 63.756,142.070 63.060,142.199 63.060 C 142.327 63.060,142.528 62.295,142.645 61.360 C 142.762 60.425,142.969 59.660,143.105 59.660 C 143.240 59.660,143.444 58.964,143.557 58.114 C 143.669 57.264,143.882 56.569,144.030 56.569 C 144.177 56.569,144.395 55.734,144.513 54.714 C 144.632 53.694,144.844 52.859,144.985 52.859 C 145.126 52.859,145.337 52.094,145.454 51.159 C 145.571 50.224,145.771 49.459,145.900 49.459 C 146.028 49.459,146.226 48.764,146.339 47.913 C 146.451 47.063,146.662 46.368,146.807 46.368 C 146.951 46.368,147.165 45.603,147.282 44.668 C 147.399 43.733,147.610 42.968,147.751 42.968 C 147.892 42.968,148.104 42.133,148.223 41.113 C 148.341 40.093,148.558 39.258,148.706 39.258 C 148.853 39.258,149.066 38.563,149.179 37.713 C 149.292 36.862,149.495 36.167,149.631 36.167 C 149.767 36.167,149.974 35.402,150.091 34.467 C 150.207 33.532,150.410 32.767,150.541 32.767 C 150.672 32.767,150.874 32.002,150.991 31.066 C 151.108 30.131,151.319 29.366,151.460 29.366 C 151.601 29.366,151.814 28.532,151.932 27.512 C 152.050 26.491,152.268 25.657,152.415 25.657 C 152.563 25.657,152.776 24.961,152.889 24.111 C 153.001 23.261,153.205 22.566,153.341 22.566 C 153.476 22.566,153.683 21.801,153.800 20.866 C 154.058 18.804,154.417 18.680,154.698 20.556 C 154.813 21.321,155.021 21.947,155.161 21.947 C 155.301 21.947,155.511 22.713,155.628 23.648 C 155.745 24.583,155.957 25.348,156.100 25.348 C 156.243 25.348,156.459 25.939,156.579 26.662 C 156.700 27.384,156.925 28.055,157.078 28.153 C 157.232 28.251,157.443 29.051,157.547 29.931 C 157.652 30.810,157.848 31.530,157.984 31.530 C 158.120 31.530,158.325 32.156,158.440 32.921 C 158.554 33.686,158.767 34.312,158.912 34.312 C 159.056 34.312,159.267 35.008,159.380 35.858 C 159.493 36.708,159.690 37.403,159.819 37.403 C 159.948 37.403,160.147 38.029,160.262 38.794 C 160.377 39.560,160.585 40.185,160.726 40.185 C 160.866 40.185,161.075 40.811,161.189 41.577 C 161.304 42.342,161.513 42.968,161.653 42.968 C 161.793 42.968,162.003 43.733,162.120 44.668 C 162.236 45.603,162.453 46.368,162.600 46.368 C 162.747 46.368,162.962 46.994,163.076 47.759 C 163.191 48.524,163.404 49.150,163.548 49.150 C 163.693 49.150,163.904 49.845,164.017 50.696 C 164.130 51.546,164.327 52.241,164.456 52.241 C 164.585 52.241,164.784 52.867,164.899 53.632 C 165.014 54.397,165.222 55.023,165.363 55.023 C 165.503 55.023,165.711 55.649,165.826 56.414 C 165.941 57.179,166.149 57.805,166.289 57.805 C 166.429 57.805,166.640 58.570,166.756 59.505 C 166.873 60.440,167.089 61.206,167.237 61.206 C 167.384 61.206,167.598 61.832,167.713 62.597 C 167.828 63.362,168.027 63.988,168.156 63.988 C 168.285 63.988,168.482 64.683,168.595 65.533 C 168.708 66.383,168.919 67.079,169.064 67.079 C 169.209 67.079,169.421 67.705,169.536 68.470 C 169.650 69.235,169.865 69.861,170.012 69.861 C 170.160 69.861,170.376 70.626,170.493 71.561 C 170.609 72.496,170.819 73.261,170.959 73.261 C 171.099 73.261,171.308 73.887,171.423 74.652 C 171.537 75.417,171.746 76.043,171.886 76.043 C 172.027 76.043,172.235 76.669,172.350 77.434 C 172.465 78.199,172.664 78.825,172.793 78.825 C 172.922 78.825,173.119 79.521,173.232 80.371 C 173.345 81.221,173.556 81.917,173.700 81.917 C 173.845 81.917,174.058 82.543,174.172 83.308 C 174.287 84.073,174.502 84.699,174.649 84.699 C 174.796 84.699,175.012 85.464,175.129 86.399 C 175.246 87.334,175.456 88.099,175.596 88.099 C 175.736 88.099,175.945 88.725,176.059 89.490 C 176.174 90.255,176.383 90.881,176.523 90.881 C 176.663 90.881,176.872 91.507,176.987 92.272 C 177.102 93.037,177.303 93.663,177.434 93.663 C 177.565 93.663,177.768 94.428,177.885 95.363 C 178.001 96.298,178.218 97.063,178.365 97.063 C 178.512 97.063,178.727 97.689,178.842 98.454 C 178.956 99.219,179.155 99.845,179.284 99.845 C 179.413 99.845,179.611 100.541,179.724 101.391 C 179.836 102.241,180.047 102.937,180.192 102.937 C 180.337 102.937,180.549 103.563,180.664 104.328 C 180.779 105.093,181.003 105.719,181.163 105.719 C 181.322 105.719,181.453 105.927,181.453 106.182 C 181.453 106.591,184.888 106.646,210.510 106.646 L 239.567 106.646 239.567 103.709 L 239.567 100.773 212.554 100.773 L 185.542 100.773 185.333 99.382 C 185.218 98.617,185.004 97.991,184.856 97.991 C 184.709 97.991,184.493 97.226,184.376 96.291 C 184.259 95.355,184.049 94.590,183.909 94.590 C 183.769 94.590,183.561 93.964,183.446 93.199 C 183.331 92.434,183.130 91.808,182.998 91.808 C 182.867 91.808,182.666 91.182,182.551 90.417 C 182.436 89.652,182.228 89.026,182.088 89.026 C 181.948 89.026,181.738 88.261,181.621 87.326 C 181.504 86.391,181.288 85.626,181.140 85.626 C 180.993 85.626,180.779 85.000,180.664 84.235 C 180.549 83.470,180.337 82.844,180.192 82.844 C 180.047 82.844,179.836 82.148,179.724 81.298 C 179.611 80.448,179.413 79.753,179.284 79.753 C 179.155 79.753,178.956 79.127,178.842 78.362 C 178.727 77.597,178.518 76.971,178.378 76.971 C 178.238 76.971,178.029 76.345,177.914 75.580 C 177.799 74.815,177.591 74.189,177.451 74.189 C 177.311 74.189,177.101 73.423,176.984 72.488 C 176.867 71.553,176.651 70.788,176.504 70.788 C 176.356 70.788,176.142 70.162,176.027 69.397 C 175.912 68.632,175.713 68.006,175.584 68.006 C 175.456 68.006,175.258 67.311,175.145 66.461 C 175.032 65.611,174.822 64.915,174.677 64.915 C 174.532 64.915,174.319 64.289,174.205 63.524 C 174.090 62.759,173.876 62.133,173.728 62.133 C 173.581 62.133,173.365 61.368,173.248 60.433 C 173.131 59.498,172.921 58.733,172.781 58.733 C 172.641 58.733,172.432 58.107,172.318 57.342 C 172.203 56.577,171.994 55.951,171.854 55.951 C 171.714 55.951,171.505 55.325,171.390 54.560 C 171.276 53.794,171.076 53.168,170.948 53.168 C 170.819 53.168,170.621 52.473,170.508 51.623 C 170.396 50.773,170.185 50.077,170.040 50.077 C 169.895 50.077,169.683 49.451,169.568 48.686 C 169.453 47.921,169.239 47.295,169.091 47.295 C 168.944 47.295,168.728 46.530,168.611 45.595 C 168.494 44.660,168.284 43.895,168.144 43.895 C 168.004 43.895,167.796 43.269,167.681 42.504 C 167.566 41.739,167.354 41.113,167.209 41.113 C 167.064 41.113,166.853 40.417,166.741 39.567 C 166.628 38.717,166.430 38.022,166.301 38.022 C 166.172 38.022,165.973 37.396,165.859 36.631 C 165.744 35.866,165.535 35.240,165.395 35.240 C 165.255 35.240,165.046 34.614,164.931 33.849 C 164.816 33.083,164.611 32.457,164.475 32.457 C 164.340 32.457,164.143 31.738,164.039 30.858 C 163.935 29.978,163.727 29.178,163.577 29.080 C 163.427 28.983,163.202 28.347,163.076 27.667 C 162.951 26.987,162.719 26.351,162.560 26.253 C 162.401 26.154,162.186 25.354,162.082 24.474 C 161.977 23.595,161.781 22.875,161.645 22.875 C 161.509 22.875,161.304 22.250,161.190 21.487 C 161.075 20.724,160.871 20.167,160.736 20.251 C 160.601 20.334,160.395 19.707,160.278 18.857 C 160.161 18.006,159.958 17.311,159.825 17.311 C 159.693 17.311,159.493 16.615,159.380 15.765 C 159.267 14.915,159.056 14.219,158.912 14.219 C 158.767 14.219,158.554 13.594,158.440 12.828 C 158.325 12.063,158.110 11.437,157.963 11.437 C 157.816 11.437,157.600 10.672,157.483 9.737 C 157.366 8.802,157.156 8.037,157.016 8.037 C 156.876 8.037,156.667 7.411,156.553 6.646 C 156.438 5.881,156.226 5.255,156.081 5.255 C 155.936 5.255,155.725 4.560,155.612 3.709 C 155.499 2.859,155.286 2.164,155.138 2.164 C 154.990 2.164,154.869 1.897,154.869 1.571 C 154.869 0.221,154.293 -0.314,153.432 0.237 M117.499 53.079 C 116.782 53.363,115.920 54.209,115.920 54.628 C 115.920 54.845,115.785 55.023,115.620 55.023 C 115.456 55.023,115.401 55.232,115.499 55.487 C 115.597 55.742,115.523 55.951,115.334 55.951 C 115.126 55.951,114.992 56.614,114.992 57.651 C 114.992 58.655,115.128 59.351,115.324 59.351 C 115.507 59.351,115.607 59.594,115.547 59.892 C 115.403 60.608,117.194 62.442,118.037 62.442 C 118.403 62.442,118.702 62.581,118.702 62.751 C 118.702 62.921,119.467 63.060,120.402 63.060 C 121.337 63.060,122.102 62.936,122.102 62.785 C 122.102 62.633,122.453 62.421,122.883 62.313 C 124.062 62.017,124.933 60.967,125.113 59.626 C 125.202 58.965,125.395 58.423,125.543 58.423 C 125.691 58.423,125.811 58.076,125.811 57.651 C 125.811 57.226,125.672 56.878,125.502 56.878 C 125.332 56.878,125.193 56.514,125.193 56.069 C 125.193 53.736,120.470 51.901,117.499 53.079 M115.224 64.167 C 115.097 64.295,114.992 64.794,114.992 65.276 C 114.992 65.757,114.872 66.151,114.726 66.151 C 114.580 66.151,114.526 66.499,114.607 66.924 C 114.694 67.375,114.612 67.697,114.410 67.697 C 114.220 67.697,114.065 68.114,114.065 68.624 C 114.065 69.134,113.934 69.552,113.775 69.552 C 113.615 69.552,113.391 70.178,113.276 70.943 C 113.161 71.708,112.962 72.334,112.833 72.334 C 112.704 72.334,112.507 73.029,112.394 73.879 C 112.281 74.730,112.071 75.425,111.926 75.425 C 111.781 75.425,111.568 76.188,111.451 77.120 C 111.335 78.053,111.126 78.886,110.988 78.971 C 110.849 79.057,110.642 79.755,110.527 80.522 C 110.412 81.289,110.206 81.917,110.070 81.917 C 109.935 81.917,109.739 82.627,109.636 83.495 C 109.534 84.363,109.319 85.232,109.159 85.427 C 108.999 85.621,108.769 86.441,108.649 87.249 C 108.529 88.056,108.320 88.717,108.185 88.717 C 108.051 88.717,108.013 88.995,108.102 89.335 C 108.192 89.681,108.112 89.954,107.919 89.954 C 107.729 89.954,107.573 90.363,107.573 90.863 C 107.573 91.363,107.438 91.855,107.273 91.957 C 107.108 92.059,106.882 92.833,106.770 93.676 C 106.658 94.519,106.450 95.209,106.308 95.209 C 106.166 95.209,105.956 95.907,105.843 96.761 C 105.730 97.615,105.520 98.386,105.378 98.474 C 105.235 98.562,105.027 99.324,104.915 100.167 C 104.803 101.010,104.599 101.700,104.461 101.700 C 104.324 101.700,104.117 102.326,104.002 103.091 C 103.888 103.856,103.688 104.482,103.560 104.482 C 103.431 104.482,103.233 105.178,103.120 106.028 C 103.008 106.878,102.797 107.573,102.652 107.573 C 102.508 107.573,102.294 108.338,102.177 109.274 C 102.060 110.209,101.845 110.974,101.697 110.974 C 101.550 110.974,101.387 111.426,101.333 111.978 L 101.236 112.983 94.668 113.066 C 91.055 113.112,88.099 113.269,88.099 113.415 C 88.099 113.561,74.261 113.784,57.347 113.911 C 39.899 114.042,26.668 114.259,26.763 114.412 C 26.857 114.566,21.089 114.683,13.465 114.683 C 1.571 114.683,-0.000 114.738,-0.000 115.157 C -0.000 115.743,1.599 117.342,2.457 117.615 C 2.806 117.725,3.091 117.946,3.091 118.104 C 3.091 118.263,3.304 118.393,3.565 118.393 C 3.825 118.393,4.113 118.589,4.205 118.828 C 4.297 119.068,4.710 119.349,5.123 119.452 C 5.536 119.556,5.873 119.777,5.873 119.944 C 5.873 120.111,6.051 120.247,6.268 120.247 C 6.485 120.247,6.901 120.526,7.193 120.866 C 7.484 121.206,7.917 121.484,8.156 121.484 C 8.394 121.484,8.669 121.692,8.767 121.947 C 8.865 122.202,9.158 122.411,9.418 122.411 C 9.679 122.411,9.892 122.541,9.892 122.699 C 9.892 122.858,10.192 123.083,10.558 123.199 C 10.925 123.316,11.516 123.718,11.872 124.093 C 12.228 124.469,12.763 124.865,13.060 124.975 C 13.358 125.084,13.601 125.302,13.601 125.459 C 13.601 125.616,13.949 125.832,14.374 125.938 C 14.799 126.045,15.147 126.269,15.147 126.436 C 15.147 126.602,15.325 126.739,15.542 126.739 C 15.759 126.739,16.175 127.017,16.466 127.357 C 16.757 127.697,17.191 127.975,17.429 127.975 C 17.668 127.975,17.943 128.184,18.041 128.439 C 18.139 128.694,18.432 128.903,18.692 128.903 C 18.952 128.903,19.165 129.039,19.165 129.206 C 19.165 129.373,19.513 129.596,19.938 129.703 C 20.363 129.810,20.711 130.025,20.711 130.182 C 20.711 130.339,20.954 130.557,21.252 130.667 C 21.549 130.776,22.084 131.173,22.440 131.548 C 22.796 131.924,23.387 132.326,23.754 132.442 C 24.120 132.559,24.420 132.768,24.420 132.908 C 24.420 133.049,24.774 133.252,25.206 133.360 C 25.638 133.469,25.908 133.693,25.806 133.858 C 25.704 134.023,25.839 134.158,26.105 134.158 C 26.372 134.158,26.828 134.436,27.120 134.776 C 27.411 135.116,27.827 135.394,28.044 135.394 C 28.261 135.394,28.439 135.524,28.439 135.682 C 28.439 135.841,28.741 136.067,29.111 136.184 C 29.833 136.413,30.132 136.628,31.558 137.944 C 32.064 138.412,32.687 138.794,32.942 138.794 C 33.196 138.794,33.480 138.991,33.571 139.230 C 33.663 139.470,34.082 139.752,34.502 139.858 C 34.921 139.963,35.191 140.169,35.100 140.316 C 35.009 140.463,35.282 140.670,35.705 140.777 C 36.129 140.883,36.476 141.107,36.476 141.273 C 36.476 141.440,36.654 141.577,36.871 141.577 C 37.088 141.577,37.504 141.855,37.795 142.195 C 38.086 142.535,38.535 142.813,38.791 142.813 C 39.048 142.813,39.258 142.949,39.258 143.116 C 39.258 143.283,39.596 143.504,40.009 143.608 C 40.421 143.711,40.834 143.992,40.926 144.232 C 41.018 144.472,41.256 144.668,41.454 144.668 C 41.652 144.668,42.122 144.999,42.497 145.404 C 42.873 145.810,43.480 146.236,43.847 146.353 C 44.213 146.469,44.513 146.694,44.513 146.852 C 44.513 147.011,44.726 147.141,44.987 147.141 C 45.247 147.141,45.540 147.349,45.638 147.604 C 45.736 147.859,46.011 148.068,46.249 148.068 C 46.488 148.068,46.921 148.346,47.212 148.686 C 47.504 149.026,47.919 149.304,48.137 149.304 C 48.354 149.304,48.532 149.441,48.532 149.608 C 48.532 149.774,48.869 149.996,49.282 150.099 C 49.695 150.203,50.108 150.484,50.200 150.723 C 50.292 150.963,50.580 151.159,50.840 151.159 C 51.101 151.159,51.314 151.289,51.314 151.447 C 51.314 151.606,51.614 151.831,51.980 151.947 C 52.347 152.064,52.938 152.466,53.294 152.841 C 53.650 153.217,54.185 153.613,54.482 153.723 C 54.780 153.832,55.023 154.065,55.023 154.241 C 55.023 154.416,55.232 154.560,55.487 154.560 C 55.742 154.560,55.951 154.689,55.951 154.848 C 55.951 155.006,56.250 155.231,56.617 155.348 C 56.984 155.464,57.575 155.866,57.931 156.242 C 58.287 156.617,58.821 157.014,59.119 157.123 C 59.417 157.233,59.660 157.451,59.660 157.607 C 59.660 157.764,60.008 157.980,60.433 158.087 C 60.858 158.193,61.206 158.417,61.206 158.584 C 61.206 158.751,61.383 158.887,61.601 158.887 C 61.818 158.887,62.234 159.165,62.525 159.505 C 62.816 159.845,63.249 160.124,63.488 160.124 C 63.726 160.124,64.002 160.332,64.099 160.587 C 64.197 160.842,64.490 161.051,64.751 161.051 C 65.011 161.051,65.224 161.187,65.224 161.354 C 65.224 161.521,65.572 161.745,65.997 161.851 C 66.422 161.958,66.770 162.174,66.770 162.331 C 66.770 162.488,67.013 162.706,67.311 162.815 C 67.608 162.925,68.143 163.321,68.499 163.697 C 68.855 164.072,69.446 164.474,69.813 164.591 C 70.179 164.707,70.479 164.932,70.479 165.090 C 70.479 165.249,70.692 165.379,70.953 165.379 C 71.213 165.379,71.506 165.587,71.604 165.842 C 71.702 166.097,71.977 166.306,72.215 166.306 C 72.454 166.306,72.887 166.584,73.178 166.924 C 73.470 167.264,73.885 167.543,74.103 167.543 C 74.320 167.543,74.498 167.679,74.498 167.846 C 74.498 168.013,74.845 168.236,75.270 168.343 C 75.696 168.450,76.043 168.665,76.043 168.822 C 76.043 168.979,76.287 169.197,76.584 169.307 C 76.882 169.416,77.416 169.813,77.772 170.188 C 78.128 170.563,78.720 170.966,79.086 171.082 C 79.453 171.198,79.753 171.423,79.753 171.582 C 79.753 171.740,79.966 171.870,80.226 171.870 C 80.486 171.870,80.775 172.066,80.867 172.306 C 80.959 172.546,81.372 172.826,81.784 172.930 C 82.197 173.034,82.535 173.255,82.535 173.422 C 82.535 173.588,82.713 173.725,82.930 173.725 C 83.147 173.725,83.563 174.003,83.854 174.343 C 84.145 174.683,84.579 174.961,84.817 174.961 C 85.056 174.961,85.331 175.170,85.429 175.425 C 85.526 175.680,85.820 175.889,86.080 175.889 C 86.340 175.889,86.553 176.018,86.553 176.177 C 86.553 176.336,86.853 176.560,87.220 176.677 C 87.586 176.793,88.194 177.220,88.569 177.625 C 88.945 178.030,89.414 178.362,89.612 178.362 C 89.811 178.362,90.048 178.558,90.140 178.797 C 90.232 179.037,90.645 179.318,91.058 179.422 C 91.471 179.525,91.808 179.746,91.808 179.913 C 91.808 180.080,91.986 180.216,92.203 180.216 C 92.421 180.216,92.837 180.495,93.128 180.835 C 93.419 181.175,93.852 181.453,94.091 181.453 C 94.329 181.453,94.604 181.662,94.702 181.917 C 94.800 182.172,95.093 182.380,95.354 182.380 C 95.614 182.380,95.827 182.517,95.827 182.683 C 95.827 182.850,96.165 183.071,96.577 183.175 C 96.990 183.279,97.403 183.559,97.495 183.799 C 97.587 184.039,97.824 184.235,98.023 184.235 C 98.221 184.235,98.691 184.566,99.066 184.972 C 99.442 185.377,100.049 185.803,100.415 185.920 C 100.782 186.036,101.082 186.261,101.082 186.420 C 101.082 186.578,101.295 186.708,101.555 186.708 C 101.816 186.708,102.104 186.904,102.196 187.144 C 102.288 187.383,102.701 187.664,103.114 187.768 C 103.854 187.954,104.287 189.799,103.590 189.799 C 103.439 189.799,103.222 190.425,103.107 191.190 C 102.993 191.955,102.784 192.581,102.644 192.581 C 102.504 192.581,102.294 193.346,102.177 194.281 C 102.060 195.216,101.854 195.981,101.718 195.981 C 101.582 195.981,101.378 196.677,101.266 197.527 C 101.153 198.377,100.936 199.073,100.784 199.073 C 100.632 199.073,100.413 199.838,100.296 200.773 C 100.179 201.708,99.969 202.473,99.829 202.473 C 99.689 202.473,99.480 203.099,99.366 203.864 C 99.251 204.629,99.052 205.255,98.923 205.255 C 98.794 205.255,98.596 205.951,98.484 206.801 C 98.371 207.651,98.160 208.346,98.016 208.346 C 97.871 208.346,97.657 209.111,97.540 210.046 C 97.424 210.981,97.204 211.747,97.052 211.747 C 96.900 211.747,96.683 212.445,96.570 213.299 C 96.456 214.153,96.251 214.921,96.113 215.006 C 95.975 215.092,95.769 215.784,95.655 216.545 C 95.541 217.306,95.342 217.929,95.213 217.929 C 95.085 217.929,94.887 218.624,94.774 219.474 C 94.661 220.325,94.451 221.020,94.306 221.020 C 94.162 221.020,93.948 221.785,93.831 222.720 C 93.714 223.655,93.489 224.420,93.332 224.420 C 93.174 224.420,93.045 224.907,93.045 225.502 C 93.045 226.579,93.052 226.584,94.436 226.584 C 95.201 226.584,95.827 226.708,95.827 226.860 C 95.827 227.011,96.188 227.226,96.629 227.337 C 97.508 227.557,99.536 229.372,99.536 229.938 C 99.536 230.134,99.830 230.294,100.189 230.294 C 100.788 230.294,106.646 224.807,106.646 224.246 C 106.646 224.127,107.898 222.792,109.428 221.279 C 110.958 219.767,112.210 218.400,112.210 218.242 C 112.210 218.084,113.462 216.684,114.992 215.130 C 116.522 213.576,117.774 212.188,117.774 212.045 C 117.774 211.902,118.193 211.394,118.706 210.916 C 121.378 208.421,123.338 206.412,123.338 206.167 C 123.338 206.015,124.590 204.654,126.121 203.141 C 127.651 201.628,128.903 200.289,128.903 200.165 C 128.903 200.041,130.294 198.556,131.994 196.864 C 133.694 195.172,135.085 193.655,135.085 193.493 C 135.085 192.898,135.823 193.228,136.846 194.281 C 137.424 194.876,138.025 195.363,138.181 195.363 C 138.337 195.363,139.428 196.337,140.607 197.527 C 141.785 198.717,142.850 199.691,142.974 199.691 C 143.098 199.691,144.094 200.595,145.188 201.700 C 146.283 202.805,147.308 203.709,147.467 203.709 C 147.626 203.709,148.570 204.544,149.565 205.564 C 150.560 206.584,151.479 207.419,151.608 207.419 C 151.736 207.419,152.805 208.393,153.984 209.583 C 155.162 210.773,156.252 211.747,156.406 211.747 C 156.560 211.747,157.581 212.651,158.676 213.756 C 159.770 214.861,160.755 215.765,160.865 215.765 C 160.974 215.765,162.013 216.739,163.173 217.929 C 164.333 219.119,165.384 220.093,165.509 220.093 C 165.635 220.093,166.572 220.927,167.592 221.947 C 168.612 222.968,169.570 223.802,169.721 223.802 C 169.871 223.802,170.958 224.776,172.137 225.966 C 173.315 227.156,174.380 228.130,174.504 228.130 C 174.628 228.130,175.624 229.034,176.718 230.139 C 177.813 231.244,178.838 232.148,178.997 232.148 C 179.156 232.148,180.100 232.983,181.095 234.003 C 182.090 235.023,183.009 235.858,183.138 235.858 C 183.266 235.858,184.335 236.832,185.514 238.022 C 186.692 239.212,187.816 240.185,188.011 240.185 C 188.205 240.185,189.234 241.090,190.296 242.195 C 191.359 243.300,192.455 244.204,192.732 244.204 C 193.009 244.204,193.156 244.333,193.059 244.491 C 192.961 244.649,193.164 244.867,193.509 244.977 C 193.853 245.086,194.062 245.295,193.972 245.440 C 193.882 245.586,194.099 245.797,194.455 245.910 C 194.810 246.023,195.029 246.187,194.942 246.274 C 194.759 246.457,196.256 247.913,196.627 247.913 C 196.762 247.913,197.507 248.539,198.283 249.304 C 199.572 250.575,200.927 251.135,200.927 250.397 C 200.927 249.941,202.976 247.992,203.694 247.764 C 204.542 247.494,204.552 246.171,203.707 245.903 C 203.366 245.795,202.115 244.742,200.927 243.564 C 199.739 242.386,198.639 241.422,198.481 241.422 C 198.324 241.422,197.360 240.587,196.340 239.567 C 195.320 238.547,194.387 237.713,194.268 237.713 C 194.148 237.713,193.155 236.808,192.061 235.703 C 190.966 234.598,189.945 233.694,189.791 233.694 C 189.637 233.694,188.547 232.720,187.369 231.530 C 186.190 230.340,185.125 229.366,185.001 229.366 C 184.878 229.366,183.881 228.462,182.787 227.357 C 181.693 226.252,180.667 225.348,180.509 225.348 C 180.350 225.348,179.406 224.513,178.411 223.493 C 177.415 222.473,176.496 221.638,176.368 221.638 C 176.239 221.638,175.170 220.665,173.992 219.474 C 172.813 218.284,171.722 217.311,171.568 217.311 C 171.315 217.311,170.631 216.635,168.047 213.833 C 167.616 213.366,167.140 212.983,166.990 212.983 C 166.703 212.983,164.154 210.709,160.878 207.530 C 159.802 206.487,158.844 205.710,158.750 205.805 C 158.655 205.899,158.578 205.814,158.578 205.616 C 158.578 205.417,158.444 205.255,158.279 205.255 C 158.115 205.255,157.017 204.281,155.838 203.091 C 154.660 201.901,153.591 200.927,153.462 200.927 C 153.334 200.927,152.415 200.093,151.419 199.073 C 150.424 198.053,149.480 197.218,149.321 197.218 C 149.163 197.218,148.137 196.314,147.043 195.209 C 145.949 194.104,144.952 193.199,144.829 193.199 C 144.705 193.199,143.640 192.226,142.461 191.036 C 141.283 189.845,140.196 188.872,140.045 188.872 C 139.894 188.872,138.956 188.056,137.959 187.059 C 135.721 184.822,135.025 184.552,133.999 185.525 C 133.582 185.921,133.239 186.360,133.236 186.501 C 133.233 186.642,131.978 188.010,130.448 189.540 C 128.918 191.070,127.666 192.446,127.666 192.597 C 127.666 192.748,126.414 194.110,124.884 195.622 C 123.354 197.135,122.102 198.480,122.102 198.611 C 122.102 198.742,120.711 200.201,119.011 201.855 C 117.311 203.508,115.920 204.996,115.920 205.161 C 115.920 205.327,114.668 206.730,113.138 208.279 C 111.607 209.828,110.355 211.169,110.355 211.259 C 110.355 211.349,109.104 212.711,107.573 214.287 C 106.043 215.863,104.791 217.253,104.791 217.376 C 104.791 217.568,100.518 221.947,100.330 221.947 C 100.293 221.947,100.323 221.530,100.398 221.020 C 100.473 220.510,100.652 220.093,100.797 220.093 C 100.942 220.093,101.153 219.397,101.266 218.547 C 101.378 217.697,101.582 217.002,101.718 217.002 C 101.854 217.002,102.060 216.236,102.177 215.301 C 102.294 214.366,102.497 213.601,102.628 213.601 C 102.759 213.601,102.960 212.975,103.075 212.210 C 103.190 211.445,103.398 210.819,103.538 210.819 C 103.678 210.819,103.888 210.054,104.005 209.119 C 104.122 208.184,104.329 207.419,104.465 207.419 C 104.601 207.419,104.804 206.723,104.917 205.873 C 105.029 205.023,105.246 204.328,105.398 204.328 C 105.550 204.328,105.770 203.563,105.887 202.628 C 106.003 201.692,106.214 200.927,106.354 200.927 C 106.494 200.927,106.702 200.301,106.817 199.536 C 106.932 198.771,107.131 198.145,107.260 198.145 C 107.388 198.145,107.586 197.450,107.699 196.600 C 107.812 195.750,108.022 195.054,108.167 195.054 C 108.311 195.054,108.525 194.289,108.642 193.354 C 108.759 192.419,108.975 191.654,109.122 191.654 C 109.270 191.654,109.488 190.993,109.607 190.185 C 109.726 189.378,109.926 188.648,110.051 188.563 C 111.092 187.859,110.470 184.853,109.285 184.853 C 109.060 184.853,108.796 184.645,108.698 184.389 C 108.600 184.134,108.358 183.926,108.160 183.926 C 107.961 183.926,107.492 183.594,107.116 183.189 C 106.741 182.784,106.134 182.357,105.767 182.241 C 105.400 182.125,105.100 181.900,105.100 181.741 C 105.100 181.583,104.887 181.453,104.627 181.453 C 104.367 181.453,104.074 181.244,103.976 180.989 C 103.878 180.734,103.603 180.526,103.364 180.526 C 103.126 180.526,102.692 180.247,102.401 179.907 C 102.110 179.567,101.694 179.289,101.477 179.289 C 101.260 179.289,101.082 179.153,101.082 178.986 C 101.082 178.819,100.744 178.598,100.331 178.494 C 99.919 178.391,99.506 178.110,99.414 177.870 C 99.322 177.630,99.084 177.434,98.886 177.434 C 98.688 177.434,98.218 177.103,97.843 176.698 C 97.467 176.293,96.860 175.866,96.493 175.749 C 96.127 175.633,95.827 175.408,95.827 175.250 C 95.827 175.091,95.614 174.961,95.354 174.961 C 95.093 174.961,94.805 174.765,94.713 174.526 C 94.621 174.286,94.208 174.005,93.795 173.901 C 93.383 173.798,93.045 173.577,93.045 173.410 C 93.045 173.243,92.867 173.107,92.650 173.107 C 92.433 173.107,92.017 172.828,91.726 172.488 C 91.434 172.148,91.001 171.870,90.763 171.870 C 90.524 171.870,90.249 171.662,90.151 171.406 C 90.053 171.151,89.760 170.943,89.500 170.943 C 89.239 170.943,89.026 170.813,89.026 170.655 C 89.026 170.496,88.726 170.271,88.360 170.155 C 87.993 170.038,87.402 169.636,87.046 169.261 C 86.690 168.885,86.155 168.489,85.858 168.379 C 85.560 168.270,85.317 168.052,85.317 167.895 C 85.317 167.738,84.969 167.522,84.544 167.416 C 84.119 167.309,83.771 167.085,83.771 166.918 C 83.771 166.752,83.594 166.615,83.376 166.615 C 83.159 166.615,82.743 166.337,82.452 165.997 C 82.161 165.657,81.727 165.379,81.489 165.379 C 81.250 165.379,80.975 165.170,80.877 164.915 C 80.780 164.660,80.486 164.451,80.226 164.451 C 79.966 164.451,79.753 164.315,79.753 164.148 C 79.753 163.981,79.405 163.758,78.980 163.651 C 78.555 163.544,78.207 163.329,78.207 163.172 C 78.207 163.015,77.964 162.797,77.666 162.687 C 77.369 162.578,76.834 162.181,76.478 161.806 C 76.122 161.430,75.531 161.028,75.164 160.912 C 74.798 160.795,74.498 160.570,74.498 160.412 C 74.498 160.253,74.285 160.124,74.024 160.124 C 73.764 160.124,73.471 159.915,73.373 159.660 C 73.275 159.405,73.000 159.196,72.761 159.196 C 72.523 159.196,72.090 158.918,71.798 158.578 C 71.507 158.238,71.091 157.960,70.874 157.960 C 70.657 157.960,70.479 157.823,70.479 157.657 C 70.479 157.490,70.131 157.266,69.706 157.159 C 69.281 157.053,68.934 156.837,68.934 156.680 C 68.934 156.523,68.690 156.305,68.393 156.196 C 68.095 156.086,67.564 155.708,67.213 155.355 C 66.443 154.581,65.568 153.987,64.838 153.742 C 64.540 153.642,64.297 153.434,64.297 153.279 C 64.297 153.125,63.984 152.863,63.601 152.698 C 62.611 152.270,61.806 151.722,61.071 150.974 C 60.720 150.618,60.271 150.382,60.073 150.450 C 59.875 150.519,59.621 150.287,59.509 149.935 C 59.398 149.583,59.198 149.362,59.066 149.444 C 58.934 149.525,58.562 149.347,58.238 149.046 C 57.915 148.746,57.407 148.408,57.110 148.294 C 56.812 148.180,56.569 147.958,56.569 147.799 C 56.569 147.640,56.151 147.365,55.641 147.187 C 55.131 147.009,54.714 146.717,54.714 146.538 C 54.714 146.360,54.505 146.213,54.250 146.213 C 53.995 146.213,53.787 146.084,53.787 145.925 C 53.787 145.766,53.474 145.538,53.091 145.417 C 52.457 145.217,52.050 144.911,50.386 143.384 C 50.080 143.104,49.537 142.781,49.180 142.668 C 48.824 142.555,48.532 142.332,48.532 142.174 C 48.532 142.015,48.354 141.886,48.137 141.886 C 47.919 141.886,47.504 141.607,47.212 141.267 C 46.921 140.927,46.473 140.649,46.216 140.649 C 45.960 140.649,45.750 140.507,45.750 140.332 C 45.750 140.158,45.437 139.880,45.054 139.715 C 44.014 139.265,43.152 138.687,42.875 138.253 C 42.739 138.041,42.450 137.867,42.233 137.867 C 42.016 137.867,41.512 137.519,41.113 137.094 C 40.714 136.669,40.198 136.321,39.967 136.321 C 39.737 136.321,39.473 136.125,39.381 135.886 C 39.289 135.646,38.876 135.365,38.463 135.262 C 38.050 135.158,37.713 134.937,37.713 134.770 C 37.713 134.603,37.535 134.467,37.318 134.467 C 37.100 134.467,36.684 134.189,36.393 133.849 C 36.102 133.509,35.669 133.230,35.430 133.230 C 35.192 133.230,34.917 133.022,34.819 132.767 C 34.721 132.512,34.428 132.303,34.167 132.303 C 33.907 132.303,33.694 132.173,33.694 132.015 C 33.694 131.856,33.394 131.631,33.027 131.515 C 32.661 131.398,32.070 130.996,31.714 130.621 C 31.358 130.246,30.823 129.849,30.526 129.739 C 30.228 129.630,29.985 129.412,29.985 129.255 C 29.985 129.098,29.637 128.882,29.212 128.776 C 28.787 128.669,28.439 128.445,28.439 128.279 C 28.439 128.112,28.226 127.975,27.966 127.975 C 27.705 127.975,27.412 127.767,27.314 127.512 C 27.216 127.257,26.941 127.048,26.703 127.048 C 26.464 127.048,26.031 126.770,25.740 126.430 C 25.449 126.090,25.033 125.811,24.815 125.811 C 24.598 125.811,24.420 125.675,24.420 125.508 C 24.420 125.341,24.083 125.120,23.670 125.017 C 23.257 124.913,22.844 124.632,22.752 124.393 C 22.660 124.153,22.423 123.957,22.224 123.957 C 22.026 123.957,21.557 123.625,21.181 123.220 C 20.806 122.815,20.198 122.388,19.832 122.272 C 19.465 122.156,19.165 121.931,19.165 121.772 C 19.165 121.614,18.964 121.484,18.717 121.484 C 18.470 121.484,18.158 121.296,18.022 121.065 C 17.886 120.835,17.566 120.568,17.311 120.472 C 17.056 120.375,21.124 120.285,26.352 120.272 C 31.580 120.258,35.858 120.125,35.858 119.976 C 35.858 119.824,49.437 119.604,66.770 119.474 C 84.102 119.345,97.682 119.125,97.682 118.973 C 97.682 118.824,99.484 118.702,101.686 118.702 L 105.691 118.702 105.894 117.620 C 106.005 117.025,106.204 116.538,106.336 116.538 C 106.467 116.538,106.670 115.773,106.787 114.838 C 106.904 113.903,107.111 113.138,107.247 113.138 C 107.383 113.138,107.586 112.442,107.699 111.592 C 107.812 110.742,108.022 110.046,108.167 110.046 C 108.311 110.046,108.525 109.281,108.642 108.346 C 108.759 107.411,108.966 106.646,109.101 106.646 C 109.237 106.646,109.441 105.951,109.554 105.100 C 109.666 104.250,109.883 103.555,110.035 103.555 C 110.187 103.555,110.407 102.790,110.523 101.855 C 110.640 100.920,110.854 100.155,110.999 100.155 C 111.143 100.155,111.354 99.459,111.467 98.609 C 111.579 97.759,111.783 97.063,111.919 97.063 C 112.055 97.063,112.261 96.298,112.378 95.363 C 112.495 94.428,112.704 93.663,112.842 93.663 C 112.980 93.663,113.189 92.898,113.305 91.963 C 113.422 91.028,113.636 90.263,113.781 90.263 C 113.925 90.263,114.136 89.567,114.249 88.717 C 114.361 87.867,114.559 87.172,114.688 87.172 C 114.817 87.172,115.016 86.546,115.131 85.781 C 115.245 85.015,115.454 84.389,115.594 84.389 C 115.734 84.389,115.944 83.624,116.061 82.689 C 116.178 81.754,116.384 80.989,116.520 80.989 C 116.656 80.989,116.860 80.294,116.972 79.444 C 117.085 78.594,117.296 77.898,117.440 77.898 C 117.585 77.898,117.799 77.133,117.916 76.198 C 118.032 75.263,118.239 74.498,118.375 74.498 C 118.511 74.498,118.714 73.802,118.827 72.952 C 118.940 72.102,119.166 71.406,119.331 71.406 C 119.495 71.406,119.629 71.059,119.629 70.634 C 119.629 70.209,119.750 69.861,119.898 69.861 C 120.046 69.861,120.260 69.165,120.373 68.315 C 120.485 67.465,120.712 66.770,120.876 66.770 C 122.191 66.770,121.025 65.293,119.575 65.121 C 118.695 65.017,117.884 64.784,117.773 64.603 C 117.518 64.192,115.537 63.852,115.224 64.167 M161.231 84.039 C 161.140 84.186,160.586 84.384,160.000 84.479 C 158.698 84.690,157.784 85.553,157.502 86.834 C 157.386 87.363,157.163 87.716,157.007 87.620 C 156.848 87.521,156.723 88.197,156.723 89.163 C 156.723 90.108,156.847 90.881,156.999 90.881 C 157.151 90.881,157.362 91.231,157.470 91.659 C 157.703 92.587,158.570 93.663,159.085 93.663 C 159.288 93.663,159.512 93.837,159.583 94.049 C 159.671 94.315,160.471 94.436,162.133 94.436 C 163.795 94.436,164.595 94.315,164.683 94.049 C 164.754 93.837,164.978 93.663,165.181 93.663 C 165.788 93.663,166.653 92.434,166.835 91.312 C 166.929 90.735,167.126 90.263,167.274 90.263 C 167.422 90.263,167.543 89.776,167.543 89.181 C 167.543 88.586,167.419 88.099,167.268 88.099 C 167.117 88.099,166.900 87.604,166.787 87.000 C 166.524 85.601,165.623 84.699,164.266 84.479 C 163.680 84.384,163.125 84.186,163.035 84.039 C 162.944 83.892,162.538 83.771,162.133 83.771 C 161.728 83.771,161.322 83.892,161.231 84.039 M249.150 93.931 C 249.150 94.079,248.570 94.278,247.861 94.373 C 247.152 94.468,246.450 94.764,246.300 95.032 C 246.150 95.299,245.885 95.518,245.710 95.518 C 245.284 95.518,243.586 97.236,243.586 97.668 C 243.586 97.856,243.376 98.090,243.120 98.189 C 242.864 98.287,242.568 98.909,242.463 99.570 C 242.357 100.232,242.149 100.773,242.001 100.773 C 241.852 100.773,241.731 102.094,241.731 103.709 C 241.731 105.325,241.852 106.646,242.001 106.646 C 242.149 106.646,242.357 107.187,242.463 107.849 C 242.568 108.510,242.864 109.132,243.120 109.230 C 243.376 109.328,243.586 109.563,243.586 109.751 C 243.586 110.190,245.119 111.719,245.827 111.987 C 246.124 112.099,246.368 112.318,246.368 112.475 C 246.368 112.631,246.994 112.852,247.759 112.967 C 248.524 113.082,249.150 113.306,249.150 113.466 C 249.150 113.625,250.193 113.756,251.468 113.756 C 252.743 113.756,253.787 113.632,253.787 113.482 C 253.787 113.331,254.413 113.114,255.178 112.999 C 255.943 112.884,256.569 112.669,256.569 112.521 C 256.569 112.373,256.854 112.161,257.202 112.051 C 258.057 111.779,259.865 109.937,260.140 109.057 C 260.262 108.666,260.517 108.247,260.706 108.126 C 261.181 107.822,261.181 99.597,260.706 99.293 C 260.517 99.172,260.262 98.753,260.140 98.362 C 259.903 97.605,257.972 95.518,257.508 95.518 C 257.356 95.518,257.009 95.295,256.737 95.024 C 256.465 94.752,255.690 94.455,255.015 94.365 C 254.339 94.274,253.787 94.079,253.787 93.931 C 253.787 93.784,252.743 93.663,251.468 93.663 C 250.193 93.663,249.150 93.784,249.150 93.931 M165.807 95.653 C 165.704 95.922,164.982 96.180,163.982 96.305 C 162.961 96.432,162.261 96.685,162.154 96.966 C 161.925 97.561,162.293 99.845,162.617 99.845 C 162.755 99.845,162.962 100.471,163.076 101.236 C 163.191 102.002,163.393 102.628,163.525 102.628 C 163.656 102.628,163.856 103.114,163.967 103.709 C 164.079 104.304,164.287 104.791,164.430 104.791 C 164.573 104.791,164.784 105.417,164.899 106.182 C 165.014 106.947,165.222 107.573,165.363 107.573 C 165.503 107.573,165.711 108.199,165.826 108.964 C 165.941 109.730,166.148 110.355,166.285 110.355 C 166.423 110.355,166.625 110.912,166.734 111.592 C 166.843 112.272,167.061 112.828,167.218 112.828 C 167.376 112.828,167.598 113.454,167.713 114.219 C 167.828 114.985,168.037 115.611,168.177 115.611 C 168.317 115.611,168.526 116.236,168.641 117.002 C 168.755 117.767,168.957 118.393,169.089 118.393 C 169.221 118.393,169.420 118.879,169.531 119.474 C 169.643 120.070,169.851 120.556,169.994 120.556 C 170.137 120.556,170.348 121.182,170.463 121.947 C 170.578 122.713,170.784 123.338,170.922 123.338 C 171.060 123.338,171.262 123.895,171.371 124.575 L 171.568 125.811 224.733 125.811 L 277.898 125.811 277.898 123.029 L 277.898 120.247 226.893 120.247 L 175.889 120.247 175.889 119.474 C 175.889 119.049,175.758 118.702,175.599 118.702 C 175.439 118.702,175.214 118.076,175.100 117.311 C 174.985 116.546,174.783 115.920,174.652 115.920 C 174.520 115.920,174.321 115.433,174.209 114.838 C 174.097 114.243,173.889 113.756,173.746 113.756 C 173.603 113.756,173.392 113.130,173.277 112.365 C 173.163 111.600,172.954 110.974,172.814 110.974 C 172.673 110.974,172.465 110.348,172.350 109.583 C 172.235 108.818,172.029 108.192,171.891 108.192 C 171.753 108.192,171.551 107.635,171.442 106.955 C 171.334 106.275,171.116 105.719,170.958 105.719 C 170.801 105.719,170.578 105.093,170.463 104.328 C 170.348 103.563,170.140 102.937,169.999 102.937 C 169.859 102.937,169.650 102.311,169.536 101.546 C 169.421 100.781,169.212 100.155,169.072 100.155 C 168.932 100.155,168.723 99.529,168.608 98.764 C 168.494 97.998,168.283 97.372,168.140 97.372 C 167.997 97.372,167.788 96.886,167.677 96.291 C 167.460 95.135,166.174 94.697,165.807 95.653 M252.859 99.536 C 252.859 99.706,253.048 99.845,253.278 99.845 C 254.047 99.845,255.369 101.379,255.547 102.477 C 255.644 103.070,255.878 103.557,256.068 103.560 C 256.316 103.563,256.318 103.629,256.076 103.791 C 255.891 103.916,255.650 104.475,255.541 105.033 C 255.319 106.176,253.989 107.573,253.123 107.573 C 252.808 107.573,252.550 107.713,252.550 107.883 C 252.550 108.053,252.133 108.192,251.623 108.192 C 251.113 108.192,250.696 108.068,250.696 107.916 C 250.696 107.764,250.346 107.553,249.918 107.445 C 248.971 107.208,247.913 106.342,247.913 105.805 C 247.913 105.587,247.774 105.410,247.604 105.410 C 247.434 105.410,247.295 104.645,247.295 103.709 C 247.295 102.774,247.434 102.009,247.604 102.009 C 247.774 102.009,247.916 101.835,247.919 101.623 C 247.925 101.152,249.260 99.845,249.734 99.845 C 249.923 99.845,250.077 99.706,250.077 99.536 C 250.077 99.366,250.703 99.227,251.468 99.227 C 252.233 99.227,252.859 99.366,252.859 99.536 M283.153 118.083 C 283.153 118.253,282.993 118.393,282.798 118.393 C 281.022 118.393,279.001 124.582,280.603 125.116 C 280.815 125.187,280.989 125.421,280.989 125.637 C 280.989 127.012,282.584 127.821,285.296 127.821 L 287.944 127.821 289.172 126.584 C 290.621 125.126,291.039 121.289,289.876 120.126 C 289.579 119.828,289.335 119.397,289.335 119.168 C 289.335 118.938,288.918 118.659,288.408 118.547 C 287.898 118.435,287.481 118.215,287.481 118.059 C 287.481 117.902,286.507 117.774,285.317 117.774 C 284.080 117.774,283.153 117.907,283.153 118.083 M82.303 132.512 C 81.580 132.586,80.989 132.764,80.989 132.905 C 80.989 133.047,80.630 133.254,80.190 133.364 C 79.751 133.474,79.074 133.907,78.686 134.325 C 78.299 134.743,77.824 135.085,77.631 135.085 C 77.438 135.085,77.280 135.263,77.280 135.480 C 77.280 135.697,77.002 136.113,76.662 136.404 C 76.321 136.695,76.043 137.132,76.043 137.375 C 76.043 137.617,75.869 137.874,75.657 137.945 C 74.976 138.172,75.121 146.792,75.811 147.178 C 76.109 147.344,76.352 147.624,76.352 147.799 C 76.352 148.317,78.938 150.746,79.764 151.004 C 80.183 151.135,80.625 151.398,80.746 151.587 C 80.889 151.811,82.332 151.932,84.853 151.932 C 87.374 151.932,88.817 151.811,88.960 151.587 C 89.082 151.398,89.507 151.141,89.906 151.016 C 90.778 150.744,93.045 148.476,93.045 147.876 C 93.045 147.642,93.173 147.450,93.329 147.450 C 93.486 147.450,93.706 147.032,93.818 146.522 C 93.930 146.012,94.149 145.595,94.306 145.595 C 94.462 145.595,94.590 144.134,94.590 142.349 C 94.590 140.564,94.469 139.104,94.320 139.104 C 94.171 139.104,93.962 138.667,93.855 138.134 C 93.749 137.600,93.314 136.842,92.889 136.448 C 92.465 136.055,92.117 135.587,92.117 135.409 C 92.117 135.231,91.972 135.085,91.794 135.085 C 91.615 135.085,91.163 134.757,90.789 134.355 C 90.415 133.954,89.760 133.518,89.335 133.386 C 88.910 133.255,88.490 133.035,88.402 132.899 C 88.202 132.590,84.075 132.328,82.303 132.512 M86.553 138.482 C 86.638 138.608,87.007 138.804,87.373 138.918 C 87.738 139.032,88.123 139.468,88.229 139.887 C 88.334 140.306,88.556 140.649,88.723 140.649 C 88.890 140.649,89.026 141.345,89.026 142.195 C 89.026 143.045,88.887 143.740,88.717 143.740 C 88.547 143.740,88.406 143.984,88.403 144.281 C 88.380 146.543,83.844 147.215,81.826 145.255 C 81.091 144.541,80.680 143.857,80.680 143.348 C 80.680 142.912,80.506 142.474,80.294 142.375 C 79.985 142.231,79.985 142.159,80.294 142.014 C 80.506 141.915,80.680 141.577,80.680 141.264 C 80.680 140.950,80.862 140.509,81.084 140.285 C 81.306 140.060,81.580 139.633,81.692 139.335 C 81.805 139.038,82.110 138.794,82.371 138.794 C 82.631 138.794,82.844 138.665,82.844 138.506 C 82.844 137.910,86.152 137.889,86.553 138.482 M167.543 146.865 C 166.777 147.230,166.105 147.650,166.048 147.799 C 165.992 147.947,165.783 148.070,165.585 148.073 C 165.053 148.081,163.833 149.466,163.833 150.062 C 163.833 150.345,163.694 150.491,163.524 150.386 C 163.354 150.281,163.214 150.377,163.213 150.600 C 163.212 150.823,162.976 151.422,162.689 151.932 C 162.283 152.652,162.139 153.879,162.044 157.419 L 161.922 161.978 165.814 161.978 L 169.706 161.978 169.706 159.042 C 169.706 157.290,169.831 156.105,170.015 156.105 C 170.185 156.105,170.325 155.918,170.325 155.690 C 170.325 153.756,173.651 152.913,175.103 154.479 C 177.016 156.541,176.477 164.760,174.429 164.760 C 174.212 164.760,174.034 164.900,174.034 165.070 C 174.034 165.246,173.107 165.379,171.870 165.379 L 169.706 165.379 169.706 169.043 L 169.706 172.708 171.791 172.903 C 172.938 173.010,173.923 173.239,173.981 173.411 C 174.038 173.584,174.287 173.725,174.533 173.725 C 174.779 173.725,175.071 173.968,175.180 174.266 C 175.290 174.563,175.529 174.906,175.712 175.028 C 177.040 175.912,175.860 186.090,174.429 186.090 C 174.212 186.090,174.034 186.229,174.034 186.399 C 174.034 186.569,173.617 186.708,173.107 186.708 C 172.597 186.708,172.179 186.584,172.179 186.432 C 172.179 186.281,171.834 186.070,171.411 185.964 C 170.937 185.845,170.569 185.477,170.450 185.003 C 170.344 184.581,170.134 184.235,169.982 184.235 C 169.830 184.235,169.706 182.496,169.706 180.371 L 169.706 176.507 165.533 176.507 L 161.360 176.507 161.360 180.371 C 161.360 182.496,161.480 184.235,161.626 184.235 C 161.772 184.235,161.973 185.022,162.072 185.983 C 162.172 186.945,162.381 187.814,162.538 187.915 C 162.694 188.016,162.929 188.440,163.059 188.857 C 163.190 189.274,163.487 189.806,163.719 190.039 C 163.952 190.271,164.142 190.658,164.142 190.897 C 164.142 191.137,164.480 191.418,164.893 191.521 C 165.305 191.625,165.718 191.906,165.810 192.145 C 165.902 192.385,166.191 192.581,166.451 192.581 C 166.711 192.581,166.924 192.719,166.924 192.887 C 166.924 193.055,167.481 193.281,168.161 193.390 C 168.841 193.499,169.397 193.709,169.397 193.857 C 169.397 194.005,171.136 194.127,173.261 194.127 C 175.386 194.127,177.125 194.005,177.125 193.857 C 177.125 193.709,177.682 193.499,178.362 193.390 C 179.042 193.281,179.598 193.055,179.598 192.887 C 179.598 192.719,179.754 192.581,179.944 192.581 C 180.393 192.581,182.689 190.285,182.689 189.835 C 182.689 189.645,182.822 189.490,182.984 189.490 C 183.147 189.490,183.375 188.968,183.493 188.331 C 183.610 187.693,183.860 187.072,184.048 186.951 C 184.520 186.646,184.524 174.100,184.052 173.791 C 183.866 173.670,183.626 173.119,183.519 172.568 C 183.397 171.940,182.790 171.055,181.893 170.195 C 180.605 168.961,180.326 168.161,181.184 168.161 C 181.591 168.161,182.206 167.530,182.465 166.847 C 182.578 166.549,182.807 166.306,182.975 166.306 C 183.142 166.306,183.375 165.784,183.493 165.147 C 183.610 164.509,183.860 163.888,184.048 163.767 C 184.526 163.458,184.520 153.383,184.042 153.080 C 183.851 152.959,183.596 152.407,183.476 151.855 C 183.357 151.302,183.145 150.850,183.007 150.850 C 182.869 150.850,182.668 150.497,182.559 150.065 C 182.451 149.633,182.227 149.363,182.062 149.465 C 181.897 149.567,181.762 149.523,181.762 149.368 C 181.762 148.876,180.343 147.531,179.569 147.290 C 179.160 147.162,178.726 146.902,178.605 146.713 C 178.141 145.987,169.123 146.111,167.543 146.865 M285.858 146.435 C 285.390 146.506,285.008 146.678,285.008 146.819 C 285.008 146.959,284.656 147.162,284.227 147.270 C 283.439 147.467,280.989 149.750,280.989 150.287 C 280.989 150.447,280.853 150.493,280.686 150.390 C 280.517 150.285,280.295 150.755,280.183 151.454 C 280.073 152.142,279.861 152.705,279.713 152.705 C 279.565 152.705,279.444 153.094,279.444 153.570 C 279.444 154.046,279.300 154.580,279.123 154.756 C 278.930 154.949,278.838 156.414,278.892 158.450 L 278.980 161.824 282.921 161.910 L 286.862 161.997 286.862 159.206 C 286.862 157.551,286.988 156.414,287.172 156.414 C 287.342 156.414,287.481 156.157,287.481 155.843 C 287.481 153.984,291.155 152.936,292.603 154.382 C 294.265 156.041,293.405 164.730,291.577 164.755 C 291.364 164.758,291.190 164.900,291.190 165.070 C 291.190 165.246,290.263 165.379,289.026 165.379 L 286.862 165.379 286.862 169.044 L 286.862 172.709 289.055 172.913 C 290.965 173.090,291.373 173.242,292.223 174.091 L 293.199 175.067 293.299 179.830 L 293.398 184.593 292.309 185.651 C 291.273 186.657,289.335 187.166,289.335 186.432 C 289.335 186.281,288.989 186.070,288.565 185.963 C 287.956 185.810,287.754 185.514,287.599 184.539 C 287.490 183.862,287.280 183.308,287.132 183.308 C 286.984 183.308,286.862 181.777,286.862 179.907 L 286.862 176.507 282.844 176.507 L 278.825 176.507 278.825 181.298 C 278.825 184.286,278.942 186.090,279.134 186.090 C 279.304 186.090,279.444 186.437,279.444 186.862 C 279.444 187.287,279.565 187.635,279.714 187.635 C 279.863 187.635,280.069 188.058,280.172 188.575 C 280.359 189.508,283.068 192.581,283.704 192.581 C 283.883 192.581,284.078 192.729,284.139 192.910 C 284.199 193.091,284.836 193.318,285.555 193.415 C 286.274 193.511,286.862 193.711,286.862 193.858 C 286.862 194.006,288.532 194.127,290.572 194.127 C 292.612 194.127,294.281 194.005,294.281 193.857 C 294.281 193.709,294.838 193.499,295.518 193.390 C 296.198 193.281,296.754 193.055,296.754 192.887 C 296.754 192.719,296.912 192.581,297.105 192.581 C 297.714 192.581,300.427 189.591,300.652 188.671 C 300.771 188.186,301.020 187.691,301.207 187.569 C 301.679 187.262,301.679 173.480,301.207 173.173 C 301.020 173.051,300.774 172.570,300.660 172.102 C 300.546 171.634,300.315 171.252,300.149 171.252 C 299.982 171.252,299.845 171.098,299.845 170.909 C 299.845 170.434,298.539 169.100,298.068 169.093 C 297.855 169.091,297.682 168.949,297.682 168.779 C 297.682 168.609,297.841 168.470,298.037 168.470 C 298.629 168.470,300.423 166.422,300.653 165.485 C 300.771 165.001,301.020 164.507,301.207 164.385 C 301.678 164.078,301.676 153.075,301.204 152.771 C 301.016 152.649,300.765 152.025,300.647 151.382 C 300.529 150.740,300.310 150.290,300.161 150.382 C 300.012 150.474,299.796 150.255,299.682 149.894 C 299.405 149.021,298.567 148.068,298.077 148.068 C 297.859 148.068,297.682 147.955,297.682 147.817 C 297.682 146.607,290.365 145.752,285.858 146.435 M323.648 151.314 C 323.648 154.119,323.526 156.414,323.377 156.414 C 323.228 156.414,323.003 161.770,322.877 168.315 C 322.751 174.861,322.545 180.216,322.420 180.216 C 322.294 180.216,322.108 181.216,322.005 182.438 C 321.877 183.971,321.671 184.742,321.342 184.926 C 321.080 185.073,320.866 185.395,320.866 185.641 C 320.866 185.979,320.445 186.090,319.165 186.090 L 317.465 186.090 317.465 192.890 L 317.465 199.691 321.638 199.691 L 325.811 199.691 325.811 196.600 L 325.811 193.509 333.076 193.509 L 340.340 193.509 340.340 196.600 L 340.340 199.691 344.513 199.691 L 348.686 199.691 348.686 192.890 L 348.686 186.090 346.986 186.090 L 345.286 186.090 345.286 166.151 L 345.286 146.213 334.467 146.213 L 323.648 146.213 323.648 151.314 M369.706 146.832 C 369.706 147.172,369.585 147.450,369.437 147.450 C 369.289 147.450,369.069 148.841,368.949 150.541 C 368.828 152.241,368.613 153.632,368.470 153.632 C 368.327 153.632,368.112 155.023,367.991 156.723 C 367.871 158.423,367.666 159.815,367.535 159.815 C 367.405 159.815,367.200 161.066,367.079 162.597 C 366.958 164.127,366.747 165.379,366.611 165.379 C 366.475 165.379,366.265 166.700,366.144 168.315 C 366.022 169.930,365.816 171.252,365.684 171.252 C 365.552 171.252,365.345 172.504,365.224 174.034 C 365.103 175.564,364.898 176.816,364.767 176.816 C 364.637 176.816,364.432 178.207,364.312 179.907 C 364.191 181.607,363.981 182.998,363.845 182.998 C 363.709 182.998,363.496 184.216,363.373 185.703 C 363.249 187.191,363.045 188.478,362.918 188.563 C 362.791 188.648,362.591 189.795,362.474 191.113 L 362.262 193.509 366.405 193.509 L 370.548 193.509 370.743 191.886 C 370.850 190.993,370.939 189.741,370.940 189.104 C 370.942 188.466,371.082 187.944,371.252 187.944 C 371.422 187.944,371.561 187.318,371.561 186.553 L 371.561 185.162 375.701 185.162 L 379.842 185.162 380.062 187.944 C 380.183 189.474,380.406 190.726,380.558 190.726 C 380.710 190.726,380.835 191.352,380.835 192.117 L 380.835 193.509 385.008 193.509 L 389.181 193.509 389.181 192.427 C 389.181 191.832,389.056 191.345,388.905 191.345 C 388.753 191.345,388.529 190.093,388.408 188.563 C 388.287 187.032,388.081 185.781,387.951 185.781 C 387.821 185.781,387.616 184.389,387.496 182.689 C 387.375 180.989,387.162 179.598,387.021 179.598 C 386.881 179.598,386.667 178.277,386.545 176.662 C 386.424 175.046,386.217 173.725,386.086 173.725 C 385.954 173.725,385.747 172.473,385.626 170.943 C 385.505 169.413,385.293 168.161,385.154 168.161 C 385.016 168.161,384.804 166.770,384.684 165.070 C 384.563 163.369,384.358 161.978,384.228 161.978 C 384.098 161.978,383.892 160.726,383.771 159.196 C 383.650 157.666,383.445 156.414,383.315 156.414 C 383.185 156.414,382.979 155.022,382.859 153.320 C 382.735 151.572,382.516 150.303,382.355 150.402 C 382.199 150.498,382.070 150.117,382.068 149.555 C 382.066 148.992,381.978 148.010,381.873 147.372 L 381.681 146.213 375.694 146.213 C 369.912 146.213,369.706 146.235,369.706 146.832 M201.855 170.038 L 201.855 193.553 210.367 193.453 C 216.096 193.386,218.951 193.243,219.100 193.015 C 219.221 192.829,219.702 192.583,220.170 192.468 C 220.638 192.354,221.020 192.124,221.020 191.957 C 221.020 191.790,221.174 191.654,221.363 191.654 C 221.838 191.654,223.172 190.348,223.179 189.876 C 223.182 189.664,223.314 189.490,223.472 189.490 C 223.631 189.490,223.858 189.177,223.978 188.794 C 224.097 188.412,224.350 188.000,224.539 187.879 C 224.777 187.727,224.884 185.393,224.884 180.371 C 224.884 175.350,224.777 173.016,224.539 172.864 C 224.350 172.742,224.089 172.305,223.960 171.893 C 223.690 171.029,221.902 169.088,221.375 169.088 C 221.180 169.088,221.020 168.879,221.020 168.624 C 221.020 168.369,221.159 168.161,221.329 168.161 C 221.805 168.161,222.788 167.069,223.041 166.259 C 223.165 165.860,223.407 165.444,223.577 165.334 C 223.747 165.225,223.955 164.425,224.038 163.557 C 224.122 162.689,224.311 161.978,224.460 161.978 C 224.608 161.978,224.730 160.448,224.730 158.578 C 224.730 156.708,224.610 155.178,224.464 155.178 C 224.317 155.178,224.121 154.447,224.026 153.555 C 223.789 151.305,221.678 148.068,220.448 148.068 C 220.253 148.068,220.093 147.931,220.093 147.763 C 220.093 147.595,219.533 147.368,218.849 147.258 C 218.166 147.149,217.531 146.939,217.440 146.791 C 217.349 146.643,213.805 146.522,209.564 146.522 L 201.855 146.522 201.855 170.038 M242.555 146.728 C 242.442 146.842,242.349 157.414,242.349 170.222 L 242.349 193.509 252.550 193.509 L 262.751 193.509 262.751 189.799 L 262.751 186.090 256.414 186.090 L 250.077 186.090 250.077 179.907 L 250.077 173.725 255.178 173.725 L 260.278 173.725 260.278 170.015 L 260.278 166.306 255.178 166.306 L 250.077 166.306 250.077 160.124 L 250.077 153.941 256.414 153.941 L 262.751 153.941 262.751 150.232 L 262.751 146.522 252.756 146.522 C 247.259 146.522,242.669 146.615,242.555 146.728 M214.529 154.250 C 214.529 154.420,214.726 154.560,214.968 154.560 C 215.209 154.560,215.498 154.977,215.611 155.487 C 215.723 155.997,215.942 156.414,216.099 156.414 C 216.255 156.414,216.383 157.875,216.383 159.660 C 216.383 161.445,216.259 162.906,216.108 162.906 C 215.956 162.906,215.745 163.251,215.639 163.674 C 215.520 164.148,215.152 164.516,214.678 164.635 C 214.256 164.741,213.910 164.951,213.910 165.103 C 213.910 165.255,213.076 165.379,212.056 165.379 L 210.201 165.379 210.201 159.660 L 210.201 153.941 212.365 153.941 C 213.601 153.941,214.529 154.074,214.529 154.250 M336.940 170.015 L 336.940 186.090 333.076 186.090 C 328.947 186.090,328.947 186.090,329.721 185.316 C 330.116 184.920,330.263 183.985,330.381 181.121 C 330.465 179.093,330.638 177.434,330.766 177.434 C 330.893 177.434,331.101 173.122,331.226 167.852 C 331.351 162.581,331.575 158.269,331.724 158.269 C 331.872 158.269,331.994 157.295,331.994 156.105 L 331.994 153.941 334.467 153.941 L 336.940 153.941 336.940 170.015 M376.337 163.215 C 376.458 164.915,376.669 166.306,376.808 166.306 C 376.946 166.306,377.160 167.732,377.283 169.474 C 377.407 171.217,377.612 172.713,377.740 172.798 C 377.867 172.883,378.071 174.030,378.193 175.348 L 378.414 177.743 375.606 177.743 L 372.798 177.743 372.798 176.816 C 372.798 176.306,372.923 175.889,373.077 175.889 C 373.231 175.889,373.456 174.428,373.578 172.643 C 373.699 170.858,373.908 169.397,374.042 169.397 C 374.176 169.397,374.385 168.076,374.506 166.461 C 374.627 164.845,374.848 163.524,374.998 163.524 C 375.148 163.524,375.270 162.759,375.270 161.824 C 375.270 158.611,376.086 159.675,376.337 163.215 M214.796 173.335 C 214.904 173.504,215.290 173.734,215.654 173.848 C 216.323 174.056,216.680 174.843,216.688 176.121 C 216.691 176.503,216.832 176.816,217.002 176.816 C 217.187 176.816,217.311 178.053,217.311 179.907 C 217.311 181.762,217.187 182.998,217.002 182.998 C 216.832 182.998,216.692 183.385,216.692 183.857 C 216.692 185.341,215.657 185.915,212.751 186.042 L 210.201 186.153 210.201 179.434 L 210.201 172.714 212.400 172.872 C 213.609 172.958,214.687 173.167,214.796 173.335 M46.715 182.278 C 45.886 182.453,44.513 183.798,44.513 184.435 C 44.513 184.665,44.374 184.853,44.204 184.853 C 44.032 184.853,43.895 185.677,43.895 186.708 C 43.895 187.738,44.032 188.563,44.204 188.563 C 44.374 188.563,44.513 188.740,44.513 188.958 C 44.513 189.175,44.826 189.627,45.209 189.962 C 46.777 191.337,52.241 190.556,52.241 188.958 C 52.241 188.740,52.380 188.563,52.550 188.563 C 52.722 188.563,52.859 187.738,52.859 186.708 C 52.859 185.677,52.722 184.853,52.550 184.853 C 52.380 184.853,52.241 184.665,52.241 184.435 C 52.241 182.942,49.195 181.753,46.715 182.278 M54.524 188.799 C 54.334 188.924,54.081 189.339,53.962 189.722 C 53.843 190.104,53.615 190.417,53.457 190.417 C 53.298 190.417,53.168 190.639,53.168 190.910 C 53.168 191.181,52.890 191.475,52.550 191.564 C 51.626 191.806,51.775 194.127,52.714 194.127 C 52.938 194.127,53.538 194.544,54.048 195.054 C 54.558 195.564,55.097 195.981,55.246 195.981 C 55.394 195.981,55.857 196.393,56.274 196.896 C 56.691 197.399,57.196 197.816,57.395 197.823 C 57.595 197.830,58.175 198.253,58.685 198.764 C 59.195 199.274,59.734 199.691,59.883 199.691 C 60.031 199.691,60.494 200.102,60.911 200.605 C 61.328 201.108,61.832 201.525,62.032 201.533 C 62.231 201.540,62.812 201.963,63.322 202.473 C 63.832 202.983,64.371 203.400,64.519 203.400 C 64.668 203.400,65.131 203.812,65.548 204.315 C 65.965 204.817,66.469 205.235,66.669 205.242 C 66.868 205.249,67.449 205.672,67.959 206.182 C 68.469 206.692,69.008 207.110,69.156 207.110 C 69.305 207.110,69.767 207.521,70.185 208.024 C 70.602 208.527,71.106 208.944,71.305 208.951 C 71.505 208.959,72.085 209.382,72.595 209.892 C 73.105 210.402,73.644 210.819,73.793 210.819 C 73.941 210.819,74.404 211.231,74.821 211.733 C 75.238 212.236,75.733 212.654,75.921 212.661 C 76.742 212.692,78.013 214.274,77.665 214.831 C 77.478 215.130,77.227 216.367,77.108 217.579 C 76.988 218.792,76.781 219.784,76.648 219.784 C 76.514 219.784,76.307 220.827,76.188 222.102 C 76.068 223.377,75.859 224.420,75.722 224.420 C 75.586 224.420,75.377 225.325,75.259 226.430 C 75.141 227.535,74.937 228.439,74.807 228.439 C 74.677 228.439,74.473 229.482,74.353 230.757 C 74.234 232.032,74.025 233.076,73.889 233.076 C 73.754 233.076,73.545 234.119,73.426 235.394 C 73.306 236.669,73.099 237.713,72.966 237.713 C 72.832 237.713,72.627 238.686,72.510 239.876 C 72.392 241.066,72.178 242.040,72.032 242.040 C 71.887 242.040,71.671 243.083,71.551 244.359 C 71.432 245.634,71.223 246.677,71.087 246.677 C 70.952 246.677,70.743 247.720,70.624 248.995 C 70.504 250.270,70.296 251.314,70.160 251.314 C 70.025 251.314,69.816 252.357,69.696 253.632 C 69.577 254.907,69.367 255.951,69.231 255.951 C 69.094 255.951,68.886 256.855,68.768 257.960 C 68.649 259.065,68.446 259.969,68.316 259.969 C 68.185 259.969,67.981 261.012,67.862 262.287 C 67.742 263.563,67.533 264.606,67.398 264.606 C 67.262 264.606,67.054 265.649,66.934 266.924 C 66.815 268.199,66.608 269.243,66.474 269.243 C 66.341 269.243,66.135 270.216,66.018 271.406 C 65.901 272.597,65.686 273.570,65.541 273.570 C 65.396 273.570,65.179 274.614,65.060 275.889 C 64.940 277.164,64.736 278.207,64.606 278.207 C 64.476 278.207,64.272 279.250,64.152 280.526 C 64.033 281.801,63.824 282.844,63.688 282.844 C 63.553 282.844,63.344 283.887,63.225 285.162 C 63.105 286.437,62.898 287.481,62.765 287.481 C 62.631 287.481,62.426 288.454,62.309 289.645 C 62.191 290.835,61.977 291.808,61.831 291.808 C 61.686 291.808,61.470 292.852,61.350 294.127 C 61.231 295.402,61.022 296.445,60.887 296.445 C 60.751 296.445,60.542 297.488,60.423 298.764 C 60.303 300.039,60.097 301.082,59.964 301.082 C 59.831 301.082,59.622 302.090,59.500 303.323 C 59.377 304.556,59.171 305.634,59.042 305.719 C 58.532 306.055,58.337 309.119,58.825 309.119 C 59.309 309.119,67.079 301.546,67.079 301.075 C 67.079 300.924,68.957 298.933,71.252 296.650 C 73.547 294.367,75.425 292.402,75.425 292.283 C 75.425 292.164,77.303 290.189,79.598 287.894 C 81.893 285.599,83.771 283.608,83.771 283.470 C 83.771 283.332,85.649 281.314,87.944 278.986 C 90.240 276.657,92.117 274.631,92.117 274.485 C 92.117 274.338,93.995 272.349,96.291 270.066 C 98.586 267.783,100.464 265.817,100.464 265.699 C 100.464 265.580,102.342 263.605,104.637 261.310 C 106.932 259.014,108.810 257.015,108.810 256.867 C 108.810 256.719,110.688 254.729,112.983 252.446 C 115.278 250.163,117.156 248.200,117.156 248.085 C 117.156 247.969,119.104 245.954,121.484 243.607 C 123.864 241.260,125.811 239.238,125.811 239.112 C 125.811 238.987,127.759 236.942,130.139 234.567 C 132.519 232.193,134.467 230.128,134.467 229.979 C 134.467 229.830,136.089 228.092,138.072 226.116 C 142.287 221.917,142.201 221.934,144.935 224.737 C 145.926 225.753,146.843 226.584,146.972 226.584 C 147.102 226.584,147.961 227.349,148.881 228.284 C 149.801 229.219,150.679 229.985,150.832 229.985 C 150.985 229.985,151.925 230.800,152.922 231.797 C 155.294 234.169,157.304 234.510,157.347 232.548 C 157.355 232.184,158.767 230.912,159.163 230.912 C 159.910 230.912,159.441 229.538,158.305 228.403 C 157.645 227.743,157.004 227.202,156.881 227.202 C 156.757 227.202,155.903 226.437,154.983 225.502 C 154.063 224.567,153.185 223.802,153.032 223.802 C 152.879 223.802,151.920 222.968,150.900 221.947 C 149.879 220.927,148.946 220.093,148.824 220.093 C 148.703 220.093,147.919 219.397,147.082 218.547 C 146.245 217.697,145.435 217.002,145.281 217.002 C 145.127 217.002,144.351 216.306,143.556 215.456 C 142.288 214.100,140.958 213.435,140.958 214.155 C 140.958 214.290,139.428 215.951,137.558 217.846 C 135.688 219.741,134.158 221.381,134.158 221.490 C 134.158 221.599,132.280 223.567,129.985 225.862 C 127.689 228.157,125.811 230.156,125.811 230.304 C 125.811 230.561,121.290 235.156,118.276 237.961 C 117.490 238.693,116.847 239.413,116.847 239.562 C 116.847 239.710,114.969 241.732,112.674 244.055 C 110.379 246.378,108.501 248.352,108.501 248.442 C 108.501 248.531,107.956 249.133,107.290 249.779 C 106.624 250.425,106.148 251.022,106.232 251.105 C 106.315 251.189,106.093 251.350,105.738 251.462 C 105.382 251.575,105.171 251.796,105.269 251.954 C 105.366 252.112,105.310 252.241,105.144 252.241 C 104.769 252.241,100.155 256.825,100.155 257.198 C 100.155 257.346,98.277 259.335,95.981 261.619 C 93.686 263.902,91.808 265.867,91.808 265.986 C 91.808 266.105,90.556 267.454,89.026 268.984 C 87.496 270.514,86.244 271.902,86.244 272.068 C 86.244 272.234,86.115 272.291,85.957 272.193 C 85.800 272.096,85.581 272.298,85.471 272.643 C 85.362 272.988,85.153 273.197,85.008 273.107 C 84.862 273.017,84.654 273.225,84.544 273.570 C 84.435 273.915,84.226 274.124,84.080 274.034 C 83.935 273.944,83.724 274.159,83.612 274.511 C 83.501 274.863,81.543 277.038,79.263 279.344 C 76.982 281.650,75.116 283.650,75.116 283.788 C 75.116 284.041,68.389 290.881,68.140 290.881 C 68.066 290.881,68.006 290.533,68.006 290.108 C 68.006 289.683,68.133 289.335,68.289 289.335 C 68.444 289.335,68.669 288.292,68.789 287.017 C 68.908 285.742,69.113 284.699,69.243 284.699 C 69.373 284.699,69.577 283.794,69.695 282.689 C 69.813 281.584,70.024 280.680,70.162 280.680 C 70.301 280.680,70.513 279.567,70.634 278.207 C 70.754 276.847,70.965 275.734,71.103 275.734 C 71.241 275.734,71.452 274.691,71.571 273.416 C 71.690 272.141,71.899 271.097,72.035 271.097 C 72.170 271.097,72.379 270.054,72.498 268.779 C 72.618 267.504,72.827 266.461,72.964 266.461 C 73.100 266.461,73.309 265.556,73.427 264.451 C 73.546 263.346,73.749 262.442,73.879 262.442 C 74.009 262.442,74.214 261.399,74.333 260.124 C 74.453 258.849,74.661 257.805,74.797 257.805 C 74.932 257.805,75.141 256.762,75.261 255.487 C 75.380 254.212,75.587 253.168,75.721 253.168 C 75.854 253.168,76.059 252.195,76.177 251.005 C 76.294 249.815,76.509 248.841,76.654 248.841 C 76.799 248.841,77.016 247.798,77.135 246.522 C 77.255 245.247,77.463 244.204,77.599 244.204 C 77.734 244.204,77.943 243.161,78.062 241.886 C 78.182 240.611,78.391 239.567,78.526 239.567 C 78.662 239.567,78.870 238.524,78.990 237.249 C 79.109 235.974,79.319 234.930,79.455 234.930 C 79.592 234.930,79.800 234.026,79.919 232.921 C 80.037 231.816,80.240 230.912,80.371 230.912 C 80.501 230.912,80.705 229.869,80.825 228.594 C 80.944 227.318,81.153 226.275,81.288 226.275 C 81.424 226.275,81.633 225.232,81.752 223.957 C 81.872 222.682,82.080 221.638,82.216 221.638 C 82.351 221.638,82.560 220.595,82.679 219.320 C 82.799 218.045,83.010 217.002,83.148 217.002 C 83.286 217.002,83.497 216.028,83.617 214.838 C 83.736 213.648,83.959 212.674,84.112 212.674 C 84.265 212.674,84.389 212.318,84.389 211.883 C 84.389 211.434,84.256 211.174,84.080 211.283 C 83.910 211.388,83.771 211.327,83.771 211.147 C 83.771 210.966,83.591 210.819,83.370 210.819 C 83.150 210.819,82.628 210.408,82.211 209.905 C 81.794 209.402,81.338 208.985,81.197 208.978 C 81.057 208.970,80.524 208.547,80.014 208.037 C 79.504 207.527,78.910 207.110,78.693 207.110 C 78.477 207.110,77.980 206.692,77.589 206.182 C 77.198 205.672,76.749 205.255,76.592 205.255 C 76.434 205.255,75.888 204.838,75.377 204.328 C 74.867 203.818,74.287 203.394,74.088 203.387 C 73.888 203.380,73.384 202.963,72.967 202.460 C 72.550 201.957,72.087 201.546,71.938 201.546 C 71.790 201.546,71.251 201.128,70.741 200.618 C 70.231 200.108,69.650 199.685,69.451 199.678 C 69.251 199.671,68.747 199.253,68.330 198.750 C 67.913 198.248,67.450 197.836,67.301 197.836 C 67.153 197.836,66.614 197.419,66.104 196.909 C 65.594 196.399,65.013 195.976,64.814 195.968 C 64.614 195.961,64.110 195.544,63.693 195.041 C 63.276 194.538,62.813 194.127,62.665 194.127 C 62.516 194.127,61.977 193.709,61.467 193.199 C 60.957 192.689,60.377 192.266,60.177 192.259 C 59.978 192.252,59.473 191.834,59.056 191.332 C 58.639 190.829,58.176 190.417,58.028 190.417 C 57.879 190.417,57.340 190.000,56.830 189.490 C 55.914 188.573,55.194 188.358,54.524 188.799 M223.184 216.692 C 223.184 216.862,223.030 217.002,222.841 217.002 C 222.366 217.002,221.032 218.308,221.025 218.779 C 221.022 218.991,220.881 219.165,220.711 219.165 C 220.532 219.165,220.402 220.144,220.402 221.484 C 220.402 222.823,220.532 223.802,220.711 223.802 C 220.881 223.802,221.020 223.991,221.020 224.221 C 221.020 225.958,227.385 227.583,228.373 226.098 C 228.494 225.916,228.837 225.677,229.134 225.567 C 229.432 225.457,229.675 225.166,229.675 224.920 C 229.675 224.673,229.849 224.414,230.062 224.343 C 230.565 224.175,230.603 219.242,230.103 218.922 C 229.914 218.801,229.661 218.389,229.542 218.007 C 229.423 217.625,228.987 217.227,228.573 217.123 C 228.159 217.019,227.821 216.811,227.821 216.659 C 227.821 216.507,226.777 216.383,225.502 216.383 C 224.163 216.383,223.184 216.514,223.184 216.692 M229.477 227.668 C 229.379 227.924,228.758 228.220,228.096 228.326 C 227.435 228.431,226.893 228.639,226.893 228.788 C 226.893 228.936,226.598 229.057,226.236 229.057 C 225.553 229.057,225.568 230.784,226.255 231.209 C 226.409 231.304,226.631 231.763,226.748 232.229 C 226.865 232.695,227.067 233.076,227.196 233.076 C 227.326 233.076,227.522 233.632,227.630 234.312 C 227.739 234.992,227.954 235.549,228.109 235.549 C 228.263 235.549,228.481 235.966,228.594 236.476 C 228.706 236.986,228.914 237.403,229.057 237.403 C 229.200 237.403,229.409 237.821,229.521 238.331 C 229.633 238.841,229.842 239.258,229.985 239.258 C 230.128 239.258,230.336 239.675,230.448 240.185 C 230.560 240.696,230.769 241.113,230.912 241.113 C 231.055 241.113,231.264 241.530,231.376 242.040 C 231.488 242.550,231.696 242.968,231.839 242.968 C 231.982 242.968,232.191 243.385,232.303 243.895 C 232.415 244.405,232.624 244.822,232.767 244.822 C 232.910 244.822,233.118 245.240,233.230 245.750 C 233.424 246.634,234.930 247.203,234.930 246.392 C 234.930 246.236,235.348 246.016,235.858 245.904 C 236.368 245.792,236.785 245.579,236.785 245.430 C 236.785 245.281,237.275 245.067,237.874 244.955 C 238.939 244.755,239.240 242.956,238.311 242.346 C 238.179 242.259,237.975 241.807,237.858 241.342 C 237.741 240.876,237.533 240.495,237.394 240.495 C 237.256 240.495,237.052 240.077,236.940 239.567 C 236.828 239.057,236.619 238.640,236.476 238.640 C 236.333 238.640,236.124 238.223,236.012 237.713 C 235.900 237.202,235.692 236.785,235.549 236.785 C 235.406 236.785,235.197 236.368,235.085 235.858 C 234.973 235.348,234.764 234.930,234.621 234.930 C 234.478 234.930,234.270 234.513,234.158 234.003 C 234.046 233.493,233.837 233.076,233.694 233.076 C 233.551 233.076,233.342 232.658,233.230 232.148 C 233.118 231.638,232.914 231.221,232.776 231.221 C 232.639 231.221,232.435 230.734,232.323 230.139 C 232.212 229.544,231.999 229.057,231.850 229.057 C 231.701 229.057,231.488 228.640,231.376 228.130 C 231.150 227.104,229.818 226.780,229.477 227.668 M92.117 228.748 C 92.117 228.918,91.850 229.057,91.523 229.057 C 90.833 229.057,89.026 230.752,89.026 231.399 C 89.026 231.641,88.887 231.839,88.717 231.839 C 88.543 231.839,88.408 232.715,88.408 233.849 C 88.408 234.982,88.543 235.858,88.717 235.858 C 88.887 235.858,89.026 236.056,89.026 236.298 C 89.026 236.945,90.833 238.640,91.523 238.640 C 91.850 238.640,92.117 238.779,92.117 238.949 C 92.117 239.119,92.743 239.258,93.509 239.258 C 94.274 239.258,94.900 239.119,94.900 238.949 C 94.900 238.779,95.198 238.640,95.564 238.640 C 95.929 238.640,96.729 238.124,97.341 237.494 C 99.651 235.116,98.374 229.057,95.564 229.057 C 95.198 229.057,94.900 228.918,94.900 228.748 C 94.900 228.578,94.274 228.439,93.509 228.439 C 92.743 228.439,92.117 228.578,92.117 228.748 M164.219 230.188 C 163.667 230.268,163.215 230.463,163.215 230.622 C 163.215 230.782,162.947 230.912,162.619 230.912 C 162.291 230.912,161.814 231.121,161.559 231.376 C 161.304 231.631,160.995 231.839,160.872 231.839 C 160.538 231.839,158.578 233.926,158.578 234.282 C 158.578 234.452,158.359 234.713,158.092 234.863 C 157.825 235.012,157.528 235.715,157.433 236.424 C 157.338 237.132,157.139 237.713,156.992 237.713 C 156.844 237.713,156.723 238.756,156.723 240.031 C 156.723 241.306,156.845 242.349,156.993 242.349 C 157.141 242.349,157.352 242.906,157.460 243.586 C 157.569 244.266,157.795 244.822,157.963 244.822 C 158.131 244.822,158.269 245.035,158.269 245.296 C 158.269 245.556,158.465 245.844,158.705 245.936 C 158.944 246.028,159.225 246.439,159.328 246.849 C 159.439 247.293,159.817 247.671,160.261 247.782 C 160.671 247.885,161.082 248.165,161.173 248.405 C 161.265 248.645,161.542 248.841,161.788 248.841 C 162.035 248.841,162.294 249.015,162.365 249.227 C 162.460 249.511,163.624 249.614,166.770 249.614 C 169.916 249.614,171.080 249.511,171.175 249.227 C 171.245 249.015,171.505 248.841,171.751 248.841 C 171.997 248.841,172.279 248.632,172.377 248.377 C 172.474 248.122,172.728 247.913,172.940 247.913 C 173.492 247.913,174.852 246.583,175.101 245.798 C 175.217 245.431,175.433 245.131,175.581 245.131 C 175.730 245.131,175.945 244.505,176.059 243.740 C 176.174 242.975,176.391 242.349,176.542 242.349 C 176.693 242.349,176.816 241.236,176.816 239.876 C 176.816 238.516,176.695 237.403,176.546 237.403 C 176.398 237.403,176.188 236.847,176.079 236.167 C 175.970 235.487,175.744 234.930,175.576 234.930 C 175.408 234.930,175.270 234.775,175.270 234.585 C 175.270 234.395,174.730 233.699,174.070 233.039 C 173.410 232.379,172.715 231.839,172.525 231.839 C 172.335 231.839,172.179 231.703,172.179 231.536 C 172.179 231.369,171.797 231.139,171.329 231.025 C 170.862 230.910,170.400 230.697,170.303 230.550 C 170.098 230.239,165.690 229.977,164.219 230.188 M169.575 236.901 C 170.157 237.467,170.634 238.089,170.634 238.285 C 170.634 238.480,170.773 238.640,170.943 238.640 C 171.113 238.640,171.252 239.196,171.252 239.876 C 171.252 240.556,171.128 241.113,170.976 241.113 C 170.825 241.113,170.613 241.464,170.505 241.893 C 170.033 243.772,165.940 245.194,164.940 243.826 C 164.755 243.573,164.301 243.271,163.931 243.153 C 163.519 243.022,163.180 242.585,163.057 242.026 C 162.947 241.524,162.729 241.113,162.572 241.113 C 162.416 241.113,162.287 240.556,162.287 239.876 C 162.287 239.196,162.427 238.640,162.597 238.640 C 162.767 238.640,162.906 238.480,162.906 238.285 C 162.906 235.902,167.553 234.938,169.575 236.901 M237.944 246.880 C 237.477 246.961,237.094 247.142,237.094 247.282 C 237.094 247.423,236.743 247.625,236.313 247.733 C 235.424 247.957,233.076 250.244,233.076 250.887 C 233.076 251.122,232.943 251.314,232.781 251.314 C 232.618 251.314,232.394 251.801,232.283 252.396 C 232.171 252.991,231.956 253.478,231.805 253.478 C 231.654 253.478,231.530 254.869,231.530 256.569 C 231.530 258.269,231.658 259.660,231.815 259.660 C 231.971 259.660,232.191 260.077,232.303 260.587 C 232.415 261.097,232.635 261.515,232.791 261.515 C 232.948 261.515,233.076 261.672,233.076 261.865 C 233.076 262.474,236.066 265.187,236.986 265.413 C 237.470 265.531,237.966 265.781,238.088 265.967 C 238.382 266.419,244.805 266.370,245.087 265.915 C 245.200 265.732,245.673 265.487,246.139 265.370 C 246.605 265.253,246.986 265.029,246.986 264.872 C 246.986 264.715,247.223 264.495,247.513 264.384 C 248.307 264.080,249.150 263.283,249.150 262.837 C 249.150 262.620,249.280 262.442,249.438 262.442 C 249.597 262.442,249.824 262.129,249.944 261.747 C 250.063 261.364,250.296 260.964,250.462 260.857 C 250.627 260.751,250.835 260.021,250.924 259.235 C 251.013 258.448,251.206 257.805,251.354 257.805 C 251.502 257.805,251.623 257.179,251.623 256.414 C 251.623 255.649,251.500 255.023,251.349 255.023 C 251.199 255.023,250.980 254.258,250.863 253.323 C 250.747 252.388,250.522 251.623,250.364 251.623 C 250.206 251.623,250.077 251.465,250.077 251.272 C 250.077 250.842,247.141 247.913,246.710 247.913 C 246.539 247.913,246.268 247.680,246.108 247.394 C 245.812 246.865,240.109 246.507,237.944 246.880 M205.255 249.150 C 205.255 249.320,205.057 249.459,204.815 249.459 C 204.573 249.459,203.947 249.887,203.424 250.410 C 202.901 250.933,202.473 251.559,202.473 251.801 C 202.473 252.043,202.334 252.241,202.164 252.241 C 201.989 252.241,201.855 253.117,201.855 254.250 C 201.855 255.355,201.979 256.260,202.130 256.260 C 202.282 256.260,202.494 256.610,202.601 257.037 C 202.834 257.966,203.701 259.042,204.216 259.042 C 204.419 259.042,204.644 259.216,204.715 259.428 C 204.806 259.699,205.665 259.812,207.600 259.807 L 210.355 259.800 211.592 258.571 C 212.994 257.177,213.688 252.285,212.597 251.487 C 212.349 251.305,212.051 250.858,211.935 250.493 C 211.819 250.128,211.382 249.744,210.963 249.638 C 210.544 249.533,210.201 249.311,210.201 249.144 C 210.201 248.971,209.139 248.841,207.728 248.841 C 206.285 248.841,205.255 248.970,205.255 249.150 M244.240 253.441 C 244.900 254.101,245.440 254.936,245.440 255.296 C 245.440 255.656,245.580 255.951,245.750 255.951 C 245.920 255.951,246.059 256.229,246.059 256.569 C 246.059 256.909,245.935 257.187,245.783 257.187 C 245.632 257.187,245.420 257.537,245.312 257.965 C 245.079 258.893,244.213 259.969,243.697 259.969 C 243.494 259.969,243.277 260.124,243.214 260.313 C 242.743 261.725,237.713 259.757,237.713 258.160 C 237.713 257.965,237.573 257.805,237.403 257.805 C 237.233 257.805,237.094 257.179,237.094 256.414 C 237.094 255.649,237.233 255.023,237.403 255.023 C 237.573 255.023,237.713 254.835,237.713 254.605 C 237.713 252.212,242.209 251.410,244.240 253.441 M68.006 291.654 C 68.006 291.909,67.798 292.117,67.543 292.117 C 67.287 292.117,67.079 291.909,67.079 291.654 C 67.079 291.399,67.287 291.190,67.543 291.190 C 67.798 291.190,68.006 291.399,68.006 291.654 " stroke="none" fill="#24449c" fill-rule="evenodd"></path><path id="path1" d="M67.079 291.654 C 67.079 291.909,67.287 292.117,67.543 292.117 C 67.798 292.117,68.006 291.909,68.006 291.654 C 68.006 291.399,67.798 291.190,67.543 291.190 C 67.287 291.190,67.079 291.399,67.079 291.654 " stroke="none" fill="#28449c" fill-rule="evenodd"></path><path id="path2" d="M67.079 291.654 C 67.079 291.909,67.287 292.117,67.543 292.117 C 67.798 292.117,68.006 291.909,68.006 291.654 C 68.006 291.399,67.798 291.190,67.543 291.190 C 67.287 291.190,67.079 291.399,67.079 291.654 " stroke="none" fill="#28449c" fill-rule="evenodd"></path><path id="path3" d="M67.079 291.654 C 67.079 291.909,67.287 292.117,67.543 292.117 C 67.798 292.117,68.006 291.909,68.006 291.654 C 68.006 291.399,67.798 291.190,67.543 291.190 C 67.287 291.190,67.079 291.399,67.079 291.654 " stroke="none" fill="#28449c" fill-rule="evenodd"></path><path id="path4" d="M67.079 291.654 C 67.079 291.909,67.287 292.117,67.543 292.117 C 67.798 292.117,68.006 291.909,68.006 291.654 C 68.006 291.399,67.798 291.190,67.543 291.190 C 67.287 291.190,67.079 291.399,67.079 291.654 " stroke="none" fill="#28449c" fill-rule="evenodd"></path></g></svg>